/* XPM */
static char *f83c0b148e3a468388b05585c1a253ebBzALNk2jeKjWrewv[] = {
/* columns rows colors chars-per-pixel */
"16 16 13 1 ",
"  c None",
". c #1B2B10",
"X c #102C31",
"o c #1E4835",
"O c #316364",
"+ c #579143",
"@ c #71AC49",
"# c #659B7D",
"$ c #88C35A",
"% c #B5E45A",
"& c #97D16B",
"* c #4E8386",
"= c #CBFCDD",
/* pixels */
"                ",
"                ",
"       Ooo      ",
"     OO***oo    ",
"    O*#####Oo   ",
"   o*#=%$@##Oo  ",
"   o#=%&o+@##X  ",
"  oO#%&o.o+@#OX ",
"  oO@@$o.o+@#OX ",
"  oO#@+o.o$@@OX ",
"   o*#@$o&@*#X  ",
"   oO*#@+@*@OX  ",
"    XO****#OX   ",
"     XXOOOXX    ",
"       XXX      ",
"                "
};
