/* XPM */
static char *_810cc1971d9407a9b7a6a75f7fd46f0030wW6KnqTWriK22[] = {
/* columns rows colors chars-per-pixel */
"16 16 19 1 ",
"  c #241808",
". c #2B1E0D",
"X c #332411",
"o c #342512",
"O c #3F2A15",
"+ c #421D0A",
"@ c #492510",
"# c #6A4030",
"$ c #774235",
"% c #815339",
"& c #8F5E3E",
"* c #90593F",
"= c #94603E",
"- c #9B6349",
"; c #AA7259",
": c #B3795E",
"> c #B7836B",
", c #523D89",
"< c white",
/* pixels */
"XXXXOOOOOOOOXX..",
"XXXXOOOOOOOOXX..",
"  XXXXOOOOXXOOXX",
"  XXXXOOOOXXOOXX",
"..--::>>::;;--oo",
"..--::>>::;;--oo",
"--;;::::;;;;;;--",
"--;;::::;;;;;;--",
";;<<,,;;--,,<<;;",
";;<<,,;;--,,<<;;",
"--;;;;####;;;;--",
"--;;;;####;;;;--",
"**&&@@$$$$++&&%%",
"**&&@@$$$$++&&%%",
"==%%++@@++@@%%&&",
"==%%++@@++@@%%&&"
};
