/* XPM */
static char *ddca0b2e7c7d4630d9b4e387f1dc24dcGH5tNbGxcy23Ci04[] = {
/* columns rows colors chars-per-pixel */
"64 51 149 2 ",
"   c None",
".  c #3E3D39",
"X  c #403F3B",
"o  c #43423E",
"O  c #474641",
"+  c #484742",
"@  c #4B4A45",
"#  c #4F4E49",
"$  c #504F4A",
"%  c #53524D",
"&  c #575550",
"*  c #595651",
"=  c #5C5A54",
"-  c #5F5D58",
";  c #605D57",
":  c #615E59",
">  c #65625C",
",  c #68655F",
"<  c #6A6760",
"1  c #6D6B64",
"2  c #706D66",
"3  c #726F68",
"4  c #75726B",
"5  c #78756E",
"6  c #797770",
"7  c #7D7A73",
"8  c #817E76",
"9  c #827F78",
"0  c #85827A",
"q  c #89867D",
"w  c #8C897F",
"e  c #8D8B82",
"r  c #928E84",
"t  c #939187",
"y  c #969489",
"u  c #99968C",
"i  c #9C988D",
"p  c #9E9B90",
"a  c #A29F93",
"s  c #A5A195",
"d  c #A6A398",
"f  c #AAA79C",
"g  c #ACAA9D",
"h  c #A4A4A4",
"j  c #AFACA0",
"k  c #ABABAB",
"l  c #B1AEA2",
"z  c #B4B1A5",
"x  c #B6B4A8",
"c  c #B9B6AA",
"v  c #BCB9AD",
"b  c #B3B3B3",
"n  c #BEBCB2",
"m  c #BBBBBB",
"M  c #C1BEB3",
"N  c #C3C1B4",
"B  c #C7C5B8",
"V  c #CAC6BB",
"C  c #CCC9BE",
"Z  c #CDCABE",
"A  c #CDCBBF",
"S  c #CDCBBE",
"D  c #CECABE",
"F  c #CECBBF",
"G  c #CFCBBF",
"H  c #CCC9BD",
"J  c #CECCBF",
"K  c #CCCABD",
"L  c #C3C3C3",
"P  c #CECBC0",
"I  c #CFCBC0",
"U  c #CFCCC0",
"Y  c #CFCDC0",
"T  c #CFCDC1",
"R  c #CFCCC0",
"E  c gray80",
"W  c #D0CCC0",
"Q  c #D0CCC1",
"!  c #D0CDC1",
"~  c #D1CDC1",
"^  c #D0CEC1",
"/  c #D1CDC2",
"(  c #D0CEC2",
")  c #D1CEC2",
"_  c #D2CEC2",
"`  c #D2CEC3",
"'  c #D3CFC3",
"]  c #D3CFC4",
"[  c #D0CDC1",
"{  c #D2D0C3",
"}  c #D2D0C4",
"|  c #D3D0C4",
" . c #D3D1C4",
".. c #D3D1C5",
"X. c #D4D0C4",
"o. c #D5D1C5",
"O. c #D4D2C5",
"+. c #D4D1C6",
"@. c #D5D1C6",
"#. c #D4D2C6",
"$. c #D5D2C6",
"%. c #D6D2C7",
"&. c #D7D3C7",
"*. c #D5D3C7",
"=. c #D6D3C8",
"-. c #D7D3C8",
";. c #D5D4C8",
":. c #D7D4C8",
">. c #D6D2C8",
",. c #D8D4C8",
"<. c #D8D4C9",
"1. c #D8D5C9",
"2. c #D9D5CA",
"3. c #D9D6CA",
"4. c #D9D6CB",
"5. c #DAD6CA",
"6. c #DBD7CB",
"7. c #DBD7CC",
"8. c #D9D5CA",
"9. c #DBD8CC",
"0. c #DDD9CC",
"q. c #DCD8CD",
"w. c #DCDBCD",
"e. c #DDD9CE",
"r. c #DDD9CF",
"t. c #DED8CE",
"y. c #DDDACE",
"u. c #DDDBCE",
"i. c #DDDACF",
"p. c #DEDACF",
"a. c #DDDACE",
"s. c gray83",
"d. c #DDD9D0",
"f. c #DEDCD1",
"g. c #DEDDD1",
"h. c gray86",
"j. c #E2E1D6",
"k. c #E3E2D7",
"l. c #E2E1D5",
"z. c #E4E3D8",
"x. c #E4E4D8",
"c. c #E6E6DA",
"v. c #E5E5DA",
"b. c #E8E8DD",
"n. c #E9E9DE",
"m. c #E1E1E1",
"M. c #EBEBE3",
"N. c #EFF0E9",
"B. c #F1F1EB",
/* pixels */
"                                                                                                                        k       ",
"                                                                                                                                ",
"                                                                                                                                ",
"                                                                                                                                ",
"                                                              7.g /                                                             ",
"                                                          ,.f l V H z H d.                                                      ",
"                                                      ,.f l V H B V @.H z H i.                                                  ",
"                                                  -.d z V H N ,.i.i.H B / H x V i.                                              ",
"                                              @.s z H V B 9.i.i.i.i.i.i.H B / P c V i.                                          ",
"                                          ] s x H V B i.i.i.i.i.i.i.i.i.i.i./ N / / c B i.                                      ",
"                                      / s c H V V i.i.i.i.i.i.i.i.i.i.i.i.i.i.i.| N / / c N i.                                  ",
"                                  P s c H B V i.i.n O @ -.i.% i.8 7 M = 4 1 % p i.i.@.M / / v M i.                              ",
"                              H s v H B H i.i.i.i.i.o # P c O ,.P > i q f , n i.i.i.i.i.:.M H / v v i.                          ",
"                          V s v H B U i.i.i.i.i.i.i.+ p t = 6 r H @.# q f e @ i.i.i.i.i.i.i.,.N H / v v i.                      ",
"                    i.B s v H N / i.i.i.i.i.i.i.i.x 4 0 v 6 x 4 q r i.p 8 6 p e i.i.i.i.i.i.i.i.7.B H / M c i.                  ",
"                i.M s M @.,.@.:.-.@.@.@.@.@.@.@.@.@.@.@.@.@.@.@.@.@.@.@.@.@.@.@.@.@.@.@.@.@.@.@.@.:.,.@.7.@.M c 7.              ",
"                  c @.7.i.,.@.| | | | | | | | | | | | | | | | | | | | | | | | | | | | | | | | | | | @.,.i.i.7.@.                ",
"                  v ,.,.,.,.,.,.,.<.,.,.,.,.,.,.,.,.,.,.,.,.,.,.,.,.,.,.,.,.,.,.,.,.,.,.,.,.,.,.,.,.,.,.,.,.,.,.                ",
"                      g N N N N N N N N N N N N N N N N N N N N N N N N N N N N N N N N N N N N N N N N N N                     ",
"                      n j.z.z.z.z.z.z.z.z.z.z.z.z.z.z.z.z.z.z.z.z.z.z.z.z.z.z.z.z.z.z.z.z.z.z.z.z.z.z.z.z.g.                    ",
"                          x v n n c z o o o o + x c n n c z o o o o o z c n n v x @ o o o o f x n n v x                         ",
"                        V / H @.| U U % . . o 8 / H | | J U 1 . o o , U J | @.H / e X o o o H U U @.V / V                       ",
"                          B / H x c d . . o % * x H J c z j . . @ % % j K / v z z o O % % + y V @.v j M                         ",
"                            j.H z t . . + * > , 5 x.U c y o o % : , , , x.{ c i # @ = > > : % b.:.v a 0                         ",
"                            M.@.l q . . % > 4 4 8 B.,.z w o o - 1 2 2 3 B.9.z r # * , 1 1 1 > B.9.v p 0                         ",
"                            M.@.l q . . % > 5 5 0 B.,.z w o o - 4 5 4 5 B.9.z r # * 1 3 3 2 , B.9.v p 0                         ",
"                            M.@.l q . . % > 7 7 q B.,.z w o o - 5 6 6 6 B.9.z r # * 1 4 5 4 1 B.9.v p 0                         ",
"                            M.@.l q . . % > 8 8 e B.,.z w o o : 6 7 7 7 B.9.z r # * 3 6 6 5 1 B.9.v p 0                         ",
"                            M.@.l q . . % , 0 0 e B.,.z w o o : 7 8 8 8 B.9.z r # * 4 7 7 6 3 B.9.v p 0                         ",
"                            M.@.l q . . % , 0 0 e B.,.z w o o : 7 0 8 9 B.9.z r # * 4 7 7 7 4 B.9.v p 0                         ",
"                            M.@.l q . . % , 0 0 r B.,.z w o o : 8 0 0 0 B.9.z r # = 4 8 8 7 4 B.9.v p 0                         ",
"                            M.@.l q . . % , 0 0 r B.,.z w o o : 8 0 0 0 B.9.z r # = 4 8 8 7 4 B.9.v p 0                         ",
"                            M.@.l q . . % , 0 0 e B.,.z w o o : 7 0 8 8 B.9.z r # * 4 7 7 7 4 B.9.v p 0                         ",
"                            M.@.l q . . % , 9 8 e B.,.z w o o : 7 8 7 7 B.9.z r # * 4 6 7 5 2 B.9.v p 0                         ",
"                            M.@.l q . . % > 7 7 q B.,.z w o o ; 5 7 7 7 B.9.z r # * 2 5 5 5 1 B.9.v p 0                         ",
"                            M.@.l q . . % > 7 6 0 B.,.z w o o - 4 5 5 5 B.9.z r # = 1 4 4 4 < B.9.v p 0                         ",
"                            M.@.l q . . % > 4 4 9 N.,.z w o o - 2 4 4 4 B.9.z r # * < 1 2 1 > B.9.v p 0                         ",
"                            j.H z t . . % : 2 2 7 j.J c u o o = 1 1 1 1 x./ c i # * > < < , - b.@.v s 0                         ",
"                          b.9.V c p 7 . o = > , b.g.K c a 0 . $ > , > x.g.J v s q @ - > > : n j./ n f e                         ",
"                          b.9.V c p 7 . o * : : b.g.K c a 0 . @ - : - x.g.J v s q + = = = * n j./ n f e                         ",
"                          / / / U U U o . # = 1 / U / U U U @ o * * - / U U U U U > % * % @ H / U U U U                         ",
"                        7.-.-.-.-.-.-.n n n M B -.-.-.-.-.-.M n M M M -.-.-.-.-.-.B n M n n -.-.-.-.-.-.,.                      ",
"                        V V V V V V V V V V V V V V V V V V V V V V V V V V V V V V V V V V V V V V V V V                       ",
"                      ,.,.,.,.,.,.,.,.,.,.,.,.,.,.,.,.,.,.,.,.,.,.,.,.,.,.,.,.,.,.,.,.,.,.,.,.,.,.,.,.,.,.,.                    ",
"                  i.i.i.i.i.i.i.i.i.i.i.i.i.i.i.i.i.i.i.i.i.i.i.i.i.i.i.i.i.i.i.i.i.i.i.i.i.i.i.i.i.i.i.i.i.i.i.                ",
"                  U U U U U U U U U U U U U U U U U U U U U U U U U U U U U U U U U U U U U U U U U U U U U U U                 ",
"                      m.m.h.h.s.s.E E L L m m b b k k k h h h h h h h h h k k k b b m m L L E E s.s.h.h.m.m.                    ",
"                                                                                                                                ",
"                                                                                                                                ",
"                                                                                                                                ",
"                                                                                                                                "
};
