/* XPM */
static char *_8a035ea40a84e85d19db821cf3571e7QOzhzYQ3cx9echlK[] = {
/* columns rows colors chars-per-pixel */
"64 64 183 2 ",
"   c None",
".  c #AB3B00",
"X  c #AC4500",
"o  c #AD4A00",
"O  c #B24400",
"+  c #B34902",
"@  c #B94E00",
"#  c #B24B0B",
"$  c #B55100",
"%  c #BD5700",
"&  c #B5530C",
"*  c #BF6600",
"=  c #BF6B1B",
"-  c #C05700",
";  c #C15F00",
":  c #C46400",
">  c #C86600",
",  c #CA6C00",
"<  c #CC7700",
"1  c #C47800",
"2  c #CD7900",
"3  c #D17600",
"4  c #C27225",
"5  c #DE8400",
"6  c #D78B00",
"7  c #D98B00",
"8  c #DD9600",
"9  c #D39B00",
"0  c #D89800",
"q  c #E68E00",
"w  c #E39600",
"e  c #ED9500",
"r  c #E69C00",
"t  c #EC9C00",
"y  c #F09600",
"u  c #F29D00",
"i  c #D0A700",
"p  c #D4AA00",
"a  c #D9AE00",
"s  c #DDB100",
"d  c #ECA300",
"f  c #E4AD00",
"g  c #ECAC00",
"h  c #F6A400",
"j  c #F6AC00",
"k  c #E2B500",
"l  c #EEB200",
"z  c #E6B900",
"x  c #ECBC00",
"c  c #F5B400",
"v  c #F4BB00",
"b  c #F8BD00",
"n  c #C88228",
"m  c #CE8E28",
"M  c #E5C500",
"N  c #EAC400",
"B  c #EFCC00",
"V  c #F5C300",
"C  c #FAC500",
"Z  c #F5CC00",
"A  c #FECC00",
"S  c #EDD300",
"D  c #F4D400",
"F  c #FED300",
"G  c #F3DC00",
"H  c #FBDA00",
"J  c #FAD900",
"K  c #FFD900",
"L  c #FFD800",
"P  c #FFDB00",
"I  c #FFDA00",
"U  c #F8DF00",
"Y  c #FEDD00",
"T  c #FFDD00",
"R  c #FFDC00",
"E  c #FDDF00",
"W  c #FEDE00",
"Q  c #FFDE00",
"!  c #FFDF00",
"~  c #FDDA00",
"^  c #F3E300",
"/  c #F2E000",
"(  c #F5E400",
")  c #F5E700",
"_  c #FDE100",
"`  c #FFE100",
"'  c #FEE200",
"]  c #FEE300",
"[  c #FFE300",
"{  c #FFE200",
"}  c #FDE200",
"|  c #FBE600",
" . c #FAE500",
".. c #FFE400",
"X. c #FFE500",
"o. c #FEE500",
"O. c #FDE700",
"+. c #FFE700",
"@. c #FEE700",
"#. c #FCE400",
"$. c #F7E900",
"%. c #F7ED00",
"&. c #F6EE00",
"*. c #F5EB00",
"=. c #FBE800",
"-. c #FAEA00",
";. c #FEE900",
":. c #FFE900",
">. c #FEE800",
",. c #FFEA00",
"<. c #FFEB00",
"1. c #FCEA00",
"2. c #FAEC00",
"3. c #FBED00",
"4. c #F8EF00",
"5. c #F9EF00",
"6. c #FAEF00",
"7. c #FBEF00",
"8. c #F9EC00",
"9. c #FFEC00",
"0. c #FEEF00",
"q. c #FFEE00",
"w. c #FDED00",
"e. c #FDED00",
"r. c #F5F300",
"t. c #F7F300",
"y. c #F5F500",
"u. c #F7F700",
"i. c #F5F200",
"p. c #F9F000",
"a. c #FAF100",
"s. c #FAF000",
"d. c #FAF300",
"f. c #FAF200",
"g. c #FEF000",
"h. c #FFF000",
"j. c #FFF100",
"k. c #FFF300",
"l. c #FAF400",
"z. c #FAF500",
"x. c #FAF600",
"c. c #FAF700",
"v. c #FBF600",
"b. c #F9F500",
"n. c #FFF500",
"m. c #FFF400",
"M. c #FEF600",
"N. c #FFF600",
"B. c #FFF700",
"V. c #FDF500",
"C. c #F8F800",
"Z. c #F9F900",
"A. c #FAF800",
"S. c #FAF900",
"D. c #FAFA00",
"F. c #FFF900",
"G. c #FFFB00",
"H. c #FEFC00",
"J. c #FFFC00",
"K. c #FFFD00",
"L. c #FEFE00",
"P. c #FFFE00",
"I. c #FEFB03",
"U. c #FEFE08",
"Y. c #FFFE17",
"T. c #FEFE19",
"R. c #F0DE3F",
"E. c #FDFD27",
"W. c #FDFD29",
"Q. c #FDFD3A",
"!. c #D8A646",
"~. c #E6C743",
"^. c #FAF649",
"/. c #FDFD4C",
"(. c #F7F058",
"). c #F9F659",
"_. c #FCFC5D",
"`. c #F0DE6C",
"'. c #F5EB64",
"]. c #F1E36E",
"[. c #FCFC6E",
"{. c #FCFC70",
"}. c #FBFA7D",
/* pixels */
"                                                                                                                                ",
"                                                      )  . .J                                                                   ",
"                                            %.p.8.8.-.-. .O.O.[ [ Y L Z Z A A A                                                 ",
"                                        x.p.p.8.8.-.-.O.[ [ [ [ Y Y Y L L A A A A A A                                           ",
"                                    x.x.p.p.8.G D Z V v v v v V V Z L L L F F A A A A A Z                                       ",
"                                  D.x.x.$.G V v v v v c c c c c j j c v Z F F A A A A A A A                                     ",
"                              y.D.x.p.G V v v v v v c c c c c j j j j j j v A A A F A A A A A                                   ",
"                            C.D.x.) Z v v v v v v c c c c c j j j j j h h h j C F L L A A A A A                                 ",
"                          C.D.x.^ V v v v v v v c c c c c j j j j j j h h h h h v L L L A A A A A                               ",
"                        y.D.D.G v v v v v v v c c c c c j j j j j j h h h h h j j V L Y Y A A A A A                             ",
"                        D.D.G v v v v v v v v c c c c c j j j j j h h h h h h j j j V Y [ Y A A A A A                           ",
"                      D.D.^ V v v v v v v v c c c c c v 0 j j j h h h h h h j j j j c Z O.O.L A A A A Z                         ",
"                    D.D.%.V v v v v v v v c c c c c j K.K.w j j h h h h h j j j j c c c H >.9.A A A A A                         ",
"                  y.D.x.Z v v v v v v v c c c c c j O.K.K.M j h h h h h j j j j j c c c v >.9.>.A A A A A                       ",
"                  D.D.G v v v v v v v c c c c c j v K.K.K.K.< h h h h j j j j j c c c c v Z h.h.F A A A A                       ",
"                y.D.p.V v v v v v v v c c c c c j K.K.K.K.K.x.e h h h j j j j c c c c v v v >.M.M.A A A A A                     ",
"                D.x.D v v v v v v v c c c c c j >.K.K.K.K.K.K.9 h h j j j j c c c c v v v v Z M.F.F A A A A                     ",
"              t.x.%.v v v v v v v c c c c c j V K.K.K.K.K.K.K.K.3 j j j j c c c c v v v v V V 9.K.M.A A A A A                   ",
"              x.x.D v v v v v v c c c c c c j K.K.K.K.K.K.K.K.K.G h j j j c c c c v v v v V V D K.F.A A A A A                   ",
"              x.p.V v v v c v v c c c c j j 9.K.K.K.K.K.K.K.K.K.K.1 j j c c c c v v v v V V V V M.M.Y A A A A                   ",
"            t.x.) v v v c c v c c c c c j V K.K.K.K.K.K.K.K.K.K.K.F.7 c c c c v v v v V V V V V U h.>.A A A A A                 ",
"            x.p.Z v v c c c c c c c c c 9.M.M.M.M.M.M.M.M.M.M.M.M.M.8.v c c v v v v v V V V V V V 9.>.A A A A A                 ",
"            p.p.v v v c c c c c c C 9.9.9.9.9.9.9.9.9.h.h.h.h.h.h.h.h.h.O.b v v v v V V V V V v v O.O.F A A A A                 ",
"            p.$.v v c c c c c F >.>.>.>.>.>.>.>.>.>.>.>.>.>.>.>.>.>.>.>.>.>.O.V v V V V V V v v v H [ L A A A A                 ",
"          8.8.B d l c c v Y [ [ [ [ [ [ [ [ [ [ [ [ [ [ [ [ [ [ [ [ [ [ O.O.O.O.[ Z V V V V v v c V Y L A A A A A               ",
"          8.8.z d d d f H Y Y Y Y Y Y Y Y Y Y Y Y Y Y Y Y Y Y Y Y Y Y Y Y Y Y Y Y Y Y Z V v v c c c L L A A A A A               ",
"          8.8.g d d d : F L L L L L L L L L L L L L L L L L L L L L L L L L L L L L L L o 6 c c c j L F Z A A A A               ",
"          8.-.d d d d d 6 F F F A A F F F F F F F F F F F F F F F F F F F F F F F F F 8 X v c c j j F A Z A A A A               ",
"          -. .d d d d t 3 A A A A A A A A A A A A A A A A A A A A A A A A A A A A A A X w c c j j j A A Z Z A A A               ",
"          -.G d d d t t d 2 A A A A A A A A A A A A A A A A A A A A A A A A A A A A * $ c c j j j h C A Z Z Z A A               ",
"           .D d d d t t t 5 A A A A A A A A A A A A A A A A A A A A A A A A A A A v X c c c j j h h C A C C A A A               ",
"           .D d d t t t t t , A A A A A A A A A A A A A A A A A A A A A A A A A A o 2 c c j j h h h C A C C C A A               ",
"           .D d t t t t t t q C A A A A A A A A A A A A A A A A A A A A A A A A 8 o c c j j j h h h C A Z V C Z A               ",
"          _ D t t t t t t e e : A A A A A A A A A A A A A A A A A A A A A A A A X r c j j j h h h h C A C V C C Z               ",
"          _ D t t t t t e e e e v A A A A A A A A A A A A A A A A A A A A A A 2 $ c c j j h h h h h C A V V V C Z               ",
"          _ H t t t t t e e e e > A A A A A A A A A A A A A A A A A A A A A A X j c j j h h h h h h A A V V V V C               ",
"          U H d t t t e e e e e e F F F F F F F F F F F F F F F F F F F F F , @ h j j h h h h h h h A A V V V V C               ",
"          H H d t t t e e e e e e Y Y Y Y Y Y Y Y Y L L L L L L L L L L L L X t t t e u h h h h h h A A V V V V V               ",
"          H H g t e t e e e e e e O.O.O.O.O.O.O.O.O.O.O.O.O.O.O.O.O.[ [ [ [ . t t e e e e e u h h j A A N V V V V               ",
"            F x t e e e e e e e e 9.9.9.9.9.9.9.9.9.9.9.9.9.9.9.9.9.9.9.9.9.. t e e e e e e e e y b A Z x N V V                 ",
"            F Z t e e e e e e e t F.F.F.F.F.F.F.F.F.F.F.F.M.M.M.M.M.M.M.M.M.. e e e e e e e e e e C A V x x V V                 ",
"            F F t e e e e e e e t U.U.U.U.U.U.U.U.U.U.U.U.U.U.U.U.U.U.U.U.U.. e e e e e e e e e e A A x x x V V                 ",
"            F F g e e e e e e t t T.T.T.T.T.T.T.T.T.T.T.T.T.Y.Y.Y.Y.Y.Y.Y.Y.. e e e e e e y e e h A A x x x x x                 ",
"              Z v e e e e t t t d E.E.E.E.E.E.E.E.E.E.E.E.E.E.E.E.E.E.E.E.E.. e e e e e e e e e b A V x x x x                   ",
"              Z Z t e e e t t d d Q.Q.Q.Q.Q.Q.Q.Q.Q.Q.Q.Q.Q.Q.Q.Q.Q.Q.Q.Q.Q.. e e e e e e e y u A A x x x x x                   ",
"              Z Z l e e t t t d d /././././././././.^.R././././././././././.. e e e e e e e y c A A z z x x x                   ",
"                Z Z d t t t t d d _._._._._._.(.m . X < $ & ~._._._._._._.).O e e e e e e e e A A x k z x x                     ",
"                Z F x t t t t d d [.{.{.'.n . + 6 l l g g d r % = '.[.[.[.'.O e e e e e e e c A A k k z z z                     ",
"                  F F g t t d d d `.4 . $ 8 l l l l g g g d d d t 5 + !.}.].@ e e e e e e t A A z k k k z                       ",
"                  D H Z d t d d d ; r g g l l l l g g g d d d t e e e e , # - e e e e e e b A Z s k k k k                       ",
"                    H U x d d d d g g g l l l l g g g d d d t e e e e e e e e e e e e e j A A s s s k k                         ",
"                      U _ x d d d g g l l l l l g g d d d t t e e e e e e e e e e e e d A A x s s s k s                         ",
"                      G _  .x d g g g l l l l g g g d d t t e e e e e e e e e e e e d A A Z a a s s s                           ",
"                        _  . .x g g g l l l g g g d d d t e e e e e e e e e e e e d A A A a a a a s                             ",
"                          -.8.8.N g g g l g g g d d d t e e e e e e e e e e e e d A A A a p a a a                               ",
"                            8.p.p.S z g g g g d d d t e e e e e e e e e e e e j A A A a p p p a                                 ",
"                              p.x.D.$.N g d d d d t t e e e e e e e e e e d b A A A p p p p p                                   ",
"                                t.D.x.p.D x d d t t e e e e e e e e e d c A A A V p p p p p                                     ",
"                                    p.8. ._ D x g d e e e e e e d j C A A A A k p p p p i                                       ",
"                                        _ _ U F F Z C C C C C A A A A A A x p p p p p                                           ",
"                                            F F F Z Z Z Z A A A A A Z k p p p p                                                 ",
"                                                    V C Z Z Z v s                                                               ",
"                                                                                                                                ",
"                                                                                                                                "
};
