/* XPM */
static char *_d66674fde6744bbd1c61324696da2248mLpml0VHjfj8bhZ[] = {
/* columns rows colors chars-per-pixel */
"64 64 156 2 ",
"   c None",
".  c #AC3D00",
"X  c #B34601",
"o  c #B45500",
"O  c #BB5700",
"+  c #B25012",
"@  c #C77100",
"#  c #CA7400",
"$  c #CE7E00",
"%  c #D17B00",
"&  c #C16D1F",
"*  c #C77D26",
"=  c #D68400",
"-  c #E18700",
";  c #E18D00",
":  c #E39500",
">  c #ED9500",
",  c #EC9B00",
"<  c #D1A600",
"1  c #D4AA00",
"2  c #DAAE00",
"3  c #DDB100",
"4  c #E3A300",
"5  c #EBA300",
"6  c #EBAC00",
"7  c #F5A400",
"8  c #F6AC00",
"9  c #E2B500",
"0  c #EEB200",
"q  c #E6B900",
"w  c #ECBD00",
"e  c #F4B400",
"r  c #F3BB00",
"t  c #F8BD00",
"y  c #D29736",
"u  c #D59D30",
"i  c #E1B93E",
"p  c #F4C300",
"a  c #F9C600",
"s  c #F4CC00",
"d  c #FECC00",
"f  c #F3D500",
"g  c #F4D600",
"h  c #F4D300",
"j  c #FAD300",
"k  c #FED000",
"l  c #FFD100",
"z  c #FFD000",
"x  c #FFD300",
"c  c #FDD600",
"v  c #FED600",
"b  c #FED700",
"n  c gold",
"m  c #FFD600",
"M  c #FCD300",
"N  c #F3DB00",
"B  c #F3DD00",
"V  c #F6DE00",
"C  c #F2DA02",
"Z  c #F8D800",
"A  c #FAD900",
"S  c #FFD800",
"D  c #FFD900",
"F  c #FCDA00",
"G  c #FFDA00",
"H  c #F9DD00",
"J  c #FADD00",
"K  c #FADE00",
"L  c #FCDD00",
"P  c #FEDC00",
"I  c #FEDD00",
"U  c #FFDD00",
"Y  c #FFDC00",
"T  c #FDDE00",
"R  c #FFDE00",
"E  c #FFDF00",
"W  c #FDDC00",
"Q  c #EED514",
"!  c #F2E000",
"~  c #F5E500",
"^  c #F6E700",
"/  c #FCE000",
"(  c #FFE100",
")  c #FEE200",
"_  c #FFE300",
"`  c #FFE200",
"'  c #F8E600",
"]  c #FFE500",
"[  c #FEE700",
"{  c #FEE500",
"}  c #F5E800",
"|  c #F6EA00",
" . c #F7EF00",
".. c #F5EA00",
"X. c #F9E800",
"o. c #FBE800",
"O. c #FBEB00",
"+. c #FDE800",
"@. c #FEE800",
"#. c #FEE900",
"$. c #FFE900",
"%. c #FEEA00",
"&. c #F9EC00",
"*. c #FAEF00",
"=. c #FDED00",
"-. c #FFED00",
";. c #FEED00",
":. c #FEEF00",
">. c #FFEF00",
",. c #FDED00",
"<. c #F7F200",
"1. c #F6F600",
"2. c #F9F100",
"3. c #FAF000",
"4. c #F9F300",
"5. c #FAF200",
"6. c #FCF000",
"7. c #FFF000",
"8. c #FFF200",
"9. c #FEF300",
"0. c #FAF400",
"q. c #F8F600",
"w. c #FAF600",
"e. c #FAF700",
"r. c #FEF400",
"t. c #FFF400",
"y. c #FEF500",
"u. c #FFF500",
"i. c #FFF600",
"p. c #FCF200",
"a. c #F9F800",
"s. c #F9F900",
"d. c #FAF900",
"f. c #FEFB00",
"g. c #FEFC00",
"h. c #FFFC00",
"j. c #FEFE00",
"k. c #FFFE00",
"l. c #FEFA01",
"z. c #FEFE09",
"x. c #FEFE1B",
"c. c #EACF20",
"v. c #E8C92B",
"b. c #E5C235",
"n. c #FDFD2B",
"m. c #FDFD3D",
"M. c #D8A748",
"N. c #DCB144",
"B. c #EEDB4F",
"V. c #F2E343",
"C. c #FDFC4E",
"Z. c #FDFD50",
"A. c #FDFC5F",
"S. c #FCFC61",
"D. c #FCFC6F",
"F. c #F9F972",
/* pixels */
"                                                                                                                                ",
"                                                                                                                                ",
"                                                        O.( d d d d d d                                                         ",
"                                                    2.O.+.] ( x d d d d d d                                                     ",
"                                                  0.*.O.H T T G x d d d d d d                                                   ",
"                                                0.2.N p e r p b x d d d d d d d                                                 ",
"                                                0.B r e e e 8 r x d d d d d d d d                                               ",
"                                              d.| r e e e e 8 8 r d d d d d d d d d                                             ",
"                                              0.p r e e e 8 8 8 7 d b d d d d d d d                                             ",
"                                            d.~ r r e e e 8 8 7 7 e G d d d d d d d d                                           ",
"                                            d.p r e e e e 8 8 7 7 8 b G d d d d d d d                                           ",
"                                          1. .r r e e e 8 8 8 7 7 8 r ( d d d d d d d d                                         ",
"                                          d.h r r e e e s 8 7 7 7 8 e ] d d d d d d d d                                         ",
"                                          d.p r e e e e g.8 7 7 8 8 e T T d d d d d d d                                         ",
"                                          2.r r e e e e g., 7 7 8 8 e p >.d d d d d d d d                                       ",
"                                        1.N r r e e e H g.4 7 7 8 e e r 7.d d d d d d d d                                       ",
"                                        d.p r e e e e f.g.! 7 8 8 e e r i.d d d d d d d d                                       ",
"                                        0.r r e e e 8 g.g.g.7 8 8 e r r +.G d d d d d d d                                       ",
"                                        2.r r e e e p g.g.g.: 8 e e r r A >.d d d d d d d d                                     ",
"                                        ~ r e e e e 2.g.g.g.2 8 e e r r s i.d d d d d d d d                                     ",
"                                      <.f r e e e 8 g.g.g.g.| 8 e r r p p i.d d d d d d d d                                     ",
"                                      <.p r e e e e f.g.g.g.g.8 e r r p p 7.a d d d d d d d                                     ",
"                                      2.r e e e e i.i.i.i.i.i.j e r r p p +.p d d d d d d d                                     ",
"                                      2.r e e e >.>.>.>.>.7.>.7.a r p p p ( p a d d d d d d d                                   ",
"                                      2.r e e ] +.+.+.+.+.+.+.+.+.p p p r j s p d d d d d d d                                   ",
"                                      *.6 e H ( ( ( ( ( ( ( ( ( ( ( p p r d d p a d d d d d d                                   ",
"                                      ' 5 4 A T T T T T T T T T T T T r r t d p p d d d d d d                                   ",
"                                      V 5 = j b b b b b b b b b b G G o e e d p p a d d d d d                                   ",
"                                      g 5 : d x x x x x x x x x x x x @ e e d p p p d d d d d                                   ",
"                                      s 5 , a d d d d d d d d d d d r 5 e 8 d w p p a d d d d                                   ",
"                                      s 5 , 4 d d d d d d d d d d d $ e 8 7 d w p p p d d d d                                   ",
"                                      p 5 , = d d d d d d d d d d d o e 8 7 d w w p p a d d d                                   ",
"                                      p , , = d d d d d d d d d d d # e 8 7 d w w p p p d d d                                   ",
"                                      p , , , d d d d d d d d d d r 5 8 7 7 d w w w p p a d d                                   ",
"                                      p , , , r d d d d d d d d d $ e 8 7 7 d q w w p p p d d                                   ",
"                                      p , , > : d d d d d d d d d o e 8 7 7 d q w w w p p a d                                   ",
"                                      p , , > - d d d d d d d d d @ 8 7 7 7 a 9 q w w p p p d                                   ",
"                                      s , > > > b b x x x x x x d ; 8 7 7 8 p 9 q w w w p p a                                   ",
"                                      j , > > , T T T T T T T T d , , 7 7 8 p 9 9 q w w p p p                                   ",
"                                      j , > > , ] ] ] ] ] ] ] ] j , > > 7 e w 3 9 q w w w p p                                   ",
"                                      j > > > , 7.7.7.>.>.>.>.>.g , > > > e q 3 9 9 q w w p p                                   ",
"                                      j > > > , f.f.f.f.f.f.f.f.N , > > > t 3 3 3 9 q w w w                                     ",
"                                      j > > > , z.z.z.z.z.z.z.z.C > > > > a 2 2 3 9 q q w w                                     ",
"                                      s , > > , x.x.x.x.x.x.x.x.Q > > > > d 1 2 3 3 9 q w w                                     ",
"                                      s 5 > , , n.n.n.n.n.n.n.n.c.> > > > d 1 1 2 3 9 q q w                                     ",
"                                        e > , , m.m.m.m.m.m.m.m.v.> > > , d 1 1 2 3 3 9 q w                                     ",
"                                        p > , 5 Z.Z.C.C.V.C.C.C.b.> > > 7 p 1 1 1 2 3 9 q 9                                     ",
"                                        d , , 5 S.S.B.. % u A.A.i > > > r 9 1 1 1 2 3 3 9                                       ",
"                                        d 5 , 5 F.y O 0 6 , * D.N.> > > d 1 1 1 1 1 2 3 9                                       ",
"                                        j 0 , 5 + = 0 0 6 5 , & M.> > > d 1 1 1 1 1 2 3 9                                       ",
"                                          s 5 5 4 0 0 6 5 5 , > X > > 7 d 1 1 1 1 1 1 2 3                                       ",
"                                          H 5 5 6 6 0 6 5 , > > > > > t q 1 1 1 1 1 1 2                                         ",
"                                          H 0 5 6 6 0 6 5 , > > > > > d 1 1 1 1 1 1 1 1                                         ",
"                                            g 5 6 6 6 5 5 , > > > > 7 d 1 1 1 1 1 1 1 1                                         ",
"                                            O.6 6 6 6 5 , > > > > > a w 1 1 1 1 1 1 1                                           ",
"                                            O.f 6 6 5 5 , > > > > , d 1 1 1 1 1 1 1 1                                           ",
"                                              2.w 6 5 , , > > > > a d 1 1 1 1 1 1 1                                             ",
"                                              0.| 6 5 , > > > > 8 d 3 1 1 1 1 1 1 <                                             ",
"                                                0.s 5 , > > > 5 d d 1 1 1 1 1 1 1                                               ",
"                                                *.' p 5 > , 8 d d 1 1 1 1 1 1 1                                                 ",
"                                                  / A d a d d d 9 1 1 1 1 1 1                                                   ",
"                                                    j d d d d 9 1 1 1 1 1 1                                                     ",
"                                                        p p                                                                     ",
"                                                                                                                                "
};
