/* XPM */
static char *cb48d574c69e400bc8da3c1d90bbf4c1zLdO1gVXsgyiwcsW[] = {
/* columns rows colors chars-per-pixel */
"64 64 174 2 ",
"   c None",
".  c #A63500",
"X  c #A93B01",
"o  c #A64300",
"O  c #AC4302",
"+  c #AD4E00",
"@  c #AE4609",
"#  c #AF4B0C",
"$  c #B14601",
"%  c #B44B00",
"&  c #AE5000",
"*  c #B25500",
"=  c #BB5400",
"-  c #BD5E00",
";  c #B3540F",
":  c #B25111",
">  c #B76400",
",  c #BF6500",
"<  c #BC6912",
"1  c #C15A00",
"2  c #C56400",
"3  c #CA6600",
"4  c #CC6A00",
"5  c #C47500",
"6  c #C27B00",
"7  c #CD7C00",
"8  c #D37200",
"9  c #D37D00",
"0  c #DB7D00",
"q  c #C57E13",
"w  c #C37B31",
"e  c #D48200",
"r  c #D48900",
"t  c #DD8C00",
"y  c #CB9400",
"u  c #D89C00",
"i  c #CE9410",
"p  c #E18600",
"a  c #E59400",
"s  c #EA9300",
"d  c #E69800",
"f  c #EA9C00",
"g  c #D8AA0A",
"h  c #DAB500",
"j  c #E6A400",
"k  c #EAA300",
"l  c #E7AA00",
"z  c #EAAC00",
"x  c #F1A200",
"c  c #F1AB00",
"v  c #E7B100",
"b  c #EBB300",
"n  c #E0BE01",
"m  c #ECBB00",
"M  c #F1B300",
"N  c #F1BB00",
"B  c #C88724",
"V  c #CF972C",
"C  c #D4A23A",
"Z  c #ECC500",
"A  c #EBCB00",
"S  c #F3C300",
"D  c #F8C600",
"F  c #F3CB00",
"G  c #FACA00",
"H  c #E8D200",
"J  c #F3D300",
"K  c #FAD700",
"L  c #FAD600",
"P  c #FAD500",
"I  c #FAD300",
"U  c #F1D900",
"Y  c #F2D900",
"T  c #F3DB00",
"R  c #F1DA00",
"E  c #F6D900",
"W  c #F5D900",
"Q  c #F5DA00",
"!  c #F9D900",
"~  c #FAD800",
"^  c #F9DB00",
"/  c #FADA00",
"(  c #FADB00",
")  c #F9DD00",
"_  c #FADC00",
"`  c #FADD00",
"'  c #F9DF00",
"]  c #FADE00",
"[  c #FADC00",
"{  c #F2E000",
"}  c #F5E100",
"|  c #F7E300",
" . c #F7E000",
".. c #F2E700",
"X. c #F5E400",
"o. c #F7E600",
"O. c #F7E700",
"+. c #FAE000",
"@. c #FAE100",
"#. c #F9E200",
"$. c #FAE300",
"%. c #F9E000",
"&. c #FAE400",
"*. c #FAE500",
"=. c #F9E700",
"-. c #FAE600",
";. c #FAE700",
":. c #F9E400",
">. c #FAE400",
",. c #F6EA00",
"<. c #F6ED00",
"1. c #FAE800",
"2. c #FAEA00",
"3. c #FAEB00",
"4. c #F9E900",
"5. c #FAEC00",
"6. c #FAED00",
"7. c #F9EE00",
"8. c #F9EF00",
"9. c #F8EE00",
"0. c #FAEE00",
"q. c #FAEF00",
"w. c #FAE900",
"e. c #F5F100",
"r. c #F6F200",
"t. c #F5F500",
"y. c #F7F500",
"u. c #FAF000",
"i. c #FAF100",
"p. c #F9F200",
"a. c #F9F300",
"s. c #F8F300",
"d. c #FAF200",
"f. c #FAF300",
"g. c #F8F100",
"h. c #F8F500",
"j. c #F9F500",
"k. c #FAF400",
"l. c #FAF500",
"z. c #F8F600",
"x. c #F9F600",
"c. c #FAF600",
"v. c #FAF700",
"b. c #FAF200",
"n. c #F9F900",
"m. c #FAF900",
"M. c #FAF800",
"N. c #FAFA00",
"B. c #FAFA02",
"V. c #F8EF13",
"C. c #FAFA14",
"Z. c #F7EE21",
"A. c #F9F923",
"S. c #F7EE30",
"D. c #F9F935",
"F. c #D4A142",
"G. c #D7A949",
"H. c #DEBB46",
"J. c #EEE04D",
"K. c #F7EE41",
"L. c #F9F947",
"P. c #F9F948",
"I. c #F1E752",
"U. c #F6ED50",
"Y. c #F6EC5C",
"T. c #F8F859",
"R. c #F3EC63",
"E. c #F5E868",
"W. c #F7F667",
"Q. c #F8F867",
"!. c #F8F869",
"~. c #F4EE76",
"^. c #F5F275",
"/. c #F8F879",
/* pixels */
"                                                                                                                                ",
"                                                                                                                                ",
"                                                W ~ ) +.+.+.=.=.1.1.1.0.0.0.                                                    ",
"                                          I K ~ ~ ) ) ) +.+.+.=.=.1.1.1.0.0.d.d.d.                                              ",
"                                      G I I K ~ K J F S S S S S F F J J T O.0.d.d.l.l.l.                                        ",
"                                  G G G I G S N M c c c c c M M M M M M N N F T O.d.l.l.l.l.                                    ",
"                              G G G G D N c x x c c c c c c c M M M M M M N N N N J { d.l.l.m.y.                                ",
"                            I G G D M x x x x x x c c c c c c c M M M M M M N N N N N F { l.l.m.m.                              ",
"                        K K K I N c x x x x x x x x c c c c c c c M M M M M M N N N N N N J ,.l.m.m.                            ",
"                      ) ~ ~ I N x x x x x x x x x x x c c c c c c c M M M M M M N N N N N N S { l.m.m.                          ",
"                    ) ) ) J M c x x x x x x x x x x x x x c c c c c c M M M M M M N N N N N N N T l.m.m.                        ",
"                  +.+.+.J M c c c x x x x x x x x x x x x c c j M c c c M M M M M M N N N N N N N J l.m.m.                      ",
"                =.=.+.E M c c c c x x x x x x x x x x x x x 9 m.m.c c c c M M M M M M N N N N N N N J l.m.m.                    ",
"                1.1. .M M M c c c c c x x x x x x x x x x a ..m.m.l.c c c c M M M M M M N N N N N N S J l.m.m.                  ",
"              0.0.1.S M M M M c c c c c x x x x x x x x x h m.m.m.m.1.c c c c M M M M M M N N N N N N S T m.m.m.                ",
"            d.d.0.F N M M M M M c c c c c x x x x x x x 6 m.m.m.m.m.m.W c c c c M M M M M M N N N N N N N O.l.m.y.              ",
"          r.l.d. .N N N M M M M M c c c c c x x x x x , m.m.m.m.m.m.m.m.S c c c c M M M M M M N N N N N N S d.l.m.              ",
"          m.l.d.S N N N N M M M M M c c c c c x x x 9 y.m.m.m.m.m.m.m.m.m.M c c c c M M M M M M N N N N N N J l.l.l.            ",
"        r.l.m.T S N N N N N M M M M M c c c c c x a H m.m.m.m.m.m.m.m.m.m.m.c c c c c M M M M M M N N N N N N ,.l.l.            ",
"        d.l.d.S S S N N N N N M M M M M c c c c x y m.m.m.m.m.m.m.m.m.m.m.m.m.c c c c c M M M M M M N N N N N F l.l.l.          ",
"        0.d.T S S S S N N N N N M M M M M c c c > m.m.m.m.m.m.m.m.m.m.m.m.m.m.0.c c c c c M M M M M M N N N N N ,.l.l.          ",
"      =.1.1.N N S S S S N N N N N M M M M M c u l.l.l.l.l.l.l.l.l.l.l.l.d.l.d.d.d.F c c c c M M M M M M N N N N J d.l.r.        ",
"      +.=.T N N N S S S S N N N N N M M M J 0.0.0.0.0.0.0.0.0.0.0.0.0.0.0.0.0.0.0.0.0.=.N c c M M M M M M N N N N 0.d.d.        ",
"    W ) +.S M N N N S S S S N N N N S +.1.1.1.=.=.=.=.=.=.=.=.=.=.=.=.=.=.=.=.=.=.=.=.=.=.=.+.S M M M M M M N N N  .d.d.        ",
"    K ~ ) M M M N N N S S S S S ~ +.+.+.+.+.+.+.+.+.+.+.+.+.+.+.+.+.+.+.+.+.+.+.+.+.+.+.+.+.+.+.+.) S M M M M M z m 0.d.        ",
"    K ~ J c M M M N N N S J ) ) ) ) ) ) ) ) ) ) ) ) ) ) ) ) ) ~ ) ) ) ~ ~ ~ ) ) ) ) ~ ~ ~ ~ ~ ~ ~ ~ ~ ~ ~ k k k k l 0.0.0.      ",
"    I K S c c M M M 7 5 K K K K K K K K K K K K K K K K K K K K K K K K K K K K K K K K K K K K K K K K , k k k k k  .0.0.      ",
"    G I M c c c M M 7 o v I I I I I I I I I I I I I I I I I I I I I I I I G G G G I G I G G G G G G G v t k k k k k J 1.0.      ",
"  S G G c x c c c M M * o G G G G G G G G G G G G G G G G G G G G G G G G G G G G G G G G G G G G G G = f k k k k k Z 1.1.      ",
"  S G G x x x c c c M M o + G G G G G G G G G G G G G G G G G G G G G G G G G G G G G G G G G G G G - f f f k k k k m 1.1.      ",
"  D G G x x x x c c c M l o 5 G G G G G G G G G G G G G G G G G G G G G G G G G G G G G G G G G G l a f f f f k k k b =.1.      ",
"  G G G x x x x x c c c M r o l G G G G G G G G G G G G G G G G G G G G G G G G G G G G G G G G G 2 f f f f f f k k v =.=.      ",
"  G G G x x x x x x c c c M - o D G G G G G G G G G G G G G G G G G G G G G G G G G G G G G G G - f f f f f f f f k v +.=.      ",
"  S G G x x x x x x x c c c M o & G G G G G G G G G G G G G G G G G G G G G G G G G G G G G G j a s f f f f f f f f v +.+.      ",
"  D G G x x x x x x x x c c c z o r G G G G G G G G G G G G G G G G G G G G G G G G G G G G G 4 s s s f f f f f f f v +.+.      ",
"    G G x x x x x x x x x c c c e o S G G G G G G G G G G G G G G G G G G G G G G G G G G G - s s s s s f f f f f f b ) +.      ",
"    G G c x x x x x x x x x c c k O O G G G G G G G G G G G G G G G G G G G G G G G G G G G s s s s s s f f f f f f m ) )       ",
"    G G M x x x x x x x x f f f f d . J K K K K K K K K K K K K K K K K K K K K ~ ~ ~ K K K s s s s s s f s f f f f F ) ~       ",
"    G G S x x x x f s s s s s f f f . J ) ) ) ) ) ) ) ) ) ) ) ) ) ) ) ) ) ) ) +.+.+.+.+.+.~ s s s s s s s f s f f k K ~ W       ",
"    G G G x f s s s s s s s s s f f . A =.=.=.=.=.=.=.=.=.=.=.=.=.1.1.1.1.1.1.1.1.1.1.1.1.+.s s s s s s s s s s f l K ~         ",
"      G G f s s s s s s s s s s s f . A d.d.d.d.d.d.d.d.d.d.d.d.d.d.d.d.d.d.d.d.d.d.d.d.d.1.f s s s s s s s s s s b K K         ",
"      G G M s s s s s s s s s s s s X n m.m.m.m.m.m.m.m.m.m.m.m.m.m.B.B.m.m.m.m.m.m.B.B.B.8.f f s s s s s s s s f F I K         ",
"      G G D s s s s s s s s s s s s O g C.C.C.C.C.C.C.C.C.C.C.C.C.C.C.C.C.C.C.C.C.C.C.C.C.V.f f f s s s s s s s k I I           ",
"        G G k s s s s s s s s s s s $ i A.A.A.A.A.A.A.A.A.A.A.A.A.A.A.A.A.A.A.A.A.A.A.A.A.Z.f f f f s s s s s s M G I           ",
"        G G D s s s s s s s s s s s = q D.D.D.D.D.D.D.D.D.D.D.D.D.D.D.D.D.D.D.D.D.D.D.D.D.S.f f f f f s s s s k G G F           ",
"          G G k s s s s s s s s s s 1 < L.L.L.L.L.L.L.L.L.L.L.L.P.P.P.P.P.P.P.P.P.P.P.P.P.K.f f f f f f s s s M G G             ",
"          G G D s s s s s s s s s s 3 ; T.T.T.T.T.T.T.T.T.J.B O O . @ V I.T.T.T.T.T.T.T.T.U.k f f f f f f f k G G S             ",
"            G G M s s s s s s s s s 8 @ Q.Q.Q.Q.Q.W.H.; % e k k l z l 7 $ . # C R.Q.Q.Q.Q.Y.k k f f f f f k F I G               ",
"            D G G k s s s s s s s s 0 X /./.^.F.@ 3 a f f k k k k l z v v z j 7 $ . : G.~.E.k k k f f f f N K I                 ",
"              G G G f s s s s s s s p . w $ 8 s s s f f f f k k k k l z z v v z z l j 7 $ $ k k k k f f b ~ K J                 ",
"                G G D f s s s s s s s p s s s s s s s f f f f k k k k l z z v z z z l l k k k k k k k b ) ~ ~                   ",
"                  G G S f s s s s s s s s s s s s s s s f f f f k k k k l z z z v z z l l k k k k k b +.) )                     ",
"                  S G G S f s s s s s s s s s s s s s s s f f f f k k k k l z z z z z z l l k k k m +.+.+.                      ",
"                    S G G D k s s s s s s s s s s s s s s s f f f f k k k k l z z z v z z l l z Z 1.=.+.                        ",
"                        G G G z s s s s s s s s s s s s s s s f f f f k k k l l z z z z z z m T 0.1.1.                          ",
"                          G G G N f s s s s s s s s s s s s s s f f f f k k k l l z z z b A d.d.0.1.                            ",
"                            G G G G M f s s s s s s s s s s s s s f f f f k k k k l v A <.l.l.d.<.                              ",
"                                G G G G N k s s s s s s s s s s s s f f f f k k v Z O.l.l.m.l.                                  ",
"                                  S G G G G D M k f s s s s s s s s s f k z m J =.1.0.d.l.                                      ",
"                                      S G G G G G G D N M z z z z z N S I ~ ~ ) +.=.1.                                          ",
"                                            D G G G G G G G G G G G G G I K ~ ~ W                                               ",
"                                                    D G G G G G G G G G F                                                       ",
"                                                                                                                                ",
"                                                                                                                                "
};
