/* XPM */
static char *_0a6dae396f54ae7f77c05be8071a3d5OdBX8KMsPpYrM156[] = {
/* columns rows colors chars-per-pixel */
"64 64 159 2 ",
"   c None",
".  c #AE4302",
"X  c #BB5C01",
"o  c #B8540A",
"O  c #BD6200",
"+  c #BF6B19",
"@  c #C45D02",
"#  c #C86F00",
"$  c #D06C00",
"%  c #D88400",
"&  c #DB8D00",
"*  c #DF9400",
"=  c #CA831F",
"-  c #E48F00",
";  c #E59300",
":  c #ED9500",
">  c #E39C00",
",  c #EC9B00",
"<  c #F19A00",
"1  c #D2A700",
"2  c #D4AA00",
"3  c #D9AE00",
"4  c #DDB100",
"5  c #E6A600",
"6  c #ECA300",
"7  c #E2AE00",
"8  c #ECAB00",
"9  c #F6A500",
"0  c #F6AC00",
"q  c #E2B500",
"w  c #EDB200",
"e  c #E6B900",
"r  c #EBBD00",
"t  c #F5B400",
"y  c #F3BB00",
"u  c #F8BC00",
"i  c #CC8A37",
"p  c #D49C3B",
"a  c #D8A537",
"s  c #DCAE32",
"d  c #DEB434",
"f  c #E3BE20",
"g  c #E0B62A",
"h  c #ECC500",
"j  c #EDCE00",
"k  c #E9CB0A",
"l  c #F4C300",
"z  c #F9C600",
"x  c #F4CB00",
"c  c #FFCE00",
"v  c #FFCC00",
"b  c #FCCB00",
"n  c #F2D000",
"m  c #F5D000",
"M  c #F3D600",
"N  c #F5D700",
"B  c #F7D000",
"V  c #F8D000",
"C  c #FBD100",
"Z  c #FBD200",
"A  c #FFD000",
"S  c #FFD200",
"D  c #FAD500",
"F  c #F8D600",
"G  c #FBD700",
"H  c #FED400",
"J  c #FFD500",
"K  c #FED500",
"L  c #FFD600",
"P  c gold",
"I  c #FCD500",
"U  c #F5DA00",
"Y  c #F5DD00",
"T  c #F7DD00",
"R  c #FBD900",
"E  c #FBDA00",
"W  c #FFD900",
"Q  c #FEDA00",
"!  c #FEDB00",
"~  c #FFDB00",
"^  c #FFDA00",
"/  c #FBDD00",
"(  c #FCDC00",
")  c #FFDC00",
"_  c #FEDC00",
"`  c #FCDE00",
"'  c #FFDF00",
"]  c #FDDE00",
"[  c #E6C416",
"{  c #F3E000",
"}  c #F7E000",
"|  c #F5E400",
" . c #F6E400",
".. c #FEE000",
"X. c #FFE000",
"o. c #FFE100",
"O. c #FFE400",
"+. c #FFE500",
"@. c #FEE600",
"#. c #FFE700",
"$. c #FFE700",
"%. c #FDE100",
"&. c #F7E900",
"*. c #F6EA00",
"=. c #F9E800",
"-. c #FBE800",
";. c #FDE800",
":. c #FEE800",
">. c #FDEA00",
",. c #F9ED00",
"<. c #FBEC00",
"1. c #FAEF00",
"2. c #FBEF00",
"3. c #FDED00",
"4. c #FEEC00",
"5. c #FEED00",
"6. c #FFED00",
"7. c #FFEE00",
"8. c #FFEF00",
"9. c #FEE900",
"0. c #F7F700",
"q. c #F9F000",
"w. c #FAF000",
"e. c #FBF100",
"r. c #FBF200",
"t. c #FDF100",
"y. c #FEF300",
"u. c #FFF300",
"i. c #F8F400",
"p. c #F9F400",
"a. c #FAF400",
"s. c #FBF400",
"d. c #F8F700",
"f. c #FBF600",
"g. c #FBF700",
"h. c #FFF400",
"j. c #FDF300",
"k. c #F9F900",
"l. c #FAF800",
"z. c #FBF800",
"x. c #FBF900",
"c. c #FBFB00",
"v. c #FEF900",
"b. c #FEFA00",
"n. c #FFFA00",
"m. c #FEFB00",
"M. c #FEFE00",
"N. c #FFFE00",
"B. c #FEFC00",
"V. c #FFFE0E",
"C. c #FEFE10",
"Z. c #FEFD1F",
"A. c #FDFD21",
"S. c #FDFD31",
"D. c #FDFD43",
"F. c #FDFC55",
"G. c #FCFC66",
"H. c #F6F073",
"J. c #FBFA74",
/* pixels */
"                                                                                                                                ",
"                                                                                                                                ",
"                                                        v v v v v v P O.:.1.                                                    ",
"                                                    b v v v v v v ^ ) O.:.1.r.                                                  ",
"                                                  v v v v v v v A ^ ) Z B U 1.d.                                                ",
"                                                  v v v v v v v A v u t t t n r.d.                                              ",
"                                                v v v v v v v v v 0 0 t t t y x d.d.                                            ",
"                                              v v v v v v v v v 0 0 0 0 t t y y T x.                                            ",
"                                              v v v v v v v P z 9 9 0 0 t t t y y d.0.                                          ",
"                                            v v v v v v v v ^ 0 9 9 0 0 t t t y y M x.                                          ",
"                                            v v v v v v v ) Z 0 9 9 9 0 0 t t y y y x.                                          ",
"                                          v v v v v v v v O.u 0 9 9 9 0 t t t t y y  .x.                                        ",
"                                          v v v v v v v A O.t 0 0 9 9 0 { t t t y y l x.                                        ",
"                                          v v v v v v v X.E t 0 0 9 9 9 M.t t t y y y x.                                        ",
"                                        v v v v v v v v 8.z t 0 0 9 9 , M.b t t t y y *.                                        ",
"                                        v v v v v v v v u.u t t 0 0 9 7 M.u.t t t y y x x.                                      ",
"                                        v v v v v v v v u.u t t 0 0 9 *.M.M.0 t t y y l x.                                      ",
"                                        v v v v v v v ) -.u u t 0 0 9 M.M.M.t t t t y y d.                                      ",
"                                      v v v v v v v v 8.F u u t t 0 ; M.M.M.` t t t y y 1.                                      ",
"                                      v v v v v v v b h.x l u t t 0 q M.M.M.v.0 t t y y T                                       ",
"                                      v v v v v v b z u.z l u u t 0 r.M.M.M.M.0 t t t y x 0.                                    ",
"                                      v v v v v v b z 8.z z u u t 0 v.v.v.v.v.F t t t y y d.                                    ",
"                                      v v v v v b z z :.l z l u t :.h.u.u.u.u.u.z t t y y d.                                    ",
"                                    b v v v v v b z z ` u z l u E 8.8.8.8.8.8.8.8.z t t y r.                                    ",
"                                    v v v v v v z z x Z u z z Z :.O.O.O.O.O.O.O.O.O.z t y 1.                                    ",
"                                    v v v v v b z z x z u l b X.X.X.X.X.X.X.X.X.X.X.` z 6 -.                                    ",
"                                    v v v v v z z l x u t 5 ) ) ) ^ ^ ^ ^ ^ ^ ^ ^ ^ F & 6 }                                     ",
"                                    v v v v b z z l b t t X P P P P P P P P P P P P Z % 6 N                                     ",
"                                    v v v v b z l l b t t & v v v v v v v v v v v v b > 6 x                                     ",
"                                    v v v b z z l r b 0 0 t > v v v v v v v v v v v l 6 6 x                                     ",
"                                    v v v b z l l r b 9 0 t X v v v v v v v v v v v > , 6 l                                     ",
"                                    v v b z z l r r b 9 0 t X v v v v v v v v v v v % , 6 y                                     ",
"                                    v v b z l h r r b 9 9 0 * z v v v v v v v v v v - , 6 y                                     ",
"                                    v b z z l r r e b 9 9 0 t > v v v v v v v v v v : , , y                                     ",
"                                    v b z l l r r e b 9 9 0 t O v v v v v v v v v w : , , y                                     ",
"                                    b z z l r r r e z 0 9 9 0 X v v v v v v v v v & : , , l                                     ",
"                                    b z l l r r e q z 0 9 9 0 & v v v v v v v v v ; : , , l                                     ",
"                                    z z l r r r e q l 0 9 9 9 , l P P P P P P P P : : : , x                                     ",
"                                    z l l r r e q q r t 9 < : , l ) ) ) ) X.X.X.X.: : : , x                                     ",
"                                    l l r r r e q 4 e u < : : , x :.:.:.:.:.:.:.:., : : , Z                                     ",
"                                    y l r r e q q 4 4 u : : : : j u.u.u.u.u.u.u.h., : : : F                                     ",
"                                      r r r e q 4 3 3 z : : : : j M.M.M.M.M.M.M.M., : : : F                                     ",
"                                      r r e q q 4 3 2 v : : : : k V.V.V.V.V.C.C.C.6 , : : Z                                     ",
"                                      r r e q 4 4 3 2 v : : : : [ Z.Z.Z.A.A.A.A.A.6 , : , b                                     ",
"                                      r e q q 4 3 2 2 v : : : : f S.S.S.S.S.S.S.S.6 , : 6 x                                     ",
"                                      e e q 4 4 3 2 2 z , : : : g D.D.D.D.D.D.D.D.6 , : t                                       ",
"                                        q q 4 3 2 2 2 e t : : : s F.F.F.= d F.F.F.6 , , z                                       ",
"                                        q 4 4 3 2 2 2 3 z : : : a G.G.o 8 # + G.G.6 , , b                                       ",
"                                        q 4 3 2 2 2 2 2 v : : : p J.X 6 8 w > . H.6 6 6 Z                                       ",
"                                        4 4 3 2 2 2 2 2 v : : : i @ : 6 8 8 w 8 . 6 6 w B                                       ",
"                                          3 2 2 2 2 2 2 l 0 : : $ : : , 6 8 w w 8 6 6 Z                                         ",
"                                          3 2 2 2 2 2 2 4 z : : : : : , 6 8 w w 8 6 6 `                                         ",
"                                          2 2 2 2 2 2 2 2 v : : : : : : 6 8 8 w 8 8 r `                                         ",
"                                            2 2 2 2 2 2 2 b t : : : : : , 6 8 w 8 8 }                                           ",
"                                            2 2 2 2 2 2 2 q v : : : : : , 6 8 8 8 e -.                                          ",
"                                              2 2 2 2 2 2 2 v 0 : : : : : 6 6 8 w  .-.                                          ",
"                                              2 2 2 2 2 2 2 r v : : : : : , 6 8 h d.                                            ",
"                                                2 2 2 2 2 2 2 v u : : : : , 6 8 r.d.                                            ",
"                                                2 2 2 2 2 2 2 r v t : : : , 6 T r.                                              ",
"                                                  2 2 2 2 2 2 2 v v z 6 6 8 F %.*.                                              ",
"                                                    1 2 2 2 2 2 2 v v v b b F `                                                 ",
"                                                        2 2 2 2 2 2 z v b b x                                                   ",
"                                                                                                                                ",
"                                                                                                                                "
};
