/* XPM */
static char *_72eaf73036f495f8a7ad7cfe869fd97ywfIfzyE5FPsonX3[] = {
/* columns rows colors chars-per-pixel */
"64 64 178 2 ",
"   c None",
".  c #AB3B01",
"X  c #AC4401",
"o  c #AE4A00",
"O  c #B14401",
"+  c #B34A02",
"@  c #B34F09",
"#  c #B35101",
"$  c #BD5200",
"%  c #B95C02",
"&  c #B5520D",
"*  c #BE6600",
"=  c #C15F00",
"-  c #C76500",
";  c #C46B00",
":  c #CC6D00",
">  c #C47300",
",  c #CB7400",
"<  c #CC7F00",
"1  c #D47C00",
"2  c #DA7D00",
"3  c #C77E2E",
"4  c #CB8500",
"5  c #D48300",
"6  c #DB8300",
"7  c #D68A00",
"8  c #DB8C00",
"9  c #DB9300",
"0  c #D49D00",
"q  c #D18318",
"w  c #E28B00",
"e  c #E88E00",
"r  c #E69700",
"t  c #EE9500",
"y  c #E09D00",
"u  c #ED9B00",
"i  c #F09600",
"p  c #F29A00",
"a  c #D4AA00",
"s  c #D9AE00",
"d  c #DDB100",
"f  c #E6A600",
"g  c #ECA300",
"h  c #EDAC00",
"j  c #F6A400",
"k  c #F6AC00",
"l  c #E2B600",
"z  c #EDB200",
"x  c #E6B900",
"c  c #ECBD00",
"v  c #F5B400",
"b  c #F4BB00",
"n  c #F8BA00",
"m  c #D59F2A",
"M  c #CF9134",
"N  c #D49D32",
"B  c #DBAD30",
"V  c #E6C700",
"C  c #EDC000",
"Z  c #ECCF00",
"A  c #F5C300",
"S  c #F9C500",
"D  c #F3CC00",
"F  c #FECC00",
"G  c #F5D300",
"H  c #FDD400",
"J  c #F3DD00",
"K  c #F7DC00",
"L  c #F4DA00",
"P  c #FED900",
"I  c #FDDB00",
"U  c #FEDA00",
"Y  c #FEDB00",
"T  c #FFDB00",
"R  c #F8DC00",
"E  c #FFDC00",
"W  c #FFDD00",
"Q  c #FDDE00",
"!  c #FFDE00",
"~  c #FFDF00",
"^  c #FDDD00",
"/  c #F4E000",
"(  c #F5E200",
")  c #F4E400",
"_  c #F5E300",
"`  c #FEE000",
"'  c #FFE100",
"]  c #FEE100",
"[  c #FFE300",
"{  c #FCE200",
"}  c #FBE700",
"|  c #FAE400",
" . c #FFE500",
".. c #FDE700",
"X. c #FEE600",
"o. c #FEE700",
"O. c #FFE700",
"+. c #FFE600",
"@. c #FCE400",
"#. c #F5E800",
"$. c #F6EC00",
"%. c #FBE900",
"&. c #FBEB00",
"*. c #FEE800",
"=. c #FFE800",
"-. c #FFE900",
";. c #FCE900",
":. c #F9ED00",
">. c #F8ED00",
",. c #FBED00",
"<. c #FBEC00",
"1. c #FBEF00",
"2. c #FBEE00",
"3. c #F8EF00",
"4. c #FDED00",
"5. c #FFEC00",
"6. c #FEED00",
"7. c #FFED00",
"8. c #FFEE00",
"9. c #FCEA00",
"0. c #F9E30B",
"q. c #F7F700",
"w. c #F6F600",
"e. c #FBF000",
"r. c #FBF100",
"t. c #FBF200",
"y. c #FBF300",
"u. c #FFF100",
"i. c #FFF000",
"p. c #FEF300",
"a. c #FFF300",
"s. c #FAF400",
"d. c #FBF400",
"f. c #FBF500",
"g. c #FBF600",
"h. c #FBF700",
"j. c #FEF400",
"k. c #FFF400",
"l. c #FFF500",
"z. c #FFF700",
"x. c #FDF200",
"c. c #F9F900",
"v. c #FBF800",
"b. c #FBF900",
"n. c #FAF800",
"m. c #FAFA00",
"M. c #FBFA00",
"N. c #FBFB00",
"B. c #FFF900",
"V. c #FEFA00",
"C. c #FFFA00",
"Z. c #FDF900",
"A. c #FFFC00",
"S. c #FEFD00",
"D. c #FEFE00",
"F. c #FFFE00",
"G. c #FEFB00",
"H. c #FEFE0D",
"J. c #F8E217",
"K. c #FDFD1E",
"L. c #F8E223",
"P. c #F8E22F",
"I. c #FDFD20",
"U. c #FDFD2E",
"Y. c #F8E23C",
"T. c #FDFD30",
"R. c #FDFD3F",
"E. c #EAD059",
"W. c #F7DF50",
"Q. c #F7E146",
"!. c #FDFD41",
"~. c #F9F34E",
"^. c #FCFC52",
"/. c #F9F561",
"(. c #FCFC63",
"). c #F7F16F",
"_. c #FCFC74",
"`. c #F7F07C",
/* pixels */
"                                                                                                                                ",
"                                                                                                                                ",
"                                                  F F F F F P [  .-.%.%.,.,.                                                    ",
"                                          F F F F F F P ~ ~ [ [  . .-.%.%.,.,.r.r.                                              ",
"                                      F F F F F F P P P ~ ~ P H H G G G R @.,.r.r.g.g.                                          ",
"                                    F F F F F F H H P H S A v v v v v v n b D G _ r.g.g.c.                                      ",
"                                F F F F F F F F H F b k k k k v v v v v n n n n b G _ g.g.c.w.                                  ",
"                              F F F F F H H F F n k j k k k k k v v v v v n n n b b b G ,.g.c.c.                                ",
"                            F F F F F H P P F v j j j k k k k k k v v v v v n n b b b b A ) c.c.c.                              ",
"                          F F F F F P ~ P F k j j j j j k k k k k k v v v v v n n b b b b b J c.c.c.                            ",
"                        F F F F F P ~ ~ F k k k j j j j j j k k k k k v v v v v n b b b b b b L c.c.w.                          ",
"                        F F F F F  .[ H k k k k j j j j j j k k k k v v v v v v n n b b b b b b J c.c.                          ",
"                      F F F F F -. .~ v v k k k k j j j j j j k k g C.n v v v v v n n n b b b b b ) c.N.                        ",
"                    F F F F F [ 5.-.A v v v k k k k j j j j j k k s F.F.k v v v v v n n b b b b b A ,.c.c.                      ",
"                    F F F F F u.5.G v v v v k k k k k j j j j j 1 F.F.F.[ k v v v v v n n b b b b b D c.c.                      ",
"                  F F F F F u.u.-.b n v v v v k k k k k j j j j #.F.F.F.F.n k v v v v v n n b b b b b _ c.N.                    ",
"                  F F F F H C.k.D b n n v v v v k k k k j j j 4 F.F.F.F.F.F.k v v v v v n n n b b b b A g.c.w.                  ",
"                F F F F F k.C.,.b b b n n v v v v k k k k j 6 F.F.F.F.F.F.F.@.k v v v v v n n b b b b b L g.c.                  ",
"                F F F F F F.F.G A b b b n n v v v v k k k j V F.F.F.F.F.F.F.F.n k v v v v v n n b b b b A g.c.                  ",
"                F F F F  .C.C.S A A b b b n n v v v k k k ; F.F.F.F.F.F.F.F.F.F.k k v v v v v n b b b b b _ g.c.                ",
"              F F F F F u.k.K S S A A b b n n n v v v k r g.F.F.F.F.F.F.F.F.F.F.@.k v v v v v v n b b b b A g.g.                ",
"              F F F F F 5.u.S S S S A A b b n n v v v v 0 C.C.C.C.C.C.C.C.C.C.C.C.H k v v v v v n v b b b b ,.g.                ",
"              F F F F P -. .b A S S S A b b b n n v n 5.k.k.k.k.k.k.k.k.u.u.u.u.u.u.u.H v v v v v v v b b b L r.g.              ",
"            F F F F F ~  .H b b A S S A A b b b A  .5.5.5.5.5.5.5.5.5.5.5.5.5.5.5.5.5.5.5.R n v v v v v b b A r.g.              ",
"            F F F F F ~ [ b n b b A S S A A F  .-.-. . . . . . .-. . . . . . . . . . . . . . . .F v v v v b b ,.r.              ",
"            F F F F F P ~ v v n b A S S F [ [ [ [ [ [ [ [ [ [ [ [ [ [ [ [ [ [ [ [ [ [ [ [ [ [ [ [ [ H v h g g _ r.              ",
"            F F F F F P P v v v n n c P ~ ~ ~ ~ ~ ~ ~ ~ ~ ~ P ~ P P P P P P P P P P P P P P P P P P H = g g g Z ,.$.            ",
"            F F F F F H F k v v v * # P P P P P P P P P P P P P P P P P P P P P P P P P P P P P P P 9 g g g g c ,.,.            ",
"            F F F F F F S k k v v v X f H F F F F F F F F F F F F F F F F F F F F F F F F F F F F F : g g g g z %.,.            ",
"            F F F F F F n k k k v v 7 X F F F F F F F F F F F F F F F F F F F F F F F F F F F F F 5 g g g g g f %.%.            ",
"          F F F F S F F v j k k k v v o , F F F F F F F F F F F F F F F F F F F F F F F F F F F F 2 u g g g g g @.%.            ",
"          F F F F S F F v j j k k v v h X S F F F F F F F F F F F F F F F F F F F F F F F F F F , u u u g g g g @.%.            ",
"          F F F S S F F v j j j k k v v ; # F F F F F F F F F F F F F F F F F F F F F F F F F F w u u u u g g g | @.            ",
"          S F S S S F F v j j j k k k v v X f F F F F F F F F F F F F F F F F F F F F F F F F ; u u u u u u g g | @.            ",
"            F S S S F F v j j j j k k k v 8 o F F F F F F F F F F F F F F F F F F F F F F F S t u u u u u u g g | |             ",
"            S S S A F F n j j j j j k k v v o 9 F F F F F F F F F F F F F F F F F F F F F F - t u u u u u u u g | |             ",
"            S S S A F F n j j j j j j k k k g X F F F F F F F F F F F F F F F F F F F F F F t t t u t u u u u f R R             ",
"            S S A A S F S j j j j j j j j u g O y P P P P P P P P P P P P P P P P P P P P F t t t t t t u u u h R R             ",
"            S S A A A F F j j j j j i t u u u 1 7 ~ ~ ~ ~ ~ ~ ~ ~ ~ ~ ~ ~ ~ ~ ~ ~ ~ ~ ~ ~ H u t t t t t t u u c R               ",
"            S A A A c F F j j p t t t t t u u 6 <  . . . . . . .-.-.-.-.-.-.-.-.-.-.-.-.-.H u t t t t t t t u S R               ",
"            A A A C c F F g t t t t t t t u u w > u.u.u.u.u.u.u.u.u.u.u.u.u.u.u.u.u.u.u.u.R u u t t t t t t u H H               ",
"              A A c c F F v t t t t t t t t u w * C.C.C.C.C.C.C.C.C.C.C.C.F.F.F.F.F.F.F.F.| u u u t t t t t g H H               ",
"              A c c c c F S t t t t t t t t t t % H.H.H.H.H.H.H.H.H.H.H.H.H.H.H.H.H.H.H.H.0.u u u t t t t t z H H               ",
"              c c c c x F F u t t t t t t t t t # K.K.K.K.K.K.K.K.K.K.K.K.K.K.K.K.K.K.I.I.J.u u u t t t t t S H                 ",
"              c c c x x F F v i t t t t t t t t + U.U.U.U.U.U.U.U.U.U.U.T.T.T.T.T.T.T.T.T.L.g u u u t t t u F F                 ",
"                c c x x c F F t t t t t t t t t X R.R.!.!.!.!.!.!.!.!.!.!.!.!.!.!.!.!.!.!.P.g u u u t t t v F F                 ",
"                x x x x x F F k t t t t t t t t . ^.^.^.^.^.^.^.^.~.m @ B ^.^.^.^.^.^.^.^.Y.g g u u u t u F F                   ",
"                  x x x x c F S t t t t t t t t . (.(.(.(.(./.N O , g f , . X N /.(.(.(.(.Q.g g u u u u z F F                   ",
"                  x x x l l F F k t t t t t t t . _._._.E.& : g g g h h z z z 5 O . M )._.W.g g g u u g H H                     ",
"                    x l l l c F F u t t t t t t . `.3 $ e u u g g g h h h z z z z h 8 + . q g g g g u A H H                     ",
"                    l l l d d F F n t t t t t t O 2 t t t u u u g g g h h h z z z z h h h g g g g g z R R                       ",
"                      l l d d d F F k t t t t t t t t t t t u u u g g g h h h z z z z h h g g g g z R R                         ",
"                      d d d d s c F F g t t t t t t t t t t t u u u g g g h h z z z z z h f g g h R | R                         ",
"                        d d s s s F F F g t t t t t t t t t t t u u u g g g h h z z z z h f f z L @.|                           ",
"                          d s s a a F F F g t t t t t t t t t t t u u g g g h h h z z z h h z K %.%.                            ",
"                            s a a a a F F F g t t t t t t t t t t u u u g g g h h z z z z C %.,.,.                              ",
"                              a a a a a F F F v u t t t t t t t t t u u u g g g h f h z Z g.g.r.                                ",
"                                a a a a a F F F F h u t t t t t t t t u u u g g g f c _ c.c.g.                                  ",
"                                  a a a a a c F F F S k u t t t t t t t u u u g x G ,.r.g.c.                                    ",
"                                      a a a a s F F F F F S k g g g g g h z A R | | %.,.                                        ",
"                                          a a a a s F F F F F F F F F F F F H H R |                                             ",
"                                                a a a a x F F F F F F F F F F G                                                 ",
"                                                                                                                                ",
"                                                                                                                                "
};
