/* XPM */
static char *_11317244f2e41579a38a5301a4400bcmDuBRgAvff1xf1C4[] = {
/* columns rows colors chars-per-pixel */
"64 64 53 1 ",
"  c None",
". c #D0A600",
"X c #D1A800",
"o c #D3A900",
"O c #D4AA00",
"+ c #D6AA00",
"@ c #D5AC00",
"# c #D7AC00",
"$ c #D8AD00",
"% c #D9AE00",
"& c #DBAF00",
"* c #DBB000",
"= c #DCB000",
"- c #DDB000",
"; c #DEB200",
": c #DFB200",
"> c #E0B400",
", c #E2B500",
"< c #E3B600",
"1 c #E4B700",
"2 c #E5B800",
"3 c #E7B900",
"4 c #E8BA00",
"5 c #EABB00",
"6 c #EABC00",
"7 c #ECBD00",
"8 c #ECBE00",
"9 c #EDBE00",
"0 c #EFBF00",
"q c #EFC000",
"w c #F0C000",
"e c #F1C100",
"r c #F1C200",
"t c #F2C200",
"y c #F4C300",
"u c #F4C400",
"i c #F6C500",
"p c #F7C600",
"a c #F8C700",
"s c #F9C700",
"d c #F9C800",
"f c #FAC800",
"g c #FAC900",
"h c #FBC900",
"j c #FACA00",
"k c #FBCA00",
"l c #FCCA00",
"z c #FDCA00",
"x c #FCCB00",
"c c #FDCB00",
"v c #FECA00",
"b c #FECB00",
"n c #FFCC00",
/* pixels */
"                                                                ",
"                                                                ",
"                              ccccccc                           ",
"                              ccccccc                           ",
"                              ccccccc                           ",
"                              ccccccc                           ",
"                             gccccccc                           ",
"                             gcccccccg                          ",
"                             ccccccccg                          ",
"                             ccccccccg                          ",
"                             ccccccccg                          ",
"                             ccccccccc                          ",
"                             ccccccccc                          ",
"                             ccccccccc                          ",
"                             ccccccccc                          ",
"                             ncccccccc                          ",
"                             ncccccccc                          ",
"                             ncccccccc                          ",
"                             ncccccccc                          ",
"                             ncccccccc                          ",
"                             ncccccccc                          ",
"                             ncccccccc                          ",
"                             ncccccccc                          ",
"                             ncccccccc                          ",
"                             ncccccccc                          ",
"                             ncccccccc                          ",
"                             ncccccccc                          ",
"                             ncccccccc                          ",
"                             ncccccccc                          ",
"                             ncccccccc                          ",
"                             ncccccccc                          ",
"                             ncccccccc                          ",
"                             ncccccccc                          ",
"                             ncccccccc                          ",
"                             ncccccccc                          ",
"                             ncccccccc                          ",
"                             ncccccccc                          ",
"                             ncccccccc                          ",
"                             ncccccccc                          ",
"                             ncccccccc                          ",
"                             cgggggggg                          ",
"                             gaaaaaaag                          ",
"                             aiiiiiiii                          ",
"                             iyyyyyyyi                          ",
"                             yeeeeeeee                          ",
"                             e8qqqqqqe                          ",
"                             888888888                          ",
"                             866666666                          ",
"                             555555535                          ",
"                             333333333                          ",
"                             1,,,,,,,,                          ",
"                             ,,,,,,,,:                          ",
"                             =========                          ",
"                             =*======%                          ",
"                             %%%%%%%%%                          ",
"                             O########                          ",
"                             oOOOOOOOo                          ",
"                             .OOOOOOO                           ",
"                              OOOOOOO                           ",
"                              OOOOOOO                           ",
"                              OOOOOOO                           ",
"                              OOOOOOO                           ",
"                                                                ",
"                                                                "
};
