/* XPM */
static char *result[] = {
/* columns rows colors chars-per-pixel */
"39 64 153 2 ",
"   c #0E3F0F",
".  c #182D1A",
"X  c #0F3E11",
"o  c #173317",
"O  c #163417",
"+  c #173417",
"@  c #163517",
"#  c #173517",
"$  c #153716",
"%  c #163616",
"&  c #143B13",
"*  c #123F10",
"=  c #123E11",
"-  c #123F11",
";  c #133C12",
":  c #133D12",
">  c #133C13",
",  c #133D13",
"<  c #133E12",
"1  c #153915",
"2  c #143C14",
"3  c #163318",
"4  c #173319",
"5  c #163418",
"6  c #173518",
"7  c #193119",
"8  c #183318",
"9  c #18311A",
"0  c #18321A",
"q  c #163A18",
"w  c #18391B",
"e  c #183F1C",
"r  c #10430E",
"t  c #11420F",
"y  c #10430F",
"u  c #11430F",
"i  c #10440E",
"p  c #10450E",
"a  c #10440F",
"s  c #10450F",
"d  c #10460F",
"f  c #0F4812",
"g  c #114010",
"h  c #114110",
"j  c #134010",
"k  c #124011",
"l  c #114210",
"z  c #104710",
"x  c #144217",
"c  c #144317",
"v  c #144417",
"b  c #104810",
"n  c #104811",
"m  c #104A11",
"M  c #114A11",
"N  c #104B11",
"B  c #114A12",
"V  c #114C12",
"C  c #114D13",
"Z  c #114E13",
"A  c #124B14",
"S  c #134916",
"D  c #134D17",
"F  c #154219",
"G  c #154319",
"H  c #15421A",
"J  c #16421A",
"K  c #154418",
"L  c #144419",
"P  c #15441A",
"I  c #164A19",
"U  c #125014",
"Y  c #125114",
"T  c #125215",
"R  c #125315",
"E  c #125415",
"W  c #125616",
"Q  c #135917",
"!  c #15551A",
"~  c #125918",
"^  c #135A18",
"/  c #135B18",
"(  c #125B1A",
")  c #135D1A",
"_  c #125D1B",
"`  c #125E1A",
"'  c #135E1B",
"]  c #135F1B",
"[  c #145C18",
"{  c #145C19",
"}  c #145D19",
"|  c #145E19",
" . c #145F19",
".. c #145D1A",
"X. c #145D1B",
"o. c #175E1E",
"O. c #146019",
"+. c #15601A",
"@. c #15611A",
"#. c #14601B",
"$. c #15601B",
"%. c #15611B",
"&. c #14621B",
"*. c #15621B",
"=. c #14631B",
"-. c #15631B",
";. c #16641B",
":. c #14621C",
">. c #15631C",
",. c #16621D",
"<. c #15641C",
"1. c #16671C",
"2. c #16661D",
"3. c #16681D",
"4. c #17681E",
"5. c #176A1E",
"6. c #176B1E",
"7. c #176C1F",
"8. c #176D1F",
"9. c #186F1F",
"0. c #18701F",
"q. c #187020",
"w. c #187120",
"e. c #197220",
"r. c #197321",
"t. c #197421",
"y. c #197521",
"u. c #197621",
"i. c #1A7622",
"p. c #1A7822",
"a. c #1B7A23",
"s. c #1B7B23",
"d. c #1B7C23",
"f. c #1B7C24",
"g. c #1B7D24",
"h. c #1C7D24",
"j. c #1C7E24",
"k. c #1C7F24",
"l. c #1C7F25",
"z. c #1C8024",
"x. c #1C8025",
"c. c #1C8125",
"v. c #1D8125",
"b. c #1D8225",
"n. c #1D8226",
"m. c #1D8326",
"M. c #1D8426",
"N. c #1D8526",
"B. c #1E8526",
"V. c #1E8527",
"C. c #1E8627",
"Z. c #1E8727",
"A. c None",
/* pixels */
"A.A.A.A.A.A.A.A.A.A.A.A.A.A.A.A.n.a.A.A.A.A.A.' n.s.A.A.A.A.A.A.A.A.A.A.A.A.A.",
"A.A.A.A.A.A.A.A.A.A.A.A.A.A.A.A.Z.j.i A.A.A.A. .Z.x.i A.A.A.A.A.A.A.A.A.A.A.A.",
"A.A.A.A.A.A.A.A.A.A.A.A.A.A.A.A.Z.j.i 8 A.A.A.O.Z.x.i 5 A.A.A.A.A.A.A.A.A.A.A.",
"A.A.A.A.A.A.A.A.A.A.A.A.A.A.A.A.Z.j.i 8 A.A.A.O.Z.x.i 5 A.A.A.A.A.A.A.A.A.A.A.",
"A.A.A.A.A.A.A.A.A.A.A.A.A.A.A.A.Z.j.i 8 A.A.A.O.Z.x.i 5 A.A.A.A.A.A.A.A.A.A.A.",
"A.A.A.A.A.A.A.A.A.A.A.A.A.A.A.A.Z.j.i 8 A.A.A.` Z.x.i 5 A.A.A.A.A.A.A.A.A.A.A.",
"A.A.A.A.A.A.A.A.A.A.A.A.A.A.A.A.Z.x.| ,.2.<._ ) Z.x.i 5 A.A.A.A.A.A.A.A.A.A.A.",
"A.A.A.A.A.A.A.A.A.A.A.A.A.:.l.Z.Z.Z.Z.Z.Z.Z.Z.Z.Z.Z.i.! A.A.A.A.A.A.A.A.A.A.A.",
"A.A.A.A.A.A.A.A.A.A.A.&.V.Z.Z.Z.Z.Z.Z.Z.Z.Z.Z.Z.Z.Z.Z.Z.Z.6.A.A.A.A.A.A.A.A.A.",
"A.A.A.A.A.A.A.A.A.A.f.Z.Z.Z.Z.Z.Z.Z.Z.Z.Z.Z.Z.Z.Z.Z.Z.Z.Z.Z.m.A.A.A.A.A.A.A.A.",
"A.A.A.A.A.A.A.A.A.C.Z.Z.Z.Z.Z.Z.Z.Z.Z.Z.Z.Z.Z.Z.Z.Z.Z.Z.Z.Z.Z.Z.{ A.A.A.A.A.A.",
"A.A.A.A.A.A.A.A.Z.Z.Z.Z.Z.Z.Z.Z.Z.Z.Z.Z.Z.Z.Z.Z.Z.Z.Z.Z.Z.Z.Z.Z.Z.X.A.A.A.A.A.",
"A.A.A.A.A.A.A.C.Z.Z.Z.Z.Z.Z.Z.Z.Z.Z.Z.Z.Z.Z.Z.Z.Z.Z.Z.Z.Z.Z.Z.Z.Z.Z.A.A.A.A.A.",
"A.A.A.A.A.A.g.Z.Z.Z.Z.Z.Z.Z.Z.l.Z.j.b z z V / p.Z.Z.Z.Z.Z.Z.Z.Z.Z.Z.m.A.A.A.A.",
"A.A.A.A.A.=.Z.Z.Z.Z.Z.Z.Z.Z.Y V Z.j.i h - = * U Z.M.Z.Z.Z.Z.Z.Z.Z.Z.Z.w.A.A.A.",
"A.A.A.A.A.m.Z.Z.Z.Z.Z.Z.Z.V i V Z.j.i 8 A.A.A...Z.x.d a.Z.Z.Z.Z.Z.Z.Z.Z.A.A.A.",
"A.A.A.A.A.Z.Z.Z.Z.Z.Z.Z.-.i i P Z.j.i 8 A.A.A.A.Z.x.i 1 6.Z.Z.Z.Z.Z.Z.Z.g.A.A.",
"A.A.A.A.7.Z.Z.Z.Z.Z.Z.Z.s i + A.Z.j.i 8 A.A.A.A.Z.x.i 5 o 3.Z.Z.Z.Z.Z.Z.Z.A.A.",
"A.A.A.A.j.Z.Z.Z.Z.Z.Z.s.i u A.A.Z.j.i 8 A.A.A.A.Z.x.i 5 A.1 r.Z.Z.Z.Z.m.N : A.",
"A.A.A.A.N.Z.Z.Z.Z.Z.Z.6.i $ A.A.Z.j.i 8 A.A.A.A.Z.x.i 5 A.A.l M.Z.Z.9.p 1 A.A.",
"A.A.A.A.C.Z.Z.Z.Z.Z.Z.0.i A.A.A.Z.j.i 8 A.A.A.A.Z.x.i 5 A.A.A.Y C.E r A.A.A.A.",
"A.A.A.A.C.Z.Z.Z.Z.Z.Z.M.i A.A.A.Z.j.i 8 A.A.A.A.Z.x.i 5 A.A.A.< d : A.A.A.A.A.",
"A.A.A.A.c.Z.Z.Z.Z.Z.Z.Z.5.A.A.A.Z.j.i 8 A.A.A.A.Z.x.i 5 A.A.A.A.7 A.A.A.A.A.A.",
"A.A.A.A.q.Z.Z.Z.Z.Z.Z.Z.Z.p.A.A.Z.j.i 8 A.A.A.A.Z.x.i 5 A.A.A.A.A.A.A.A.A.A.A.",
"A.A.A.A.A.Z.Z.Z.Z.Z.Z.Z.Z.Z.Z.u.Z.j.i 8 A.A.A.A.Z.x.i 5 A.A.A.A.A.A.A.A.A.A.A.",
"A.A.A.A.A.a.Z.Z.Z.Z.Z.Z.Z.Z.Z.Z.Z.Z.g.4.( A.A.A.Z.x.i 5 A.A.A.A.A.A.A.A.A.A.A.",
"A.A.A.A.A.A.C.Z.Z.Z.Z.Z.Z.Z.Z.Z.Z.Z.Z.Z.Z.Z.C.l.Z.x.s 5 A.A.A.A.A.A.A.A.A.A.A.",
"A.A.A.A.A.A.A.Z.Z.Z.Z.Z.Z.Z.Z.Z.Z.Z.Z.Z.Z.Z.Z.Z.Z.Z.Z.j.] A.A.A.A.A.A.A.A.A.A.",
"A.A.A.A.A.A.A.A.V.Z.Z.Z.Z.Z.Z.Z.Z.Z.Z.Z.Z.Z.Z.Z.Z.Z.Z.Z.Z.B.#.A.A.A.A.A.A.A.A.",
"A.A.A.A.A.A.A.A.A.t.Z.Z.Z.Z.Z.Z.Z.Z.Z.Z.Z.Z.Z.Z.Z.Z.Z.Z.Z.Z.Z.a.A.A.A.A.A.A.A.",
"A.A.A.A.A.A.A.A.A.A.S h.Z.Z.Z.Z.Z.Z.Z.Z.Z.Z.Z.Z.Z.Z.Z.Z.Z.Z.Z.Z.B.A.A.A.A.A.A.",
"A.A.A.A.A.A.A.A.A.A.A.9 B r.Z.Z.Z.Z.Z.Z.Z.Z.Z.Z.Z.Z.Z.Z.Z.Z.Z.Z.Z.C.A.A.A.A.A.",
"A.A.A.A.A.A.A.A.A.A.A.A.A.6 a ^ Z.Z.Z.Z.Z.Z.Z.Z.Z.Z.Z.Z.Z.Z.Z.Z.Z.Z.x.A.A.A.A.",
"A.A.A.A.A.A.A.A.A.A.A.A.A.A.A.I Z.j.Y w.N.Z.Z.Z.Z.Z.Z.Z.Z.Z.Z.Z.Z.Z.Z.%.A.A.A.",
"A.A.A.A.A.A.A.A.A.A.A.A.A.A.A.A.Z.j.i k i z ^ d.Z.Z.Z.Z.Z.Z.Z.Z.Z.Z.Z.C.l A.A.",
"A.A.A.A.A.A.A.A.A.A.A.A.A.A.A.A.Z.j.i 8 A.A.@ A Z.C.Z.Z.Z.Z.Z.Z.Z.Z.Z.Z.W o A.",
"A.A.A.A.A.A.A.A.A.A.A.A.A.A.A.A.Z.j.i 8 A.A.A.A.Z.x.C C.Z.Z.Z.Z.Z.Z.Z.Z.y.u A.",
"A.A.A.A.~ A.A.A.A.A.A.A.A.A.A.A.Z.j.i 8 A.A.A.A.Z.x.i D Z.Z.Z.Z.Z.Z.Z.Z.M.i A.",
"A.A.A.>.Z.A.A.A.A.A.A.A.A.A.A.A.Z.j.i 8 A.A.A.A.Z.x.i 5 y.Z.Z.Z.Z.Z.Z.Z.Z.s O ",
"A.A.$.Z.Z.V.A.A.A.A.A.A.A.A.A.A.Z.j.i 8 A.A.A.A.Z.x.i 5 ) Z.Z.Z.Z.Z.Z.Z.Z.b > ",
"A.` Z.Z.Z.Z.z.A.A.A.A.A.A.A.A.A.Z.j.i 8 A.A.A.A.Z.x.i 5 A.Z.Z.Z.Z.Z.Z.Z.Z.m j ",
"A.Z.Z.Z.Z.Z.Z.p.A.A.A.A.A.A.A.A.Z.j.i 8 A.A.A.A.Z.x.i 5 A.Z.Z.Z.Z.Z.Z.Z.Z.M t ",
"6.Z.Z.Z.Z.Z.Z.Z.y.A.A.A.A.A.A.A.Z.j.i 8 A.A.A.A.Z.x.i 5 A.Z.Z.Z.Z.Z.Z.Z.Z.b y ",
"A.m.Z.Z.Z.Z.Z.Z.Z.p.A.A.A.A.A.A.Z.j.i 8 A.A.A.A.Z.x.i 5 5.Z.Z.Z.Z.Z.Z.Z.Z.s u ",
"A.A.Z.Z.Z.Z.Z.Z.Z.Z.x.A.A.A.A.A.Z.j.i 8 A.A.A.A.Z.x.i 5 j.Z.Z.Z.Z.Z.Z.Z.M.i h ",
"A.A.8.Z.Z.Z.Z.Z.Z.Z.Z.Z.] A.A.A.Z.j.i 8 A.A.A.A.Z.x.i v Z.Z.Z.Z.Z.Z.Z.Z.t.i ; ",
"A.A.A.a.Z.Z.Z.Z.Z.Z.Z.Z.Z.f.A.A.Z.j.i 8 A.A.A.A.Z.x.b M.Z.Z.Z.Z.Z.Z.Z.Z.R i # ",
"A.A.A.A.x.Z.Z.Z.Z.Z.Z.Z.Z.Z.Z.l.Z.j.i 8 A.A.A.A.Z.N.Z.Z.Z.Z.Z.Z.Z.Z.Z.N.p i A.",
"A.A.A.A.A.v.Z.Z.Z.Z.Z.Z.Z.Z.Z.Z.Z.Z.C.x.g.k.m.Z.Z.Z.Z.Z.Z.Z.Z.Z.Z.Z.Z.} i h A.",
"A.A.A.A.A.A.h.Z.Z.Z.Z.Z.Z.Z.Z.Z.Z.Z.Z.Z.Z.Z.Z.Z.Z.Z.Z.Z.Z.Z.Z.Z.Z.Z.x.i i A.A.",
"A.A.A.A.A.A.A.t.Z.Z.Z.Z.Z.Z.Z.Z.Z.Z.Z.Z.Z.Z.Z.Z.Z.Z.Z.Z.Z.Z.Z.Z.Z.Z.n i g A.A.",
"A.A.A.A.A.A.A.A.o.Z.Z.Z.Z.Z.Z.Z.Z.Z.Z.Z.Z.Z.Z.Z.Z.Z.Z.Z.Z.Z.Z.Z.Z.Z i i A.A.A.",
"A.A.A.A.A.A.A.A.A.e b.Z.Z.Z.Z.Z.Z.Z.Z.Z.Z.Z.Z.Z.Z.Z.Z.Z.Z.Z.Z.B.V i i A.A.A.A.",
"A.A.A.A.A.A.A.A.A.A.A.+.Z.Z.Z.Z.Z.Z.Z.Z.Z.Z.Z.Z.Z.Z.Z.Z.Z.Z.e.s i i 0 A.A.A.A.",
"A.A.A.A.A.A.A.A.A.A.A.A.2 *.N.Z.Z.Z.Z.Z.Z.Z.Z.Z.Z.Z.Z.Z.y.m i i r A.A.A.A.A.A.",
"A.A.A.A.A.A.A.A.A.A.A.A.A.A.- f Z.M.Z.Z.Z.Z.Z.Z.Z.m.R s i i i % A.A.A.A.A.A.A.",
"A.A.A.A.A.A.A.A.A.A.A.A.A.A.A.K Z.1.i s d d s   Z.x.i i h 4 A.A.A.A.A.A.A.A.A.",
"A.A.A.A.A.A.A.A.A.A.A.A.A.A.A.F Z.;.i . % & , X Z.x.i 3 A.A.A.A.A.A.A.A.A.A.A.",
"A.A.A.A.A.A.A.A.A.A.A.A.A.A.A.G Z.@.i A.A.A.A.c Z.x.i 5 A.A.A.A.A.A.A.A.A.A.A.",
"A.A.A.A.A.A.A.A.A.A.A.A.A.A.A.L Z. .i A.A.A.A.c Z.x.i 5 A.A.A.A.A.A.A.A.A.A.A.",
"A.A.A.A.A.A.A.A.A.A.A.A.A.A.A.J Z.[ i A.A.A.A.c Z.x.i 5 A.A.A.A.A.A.A.A.A.A.A.",
"A.A.A.A.A.A.A.A.A.A.A.A.A.A.A.H Z.Q i A.A.A.A.x Z.x.i 5 A.A.A.A.A.A.A.A.A.A.A.",
"A.A.A.A.A.A.A.A.A.A.A.A.A.A.A.w R m i A.A.A.A.q R T i 5 A.A.A.A.A.A.A.A.A.A.A.",
"A.A.A.A.A.A.A.A.A.A.A.A.A.A.A.A.A.r i A.A.A.A.A.A.r i 5 A.A.A.A.A.A.A.A.A.A.A."
};
