/* XPM */
static char *_e5680e713ea4c1ed19a8fd60a965e29aGxsnSmXfQ0Zo1uD[] = {
/* columns rows colors chars-per-pixel */
"64 64 35 1 ",
"  c #CBC5BA",
". c #CEC9BE",
"X c #CFCAC0",
"o c #D2CDC3",
"O c #D6D1C6",
"+ c #D8D3C7",
"@ c #D7D2C8",
"# c #DAD6CB",
"$ c #DED9CE",
"% c #DFDBD1",
"& c #DFDCD1",
"* c #DFDCD4",
"= c #E0DBCF",
"- c #E1DCCF",
"; c #E0DBD0",
": c #E3DED3",
"> c #E4DFD3",
", c #E3DFD4",
"< c #E4DFD5",
"1 c #E3DFD8",
"2 c #E3E0D5",
"3 c #E6E3D7",
"4 c #E3E0D8",
"5 c #E6E2D8",
"6 c #E7E3D9",
"7 c #E7E3DB",
"8 c #E7E4D9",
"9 c #E7E5DC",
"0 c #E8E5D9",
"q c #EAE7DC",
"w c #EBE8DE",
"e c #ECE9DF",
"r c #EAE7E0",
"t c #EBE8E0",
"y c #EBE9E1",
/* pixels */
"38qq83333330000053338qqqqqwwqq00qq00083335qq00qqqqwewq0000q053:$",
"800033333335555333,35800qqq0008800085333,3qq000000qqq05588053:$$",
"00053::::,22,:::::::,53505533333332333::$:8q8555333553332332:$##",
"0833,:::::,,::::::$$,,33553,:::::::::::$#%5q5333,,,222,:::,:$##O",
"533:::::::&&:,:::$##:25553,,:::%$$:::%$$#$5033,:::::,,,:::::$#@O",
"532:::::::&&,,::%$##%55532,:::%$$$$;:$$##$503,:::::::::::::;$#@O",
"85,::::&::::,,:$$###%5553,::,:%$;::::%$$#$5q53,:%%:,:::::::;$##O",
"053,,:::::::,::$$###;555<::,2,&&:::::;$$#$5q532:&:,,:::::::%$##O",
"88552,,::&&&:%$$$$##:253::,22,:&:;$$%;$$#%5q53,:::,2,::::$$$$#@O",
"085552,,,::;$$$$$$#$:452::,,,,::::%$%%$$#$5q53,:,,,,,::::$$$$#@O",
"qq55552222::$$$$$$##:353::,,:::::::&:&:$#$5053,,,,,,:::::&:$$#@O",
"qq55552223,:%$$$$$#$:253::,,::::,,:::::%#$3052,:,,::::,,:::;$#@O",
"885522,,22,,:%$$%$##&,53,,22,,:::,,::::%$%503,::::&::,3,:::$$#OO",
"55552,,,,22,::$$$$##&25532222,::::,,,,:&$%503:::::$;,2,,,::$$#@O",
"55522,,,,242::$$$###:588332,,,,:::,22,,:$%5033::::$=:,,::::&$#@O",
"553,,,,,,242:::$$###:5583,,,,,,::::,,,,%#$3033:::::::,::::::%$#@",
"33,:,,,,,,2,::::$###%,55,::::,::;;:::::%#$305,,,::::,,,:::::%$#@",
"3,::%%:::::%%$$$$###%,,,:$$$::%$$$$%%%:$##,5,::::;&&::::%$$$$##@",
"::%$$$$$$$######@OO@%::%#############$%#@#:,%$$$$$$$##$$######@O",
"%%%$##########@@@OO#%,%%##############$#@#,,%##################@",
",%%#####$$$########%,1,%$#####$####$##%##%45*%##$$$###%%$#######",
",,:%%%%%%%%%%%%%%%%,55,&%%%&&**&%**,,:%%%,552,::,:::;:,,,&%%%%%%",
"553333333,,:,,3333335532<<3555555555553,:,8q555555555555553<<,:%",
"0058553333>:,333553355333335555555qq0853:,0q05008088005508333,%$",
"805333<:::-$&:::22,,5533<:::::,:<33322,:$:8q5333223332,333:::;##",
"0333,::::::=$$$=::::,3<:,:::::::::,,,::$#$503::::,:::::,,::&;$#@",
"533::::::::::=$$$%$%,,,::::::::::::,,,:$#$,33::%:::::::::::&%$#@",
"33::::::::,::=$$$$$%,<3::::::::::::,2,:$#$253:$$:::::::::::&%$##",
"33:::&:&$::::;=$$$%:,53<::;%&::,,,,22,:%#%8q5:;$;;=$:::,,,::$$##",
"33,:::$$=;$$;;::$$%:4533:;;%%&:,,,222,:%$&qt8,:;;=$$:::,,,::$$##",
"33:::::-::&&%:::=$$:,533:$$$::,,,,,,,,:%$:qt03,:;==::::,,,::$$##",
"33,:::-$:::&::::;$$%,53<:$$$::::,,,,,,::$:qtq52::;&::::::::%$##@",
"333,,:$$&:::&&%;:%$%453::$$$&::::;:::::&$&8q953,::::::::::&%$#OO",
"33<,,:$$::::&%$$;%$%253<:=$$&:::;;:::::&$%5q8552::::::::::&%$#Oo",
"<<:::::::::::$$$$$$$,553:;;::::::::::::%$%5q8552,:::::::::&%$#@O",
">::::::::::::$$$$$#$,553::::::::,::::::%$%5q8552,,:::::::::&%$#O",
"::::::::::::::$$$$#$,553::::::::,,,,,,,:$:8q852,,,::::::::::&$##",
":::;:::::;:::%$$$##$,553::::$%&:,,,,,,:%$&8q82,,::::%:::::::%$#@",
"<:$$$$$$$$$$$$$$$##$,52:;$$$$$&:,,,::&&$#%595,:&&&%$$%%%%&:&$#@@",
":$##################*,:%$#####$$%%%$$$$#@#25,%$$$$###$$$$$$$#@Oo",
"##OOOOOOOOOOOO@###O#%&$###@OO@##@@####@OO#:,%#####@O@@######@Ooo",
"$$############$%%%#$,,%%$$###############%,,&%%$$$$###$$$%%$##@@",
"55555555555555555555qqq8855555555355555355qq99998899555589q952,,",
"wwwwtttttwtwqqtqqq0qrttwqqqqq08qqqqqqq085qtttttttttttqqqqwttq53,",
"qq00qqqqqqq00qqq53,259q0080533355555333,:3ttwqttttttq00888853:$$",
"0033800888535555,:$%,5555333::::,,<::::=$,qtq0qqqqqq533333<::$#+",
"533,<3333332333,:$#$,5553,:::::;=;::=$$$$:qw855555553,:::::;$#@O",
"55,:::,,<,,,,,,,:$#$,5553,::::::$$=$$$$$#%0q95335532,:;=;;;$$#@O",
"03:::,:::::,,::::%$%,4553,::,,2,:::%$$$##%5q85445532,:$$$=;%$##O",
"53:;:,::::,,,:::::%%,4552::,,333,:::$$$#@$5wq554322,::%$$=;%$##O",
"3:$$::::::,,,,,,:%%%,385::,,,,32,::::%$##$5wq552,,::::::::=$##+O",
"::$$::::::,,,,,,:&%%,353::,3,,,,::::::%$#%0tq552,:::::::::;$##OO",
"::=$$:::::,,,:::,:%%,533::,,222,::,,,::$#&qtq5332,,::::::::$##OO",
":-=$$$$%::,,,:::,,%%,533,,,,,22,::,,,,:%$:qtq533222,::::,::$##OO",
"::-$::%%&:,,,:,,3,:&,432,,,,,,,,,,::,,:$#&qtq5322222,,,,::;$##@O",
"<:::::&&&:,,,,,33,%%,4532,,:,:::,:::,,;$#%9tq53,,,,,,:::::;$##@O",
"33:::::::::,:,233:$$,5555,,,:::=::;::::$$&9tq52,,,,,:::::::$##OO",
"053,:::::::::,,,,:$$,50852,,::=$$$%&:::$$&9w052,,,:::::::::%$#@O",
"q05,:;::::$&::$$:;#$,5q05,,:,:$$$$$&:,:%$:9q852,,:,,,,:::::$$###",
"083:%$%;%%$$:;$$$$##,5852::::%$$##$$::%$$&8q52,:::::,:;%%%$$####",
"3,:%$$$$$##$$$$#####,2,:%$$$########$$$##%5q5,&%$$%%$$$######@OO",
"%$#####@@@@#####@OO@%,%##@OOOOOoooOO@##@O#25&$########OOOOOOOooo",
"#@Oooooooooooooooooo#%#Oo.........ooooooo@%,#OoooooooooooooooXXX",
"OoooXXXXXXooooooX..o##@o.         ..XXXXXO%%@XXXXXX............."
};
