/* XPM */
static char *_b9c14a80d204fd49da6d01abe2e9813VI8wunmG1J9l1akr[] = {
/* columns rows colors chars-per-pixel */
"64 84 182 2 ",
"   c None",
".  c #231F1F",
"X  c #2B241F",
"o  c #332A1F",
"O  c #3F311D",
"+  c #231F20",
"@  c #1E262A",
"#  c #1C292D",
"$  c #1F2427",
"%  c #1A2E34",
"&  c #172F36",
"*  c #14343B",
"=  c #1E333C",
"-  c #1F3037",
";  c #232122",
":  c #292525",
">  c #212529",
",  c #22292D",
"<  c #2E2A2A",
"1  c #2C2529",
"2  c #312925",
"3  c #312D2D",
"4  c #372A2D",
"5  c #3F342E",
"6  c #212D32",
"7  c #2B2E31",
"8  c #322E30",
"9  c #392935",
"0  c #3A3533",
"q  c #3C3A3D",
"w  c #353334",
"e  c #42331D",
"r  c #4C3A1C",
"t  c #49371C",
"y  c #523D1B",
"u  c #42273A",
"i  c #433C3A",
"p  c #403937",
"a  c #5D441A",
"s  c #57411B",
"d  c #664A18",
"f  c #684B18",
"g  c #7B5715",
"h  c #50423C",
"j  c #634C3E",
"k  c #0F3B45",
"l  c #0C3E4A",
"z  c #1C3A44",
"x  c #1B3E4B",
"c  c #113841",
"v  c #203844",
"b  c #473943",
"n  c #4B2A42",
"m  c #673058",
"M  c #672F58",
"N  c #7B3369",
"B  c #0A414D",
"V  c #1A414E",
"C  c #064654",
"Z  c #094350",
"A  c #054857",
"S  c #004E5E",
"D  c #194554",
"F  c #1A495A",
"G  c #174C5D",
"H  c #164E61",
"J  c #1A4B60",
"K  c #155266",
"L  c #14556B",
"P  c #125C74",
"I  c #135D78",
"U  c #11627B",
"Y  c #4D4643",
"T  c #494749",
"R  c #584F4A",
"E  c #554C48",
"W  c #5C524D",
"Q  c #5B5558",
"!  c #585656",
"~  c #594A54",
"^  c #735746",
"/  c #635A55",
"(  c #6B5243",
")  c #71655E",
"_  c #6F645D",
"`  c #5D6164",
"'  c #68696B",
"]  c #7B6E65",
"[  c #766962",
"{  c #6E7274",
"}  c #787879",
"|  c #855E14",
" . c #8B6113",
".. c #926612",
"X. c #996A11",
"o. c #A4710F",
"O. c #AF780D",
"+. c #AA750E",
"@. c #B1790C",
"#. c #8A3676",
"$. c #8D6951",
"%. c #946E55",
"&. c #9A7258",
"*. c #83756C",
"=. c #87796F",
"-. c #8F7461",
";. c #8A7C72",
":. c #8F8076",
">. c #938479",
",. c #9A897E",
"<. c #918277",
"1. c #BC8967",
"2. c #D09770",
"3. c #EAA87B",
"4. c #0F6682",
"5. c #0E6986",
"6. c #0D6C8B",
"7. c #0C708F",
"8. c #0B7495",
"9. c #09789C",
"0. c #09779A",
"q. c #077EA3",
"w. c #7A7F81",
"e. c #AF3C93",
"r. c #0781A7",
"t. c #0683AB",
"y. c #0487B0",
"u. c #038AB4",
"i. c #028EBA",
"p. c #0191BE",
"a. c #0093C1",
"s. c #828182",
"d. c #83898B",
"f. c #88898B",
"g. c #9E8D81",
"h. c #959697",
"j. c #8C9395",
"k. c #A08F83",
"l. c #A39285",
"z. c #AD9B8E",
"x. c #A69588",
"c. c #B19F90",
"v. c #BDA99A",
"b. c #B7A495",
"n. c #A5A7A8",
"m. c #A5AEB0",
"M. c #BABCBD",
"N. c #ABB5B7",
"B. c #C2AE9E",
"V. c #F7B180",
"C. c #FAB482",
"Z. c #C5B1A0",
"A. c #C9B4A3",
"S. c #CDB8A6",
"D. c #D3BDAA",
"F. c #D7C0AE",
"G. c #D9C2AF",
"H. c #DCC5B2",
"J. c #DFC8B4",
"K. c #E1C9B6",
"L. c #E6CEB9",
"P. c #E8CFBB",
"I. c #EAD1BC",
"U. c #FDD6B7",
"Y. c #BCC7CA",
"T. c #C5C6C7",
"R. c #C9D6D9",
"E. c #CFDCDF",
"W. c #D9DBDC",
"Q. c #EFD6C1",
"!. c #F4DAC4",
"~. c #F8DEC7",
"^. c #F9DFC8",
"/. c #F0D7C1",
"(. c #FEE3CC",
"). c #DAE9EC",
"_. c #DFEFF2",
"`. c #E0EFF2",
"'. c #E4F4F7",
"]. c #F9FCFD",
"[. c #F7FAFB",
"{. c #EAEDEE",
/* pixels */
"                                                                                                                                ",
"                                                                          .   .                                                 ",
"                                                                            ^ ; h (                                             ",
"                                                                            . %.2 : $.                                          ",
"                                                                    :     +   E -.%.V.4 5                                       ",
"                                                                    +         (.(.(.U.C.&.3.:                                   ",
"                                                                : ' /   f.T.b.(.(.(.W C.$.^ :                                   ",
"                                                              8 ].].].s.].].T.D.(.(.<.2.C.1.+                                   ",
"                                                              h.].f.h.W.].m.].! (.(.%.3.3.j                                     ",
"                                                              Q ].].{.T.].} ].n.(.I.2 5 +                                       ",
"                                                              + 8 Q *.0 [.].].! (.D.&.+                                         ",
"                                                        . / J.(.(.(.(.Q.B.;.g.(.(.W 2.0 J.H.;                                   ",
"                                                    ; =.(.(.(.(.(.(.(.(.(.(.(.(.(.;.) I.0 <.l.                                  ",
"                                                  R (.(.(.(.(.(.(.(.(.(.(.(.(.(.(.(.z.!.(.H.<                                   ",
"                                              ; F.(.(.(.(.(.(.(.(.(.(.(.(.(.(.(.(.(.:                                           ",
"                                            : !.(.(.(.(.(.(.(.(.(.(.(.(.(.(.(.(.(.(.                                            ",
"                                          . I.(.(.(.(.(.(.(.(.(.(.(.(.(.(.(.(.(.(.~.                                            ",
"                                          ,.(.(.(.(.(.(.(.(.(.(.(.(.(.(.(.(.(.(.(.H.                                            ",
"                                        : (.(.(.(.(.(.(.(.(.(.(.(.(.(.(.(.~./.(.(.c.                                            ",
"                                        x.(.(.(.(.(.(.(.(.(.(.(.(.(.(.(.I.l.(.(.(.*.                                            ",
"                                        (.(.(.(.(.(.(.(.(.(.(.(.(.(.(.^.E (.(.(.(.E                                             ",
"                                        (.(.(.(.(.(.(.(.(.(.(.(.(.(.^.0 (.(.(.(.(.0                                             ",
"                                        l.(.(.(.(.(.(.(.(.(.(.(.(.I.p (.(.(.(.(.(.:                                             ",
"                                        + ^.(.(.(.(.(.(.(.(.(.(.l.[ (.(.(.(.(.(.(.:                                             ",
"                                          : !.(.(.(.(.(.(.(.H.p P.(.(.(.(.(.(.(.(.+                                             ",
"                                            . E v.D.H.B._ : [ (.(.(.(.(.(.(.(.(.(.                                              ",
"                                                          z.(.(.(.(.(.(.(.(.(.(.(.                                              ",
"                                                        ,.(.(.(.(.(.(.(.(.(.(.(.(.                                              ",
"                                                      W (.(.(.(.(.(.(.(.(.(.(.(.(.                                              ",
"                                                    : (.(.(.(.(.(.(.(.(.(.(.(.(.(.                                              ",
"                                                    D.(.(.(.(.(.(.(.(.(.(.(.(.(.(.                                              ",
"                                                  : (.(.(.(.(.(.(.(.(.(.(.(.(.(.(.                                              ",
"                                                  ] (.(.(.(.(.(.(.(.(.(.(.(.(.(.(.                                              ",
"                                                  W (.(.(.B.D.(.(.(.(.(.(.(.(.(.(.                                              ",
"                                                    : 0 ,.!.^.,.(.(.(.(.(.(.(.(.(..                                             ",
"                                                    : (.(.(.(.(.(.(.(.(.(.(.(.(.(.:                                             ",
"                                                    W (.(.(.(.(.(.(.(.(.(.(.(.(.(.:                                             ",
"                                                  + l.(.(.(.(.(.(.(.(.(.(.(.(.(.(.: =                                           ",
"                                                6 i.A.(.(.(.(.(.(.(.(.(.(.(.(./.< 8.a.z                                         ",
"        + Z.A..                                 u.p.z.(.(.(.(.(.(.(.(.(.(.(.<.K % a.a.p.+                                       ",
"        R (.(.:                               - a.a.[ (.(.(.(.(.(.(.(.(.g.= 9.= p.a.a.a.=                                       ",
"        ) (.(.+                               t.a.a.3 (.(.(.(.(.(.P.W V u.4.5.a.a.a.a.a.q.                                      ",
"        p (.(.<                             , a.a.a.G ) (.(.~.=.6 8.a.a.I I a.a.a.u.p.a.a.+                                     ",
"          ~.(.B.                            q.a.a.i.u.6.: : U p.a.a.a.I 8.a.a.a.a.a.V a.a.z                                     ",
"          W (.(.P.;                       , a.a.z q.8.z T 4 6.a.a.a.4.8.a.a.a.a.a.a.I p.a.t.                                    ",
"          < (.(.(.^./ +                   t.a.a.I 5.P 7.J 6 z a.a.8.I a.a.a.a.a.a.a.p.K a.a.;                               ;   ",
"          l.(.(.(.(.(.T ,               = a.a.U a.p.a.u.; u.p.L t.D a.a.a.a.a.a.a.a.a., a.a.F                             A.~.+ ",
"        Y (.(.J.Y (.(.*.x 6.:         ; p.a.a.F a.a.a.8.F 9.a.K = a.a.a.a.a.a.a.a.a.a.x 9.a.i.+                         / (.(.< ",
"        ~.(.(.,.(.(.Z.z = a.r..     ; 0.a.a.= a.a.a.a.= n K a.y.a.a.6.8.t.u.8.V a.a.a.> > a.a.x                       < (.(.(.: ",
"      [ (.(.Q.(.(.D.;   ; u.a.a.I L z 8.a.D t.a.a.a.p.T m 6 a.a.a.a.D a.a.a.a.4.a.a.y.L   r.a.4.+                   : (.(.(.p   ",
"    + (.(.(.(.(.(.;       + r.a.a.a.x V = 9.a.a.a.a.G F b u a.a.a.a.t.a.a.a.a.r.a.a.K x = , 5.t.H +       . / :.=.v.(.(.D.:     ",
"    ;.I.(.(.(.(.]             K p.a.I > F a.a.a.a.p.u Q m 9 i.a.a.a.I a.a.a.a.9.a.a.a.i.a.+ = x a.u.F ; 0 ~.(.(.(.(.(.I.+       ",
"  ; (.R (.(.(.(.:               + +     > a.a.a.a.= M.#.f.I K a.a.a.a.a.4.D H a.a.a.a.a.i.; + y.a.a.a.9.;.(./.;.(.(.(.W         ",
"  b./.S.(.,.(.I.                          @ H a.8.F I b T.} : a.a.a.a.a.a.a.a.a.a.a.a.t.;     ; 9.a.a.D z I.(.(.W (.(.,.        ",
"+ (.:.(.(.Y (.*.                        + S S % ; s.M.N M #., a.a.a.a.a.a.a.a.a.p.6., l ;         . +     3 (.(.!.K.(.G.        ",
": (.0 (.^.x.(.Y                       : : S S S S ; e.n.` : > = D K P I L x , @ * A S S 3 q                 k.(.(.!.(.(.+       ",
"+ (.0 (.S.K.(.:                 T < ).'.j.S S S S Z #.h.7 ; S S S S S S S S S S S S S S w R.N.              : (.(.(.(.(.=.      ",
"  D.h (.>.!.(.+               N.w.'.'.'.'.l S S S S @ ~ + ; S S S S S S S S S S S S S * _.! '.:               K.(.(.(.<.!.:     ",
"  ; < (.>.I.D.                h.).'.Y.T w ; S S S S S : > > S S S S S S S S S S S S S ! '.Y.'.{               W (.^.!.P.F.<     ",
"    . Z.F.+                   1 '.b       ; S S S S S S > > S S S S S S S S S S S S * + 8 '.'.m.              : (.(./ (.0 l.    ",
"                              Q Y.          c S S S S S q , S S S S S S S S S S S S ;     d.'.m.                /.(.i (.) /.    ",
"                            : '.`           ; S S S S C m 9 S S S S S S S S S S S #       d.'.{                 v.(.;.(.P.b.;   ",
"                        ; ).Q R.<             S S S S * s.1 + ; % & # $ S S S S C         _.'.q                 ,.(.z.P.(.] +   ",
"                        + '.'.'.+             l S S k k v l A A A % l S S S S S ;       T '.'.+   :             =.(.A.K.(.:     ",
"                          3 ' <               @ S S S S ; S A A S S S S Z A S k         R.'.'.d.n.'.+           Y (.P.S.~..     ",
"                                              . S S S S * S A A S S S S S S S ;       + '.'._.R.E.w.            + ,.i G.Y       ",
"                                                S S S S S S A A S S S S S S A         : `.d.+                                   ",
"                                                l S S S S S A C S S S S S S *                                                   ",
"                                                % S S S S S A A S S S S S S ;                                                   ",
"                                                ; S S S S S A C S S S S S S                                                     ",
"                                                + S S S S S S l S S S S S l                                                     ",
"                                                  A S S S S S k S S S S S @                                                     ",
"                                                  * S S S S A B S S S S S +                                                     ",
"                                                  @ S S S S A B S S S S S                                                       ",
"                                                  ; S S S S A B S S S S k                                                       ",
"                                                  . S S S S A Z S S S S $                                                       ",
"                                                  : S S S S A C S S S S +                                                       ",
"                                                  ; S S S S A A S S S A                                                         ",
"                                                + # S S S S A A S S S S @                                                       ",
"                                              @ S B # A S S C A S S S A ; >                                                     ",
"                      + X r g ..| e d ..o...f y o & S C # B Z A S * * A S * : o s r : O  .| a e X +                             ",
"                + t X.@.@.@.@.@.@.O.y X...@.@.@.@.@.d # S C ; # k S c :  .@.@.@.+.f  .@.@.@.@.@.@.@. .:                         ",
"              . | @.@.@.@.@.@.@.@.@.@.r a @.O.o. .d O : + @ k B % 2  .X.X.o.+.O.s d @.@.@.@.@.@.@.o.r                           ",
"                  : X e y s y r e o : + .                                     . + . + . + . : + ;                               "
};
