/* XPM */
static char *_f297664a4304dccd08ecc41fa913d59gD6E2MHWdh7WyiL3[] = {
/* columns rows colors chars-per-pixel */
"64 64 202 2 ",
"   c #0D0906",
".  c #0F0B08",
"X  c #130B05",
"o  c #1A0E04",
"O  c #130E09",
"+  c #191007",
"@  c #16110C",
"#  c #1C140C",
"$  c #1C1611",
"%  c #1A1714",
"&  c #1D1914",
"*  c #241301",
"=  c #2B1A06",
"-  c #21160C",
";  c #24190E",
":  c #2B1C0E",
">  c #311F0E",
",  c #231B13",
"<  c #2A1E13",
"1  c #241F19",
"2  c #32210E",
"3  c #3B270F",
"4  c #272016",
"5  c #2D2116",
"6  c #26211C",
"7  c #2C231B",
"8  c #332314",
"9  c #382715",
"0  c #3B2916",
"q  c #33261A",
"w  c #35291D",
"e  c #3B2C1C",
"r  c #262420",
"t  c #2C2621",
"y  c #2D2924",
"u  c #2F2C29",
"i  c #342B23",
"p  c #3B2E22",
"a  c #322E29",
"s  c #382F28",
"d  c #3D3125",
"f  c #36312C",
"g  c #3C332B",
"h  c #3B3632",
"j  c #3E3933",
"k  c #3D3C3B",
"l  c #402C16",
"z  c #412E1A",
"x  c #4A3315",
"c  c #44311D",
"v  c #4A351D",
"b  c #553C1C",
"n  c #433424",
"m  c #493623",
"M  c #4C3925",
"N  c #42362A",
"B  c #45392C",
"V  c #4B3C2B",
"C  c #533D24",
"Z  c #593F21",
"A  c #513F2B",
"S  c #443B33",
"D  c #4A3E32",
"F  c #433E39",
"G  c #4F402F",
"H  c #594227",
"J  c #54412D",
"K  c #5B452D",
"L  c #5F482F",
"P  c #4D4135",
"I  c #46413B",
"U  c #4C433B",
"Y  c #534434",
"T  c #594632",
"R  c #574837",
"E  c #5C4A34",
"W  c #52463A",
"Q  c #54493D",
"!  c #5B4C3B",
"~  c #62492E",
"^  c #694E2E",
"/  c #634D34",
"(  c #614F3B",
")  c #685137",
"_  c #64523D",
"`  c #6A543B",
"'  c #725A3D",
"]  c #474340",
"[  c #4C4741",
"{  c #4E4943",
"}  c #4F4C48",
"|  c #544C43",
" . c #5A4E42",
".. c #524E4A",
"X. c #575047",
"o. c #5D5145",
"O. c #56514C",
"+. c #5C544B",
"@. c #5F584F",
"#. c #555351",
"$. c #595652",
"%. c #5E5953",
"&. c #5F5C5A",
"*. c #635444",
"=. c #695641",
"-. c #675847",
";. c #6B5944",
":. c #62564A",
">. c #64594D",
",. c #6A5C4C",
"<. c #725D44",
"1. c #715F4A",
"2. c #645C53",
"3. c #6A5E52",
"4. c #635E59",
"5. c #6F604D",
"6. c #766147",
"7. c #73614C",
"8. c #7A654C",
"9. c #6C6155",
"0. c #66615A",
"q. c #6C645B",
"w. c #726454",
"e. c #7A6752",
"r. c #776956",
"t. c #7C6A54",
"y. c #71665A",
"u. c #74695D",
"i. c #7B6C5A",
"p. c #676565",
"a. c #6C6661",
"s. c #6E6962",
"d. c #746C63",
"f. c #796E62",
"g. c #736E69",
"h. c #777067",
"j. c #7C7165",
"k. c #76716B",
"l. c #79726B",
"z. c #7C746B",
"x. c #7F786F",
"c. c #7B7671",
"v. c #7E7973",
"b. c #846E53",
"n. c #83725D",
"m. c #887358",
"M. c #827564",
"N. c #887763",
"B. c #877866",
"V. c #8B7A65",
"C. c #82776A",
"Z. c #83796D",
"A. c #8A7C6B",
"S. c #837C72",
"D. c #8A7E72",
"F. c #8F806D",
"G. c #92816D",
"H. c #99866E",
"J. c #878077",
"K. c #8C8174",
"L. c #86817B",
"P. c #8B847B",
"I. c #8B857E",
"U. c #8F887F",
"Y. c #938573",
"T. c #9B8B75",
"R. c #948879",
"E. c #938A7D",
"W. c #9B8D7B",
"Q. c #9E907E",
"!. c #A0907C",
"~. c #8A8681",
"^. c #8E8A84",
"/. c #938C83",
"(. c #988F85",
"). c #9B9185",
"_. c #96928B",
"`. c #9B948B",
"'. c #9B9791",
"]. c #9E9994",
"[. c #A19586",
"{. c #A2998B",
"}. c #A99D8D",
"|. c #A29C94",
" X c #A39F99",
".X c #ACA08F",
"XX c #ABA295",
"oX c #A6A29C",
"OX c #ABA49B",
"+X c #ABA69E",
"@X c #B0A696",
"#X c #B2AA9E",
"$X c #A9A5A1",
"%X c #ACA9A6",
"&X c #B3AEA6",
"*X c #B1AEAA",
"=X c #BCB6AE",
"-X c #BDB9B3",
";X c #BBB8B5",
":X c #C4BEB5",
">X c #C9C6BF",
",X c #CFCCC6",
/* pixels */
"{ %.4.O.....0.z.l.2. .W >.z.I.s...+.9.,.W g Q S s s ..~.^.L.^.4.$.c.~./.l.@.%.4.O.2.J.).`.S.O.4.L._./.I.v.I.oX`.v.q.s.x.I.S.0.{ ",
"f I } I S D W +...S B N W :.4. .P Y ! E V d S B N n D 2.0.2.4.{ U 2.f.q.+.U U +.Q I >.q.u.2.Q q.l.d.0.4.2.q.l.s.@.U { @.0.0.O.| ",
"< i F g e d B d +.d.q.| P Q P D D Y Y Y Q Q S d d p e 8 8 8 7 | [ N P p w g U o.W S W S d N P 2.@.S q t S D d p q 7 r g U U U P ",
"D S U U S U >.| j.{.^.a.+.:.:.W U ..[ | @.2.U g i i s S g < i %.+.f 7 , t F +. .| +.2...I j j j g s g S ..+.| W S h I S P P P | ",
"f.! ,.*.:.u.K.i.,.w.9.>.! Y V B N g a a g D Y Y Y P  .D.j.J V Y Y V n s S U D B B S U @.Q s g j [ o.*.w.K.W.W.Z.0.&.p. .V D +.k.",
"3.E 1.t.M.S.V.e.` K B D B e e e 8 U c.l.O.w B ! _ _ *.A.j.E A m v m m p U  .n e c e y ..! m d j j D _ e.Q.}.T.M.2.#.$.W e s [ 2.",
">.! ,.i.A.E.R.E.Z.o.g B U  . .U S @.P.U.d.| >.f.i.;.;.w.5.! Y :.>.o.Y S U P p w 2.l.0.y.3.u.P.k.0.+.:.C.}.}.M.w.0.&.O.4.k.v.k.+.",
"d.o.>.9.j.E.`.+X_.2.U Q >.q.q.:.o.:.9.u.y.9.j.R.Z.;.;.*._ !  .f.Z.f. .| S 6 6 6 S.|.E.A.u.I.&X`.K.z.3.I.|._.y.>.d.d.%.c.].$X_.4.",
"-.! *.*.*.>.f.l.0.D B V P D S B V V Y Y Y D W u.w.T Y J A V Y 2.d.u.U N d s y y q.Z.>. .R 3.z.y.,.*.*.q.j.i.;.! W I S Q >.3.o.D ",
"!  . .U B | g.0.| I S U +.2.4.@. .Q +.| ..@.2./.(.j.@.| S d U +.z.P.d.@.| s._.].&XoX2.+.2.z.^.2.W Q 2.]._.f.*.*.l.L.g.Q z 0 9 9 ",
"U U S S S  .s.O.I U g U +.3.0.2.o.| O.+.@.2.9.W.).Z.9.0.2.| S U u.S.d.>.2.z.`.|.&X|.%.3.f.K.).q.2.3.9.|._.d.>.u.P./.C.>.Y Y Y P ",
"a s q U  .! Y B B S d U U B V V A M m W Q Y E <.8.7.,.f.z.u.s e m B M M :.0.Y J Y D D *.e.n.n.9.q.u.;.o. .*.,.l.u.*.*.,.,.,.,.>.",
"i i d ..+.W W U { U S 0.2.m m n m M d S S B Y ;.<.*.Y Q u.d.f q n d w n P U d e m V D *.1.i.f.| O.2.P d g P Q  . .! R *.*.,.,.:.",
"_.Z.U.E.P.S.x.S.d.+.,.y.:.d i i  .q.:.Q ! _ ( *.D.).j.,.w.i.>.Q 0.l.0. .P S S U q.k.2.q.u.u.q. .>.9.o.2.k.S.j.3.:.o.Q :.>.u.A.u.",
":XXXXX.XW.S.U.P.u.*.t.7.*.! Y R 3.u.9.*.=.;._ Y z._.Z.,.*.,.,.o.q.l.2.+.D d U O.k.v.2.3.9.3.>.,.i.u.:.9.S./.A.u.3.3.3.9.+.u.).E.",
"=XXX).R.C.d./.l. .R 7.7.w.i.r.M.i.*.;.` / L J B q.P.S.9.! ! o.W P ..4.a.2.U Q %.g.k.9.2.0.q.,.i.N.n.q.3.v.I.j.u.u.u.i.w.U %./.{.",
"q.2.@.3.I.$X%X~.2.| >.3.f.Z.S.`._.z.y.>.Q B D +.oX,X;X|.S.j.d.2...z.&X&X`.C.d.v.L._.+X|. X_.q.j.S./.|./.].oX/.K.P.S.3.o.O.4.q.d.",
"o.u.,.3.Z./.^.d.+.Q { ,.M.R.W.`.E.C.z.U.z.W B ! J.|.(.Z.0.O.O.:.*.u./.P.z.f.l.v.d.s.S.S.S.l.o.>.3.d.S.j.Z.S.f.y.u.9.:.y.d.u.u.f.",
":.j.w.w.w.7.w.,.*. .+.,.i.A.K.Z.j.u.u.P.z.W m C C C J Y d 6 S Y E E K m M ! 2.0.U * 2 M V M M M m B K / E J A J Y T ! 9.j.B.Z.D.",
"! :.,.>.:.3.j.j.i.u.d.2.:.2.0.c.v.q. .U [ U n J :.3.:.:. .| +.Q Q *.:.3.:.W F ..| j 6 p n Y :. .Q Q *.;.*. .P Y Y Y Y +.j.R.E.).",
"q.9.>.>.3.d.^.U./.(.S.y.>.3.S.;X;XS.3.3.3.:.Y >./.oXI.Z.C.C.M.f.z.S.P.oX`.z.f.j.S.l.S w N u._./.Z.j.M.Z.D.S.d.U S U 2./.`.).{.+X",
" .Q W Y W @.l.a.q.d.@.Q Y R 3.^.~.w.=.<.;._ ` *.d.c.q.w.e.t.t.w.3.9.u.S.l.9.,.,.9.>.V c m q./.S.C.A.Y.K.Y.K.j.| Q  .o.j.f.u.f.S.",
"5 8 9 9 e P 2.W 8 = = 2 8 8 p U U M J K C C / R 0.k.0.,._ T T J m m Y 3.3.o.R Y W  . .:.Y f.oXS.f.A.B.M.M.j.9.o.>.,. .o.! Y D B ",
"d N S p n ! u. .e q a i q w N 4.2.B d d S S g S S.].L.y.W U 4.S < w W Z.z.2.:.o.0.j.l.Z.f._.>X|.S.f.>.>.3.3.@.2.u.u.3.9.9.>.o.Y ",
">.y.Z.>.H ' 8./ M W 4.o.R R R  .*.( J n 0.z.S e W @. .W n g.*Xd.* q m R ! J Y 9.Z.E.`.[.XX#X&X#XU.@.P Q o.:.9.u.M.M.u.>.*.*._ ` ",
"*.f.|.f.b ^ ^ b x B U Y T T T J J J A c 2.k.g 2 : = q n w $.~.@.= 8 l v b b J >.S.[.}.}.@XXXE.|.S.S  .:.:.:.+. .:.3.,.W Y Y E L ",
"B 2.].J.w.f.D.E.P.l.v./.E.C.j.y.9.q.3.3.z.S.0.0.2.@.2.:. .| >.:.Q W o.w.M.j.,.3.Z.W.Q.E.E.D.z.).Z. .:.>.+.Q U +.+. . .S N B B P ",
"7 F d.S.P./.OX=X&XXX+X-X&X`.(.S.J.P.l.Z.E.(.S.P.J.z.z.d.q.9.y.f.w.>.u.Z.)._.u.u.j.M.n.w.:.+.d.R.V.w.! W P d S f.d.2.+.U S j g U ",
"e m Y Q Q o.w.u.B.H.N.f.9.o. .U @.9.U D | ..U I U U I U D N D P P D P ! :.:.R ! ( ! E Y J J P 7.;.J m M M m J w.u.r.r.:. .o.o.Q ",
"e 0 2 2 9 0 c Y *.<._ J n e q 5 g I 6 i q q S g i t h j s 7 g Q o.o.Q Q D N V B M m B U Q o.@.! M e n ! *.Q D 9.y.3.3.+.+.o.:.2.",
"p Q d.+.e q p P P B W ..W B V n P ! Y Y V D *.;._ R  .Q W Y P | o.>.>.>. .W *.9.O.S S U U ..:.P d e d o.:.Q N o.+.| U | ..| | o.",
"d 9.`.d.d i d s q i F 0.3.J E J _ 6.<.) E ( <.b.b.6.;.;.;.*.! U S  .w.3.o.*.t.Z.d...U d e p m n n e p W Y n e e e e d S { U p e ",
"p S %.U d B B N N N S l.f.K K K / ` ` / ! *.6.b.8._ ;.*.! R ! q.3.*.i.>. .o.Q U 0.f.! d w p d n m n e d d e q i i w i g 2.2.p e ",
"q.U s s B U ..d.S.P.U.`.E.y.,.:.:.,.w.w.z.E.).j.:.+.Q W Q  .:.S.C.9.f.I.L.z.S.P.k.+.o.U +.>.o.:.3.:.D B Y P S k.d.2.2.d.S.z.q.0.",
"u.U i i g S | d.D.W.{..X[.D.M.q.+.o.3.9.M.E.).w.W ..Q D P Q  .j.f.:.%.L.L.z.K.E.d.Y ,.9.y.u.y.w.w.9.R R ! Y U S.Z.q.s.k.d.d.k.s.",
"V n e q q q s m E 7.V.T.T.Y.G.u.R z v M K ) ) ~ V S o.J v c z M C m g .. .Y T R ! *.7.n.i.w.r.` / ( E ` _ J N @.o.o.%.[ f F $...",
"N B N d q 7 i d Y ;.1.t.n.n.7.>.W e c z 0 e c v :.0.U m e e n c z d U >.| d V Y R ( ;.e.u.9.:.R Y Y R ;.;.R d S P +.4.[ j S F S ",
"3.j.,.,.R i g W S._.i.w.r.<.<._ E K T J m 7 w T 7.i.t.t.>.:.u. .d p g W D p m B M  .f.A.B.M.C.E.K.j.u.j.3.J M T / _ ,.Y 9.q.A C ",
">.f.,.,.o.S B U J.+X`.j.*./ ^ K J K K K c p o.t.b.m.H.Y.A.Z.Y.j...7 7 e e c m z 3 Q z.F.G.Y.R.[.W.M.q.f.:.v M H K / ~ m 9.u.C Z ",
"y f S P Q o.| +.f.).+Xz.Y ! :.! Y Y T R +.0.M.G.V.N.G.Y.Y.Y.Y.K.q.g i q q e m Y W Q ,.r.n.V.V.N.i.,.Q  .W V Y o.R J T Y o.o.V M ",
"U O.q.%.| >.S.`.(.j.Z.q.:.d.(.P.l.d.d.z.'.+XJ.Z.z.f.u.+...+.>.>.q.0.P t , 5 g d.S.d.Q P P U Q >.>.9.j.2...2.l.U.z.,.w.N.M.u.,.o.",
"f F o.! Y ! u.U.S. .7.i.i.f.Z.j.f.u.@.3.z.P.j.M.Z.M.y.| f s g d Q  .N q d S P 9.u.,.W ! E ! +.9...U :.U j U +.d.9.*.,.7.,.*. .Y ",
"+ ; 0 c v m Y u.2.c ` t.b.7.( _ w.9.n e c A ,.i.n.n.i.3.I < , : q e q q N U Y R R Y E _ ` ,.u.d...7 w i i s S | Q Y J Y V n d d ",
", i N p 9 e n >.+.e T ;.;._ A K :.2.d e B ! :.,.,.7.w.0...q q i g B g B D D P ! *.,.9.3.,.w.l.d.2...X.U S S | +.[ g i S g 7 p S ",
"s | q.| n V V Y Y J E 9.2.J m p g g d Y r.B.S.+.B B D W P n B ..o.*._ =.7.7.*.i.B.R.`.).T.!.Q.V.C.K.E.q.S 7 i g N p w d w d Y :.",
"w U 0.U n J T V V Y E | W V m p e n M E ;.w.2.D 8 8 8 e e e n | *.=._ <.t.n.N.G.Y.Y.S.W.!.T.T.Y.Y.E.P.0.j X o : 8 8 < 8 7 s D ! ",
"| +.4...S B J W  .:.o.9.9. .R P V B V A V B D d d D U d w d B @.y.u.3.,.5.t.V.A.A.f.:.M.B.j.M.B.Z.K.E.d.+.+.2.2.o.Q W D D U Q  .",
"0.q.2.@.U d d o.9.9.>.S.S.9.:.Q W P N n d S | S S +.0.U g S U q.l.l.d.>.U | 9.0.9.>.| :. .U  .3.>.l.`.j.u.z.P.S.j.w.9.>.:.:.,.,.",
"B S g g s p m :.*.Y J ! _ / / T !  .d e p d N p e Q q.{ a s B Y P j S  .U p B B B N B B p n T E Y W o.W Y U [ 2.:. .o. .W Y ( ;.",
"i q 5 i B P Y  .W m M J / ` / K *.3.D e w i i 7 q S ..I f 7 q 0 < y ..h.3.9 2 > : : 5 < q n D Y W P p P B g ..S.S.q...W S S W ! ",
"i q 7 p D ! Y D N e m V E _ T E f.S.U d d i g d q.v.[ U ....B B d S 2.l.q.U e 8 p ..s. .Y  .+.U P W B U S S @.v.S.u.| S g S U U ",
"< 5 5 7 N U B e 0 q i p m V B Y z.~.S g S N D P E.|.@.U 4.a.Q Y D U O.@.%.O.n 8 B d._.f.;.w.q.D e M J B g N V B Y T n w w S { D ",
", 4 7 i i i d e 8 w S A J J K A | ..s s d B Y V | ..i 1 a f i w 8 I p.| j g q 8 < j $.Q R :.o.d 9 z m B g g n w n m e 5 5 j ..P ",
"7 w i S o.,.! E A V *.=.,.2.o.| O.$.[ [ S q p w < - , , + X , i 6 a { j i i q w i a s w p N d 7 - < 9 p S I i q 8 7 5 < , t g p ",
"7 w w | 9.t.=._ E T ;.=.+.$.[ I ..#.] I h # @ 7 d N d p q < 5 s t , , 7 7 7 7 7 i d e < = ; < # , , ; 8 S S 7 8 : - # ; - - - ; ",
"- : q | :.( T J J E _ T N a 7 5 , % % , , # $ e B D B p w q q 7 , ; # # ; , ; , q e 8 2 > : ; $ y s 5 5 7 t 6 w 8 < , ; # + # - ",
"X X # t i q d w q D 2.@.O.$.j 7 % @ @ % # # 6 7 7 7 , $ # # $ # @ O # 7 7 , , t f a , , , , , & 7 a i 7 y f j F a q d w < + # O ",
"# - + # # , s N p a I F I I N d q : : , , e V ! G : : ; ; , < # X @ 6 | U < < 7 i y 7 1 < 5 < % , 7 7 < 7 t y a t 7 7 < < < , # ",
"$ ; ; - - , i V m 7 a 6 ; < q w 7 : : , 5 z A ( J : : : , , < # $ 1 a ..U < , < , , 7 , , < , O # # # + # @ @ O - , & u t i j S ",
"# # # # # , , n m s S y ; < < , # + # # < 9 9 q 5 - - - + # $ , 6 y a t & O # , $ @ @ O O O X   . O O X X   O X X # t k u u { O.",
"# # # @ , w p B B N B s t y i w 7 , , < q q - < 8 < : ; + , t 7 < , r , + o # r 1 @ # # @ @ @ O O O @ ; - + # ; ; ; 1 u 6 $ 6 t ",
"- , # @ 6 d N B N N B i t a d d w 5 < 7 q 7 # 5 q 8 5 < - 6 h g i 6 y 1 - # , t r & # # # # $ @ O O # < , - ; < < < 7 y 1 o X X ",
"- , # # 7 i i B m d S i , 7 p i 7 < < < 7 8 5 q q 5 5 < - 6 f g 7 6 t 6 , # , 6 1 % $ # # # # @ O @ # , # # # ; , , 7 t , , y y ",
"@ + # # - - , B M s ] a - < < ; # ; ; # < 0 0 e 8 ; : : ; # # # # $ & 1 , + - , # @ % O @ # O   O # # O O O @ O O @ & 6 % t F F "
};
