/* XPM */
static char *e6f36471fa6145bd9ae42d5bb4bc5178hBohyFma9mHV4Uco[] = {
/* columns rows colors chars-per-pixel */
"50 50 148 2 ",
"   c #3B4A23",
".  c #3C4B22",
"X  c #3C4B24",
"o  c #3C4A26",
"O  c #3E4D24",
"+  c #3F4E25",
"@  c #3E4D26",
"#  c #3F4E27",
"$  c #3E4C28",
"%  c #3F4D29",
"&  c #3F4F28",
"*  c #404F26",
"=  c #404F28",
"-  c #434F29",
";  c #404E2A",
":  c #414F2B",
">  c #434F2B",
",  c #414F2E",
"<  c #415027",
"1  c #405127",
"2  c #425327",
"3  c #405029",
"4  c #415029",
"5  c #425128",
"6  c #415228",
"7  c #435229",
"8  c #425329",
"9  c #41512A",
"0  c #42512A",
"q  c #42522B",
"w  c #43522B",
"e  c #44502A",
"r  c #45512B",
"t  c #44532A",
"y  c #46522A",
"u  c #47532B",
"i  c #435428",
"p  c #43542A",
"a  c #455429",
"s  c #455629",
"d  c #45542B",
"f  c #44552B",
"g  c #45562A",
"h  c #47562B",
"j  c #46572B",
"k  c #42502C",
"l  c #43512D",
"z  c #43532C",
"x  c #43512E",
"c  c #42502F",
"v  c #44532C",
"b  c #46522C",
"n  c #47532D",
"m  c #44522E",
"M  c #44522F",
"N  c #45532F",
"B  c #44542D",
"V  c #45542D",
"C  c #46552C",
"Z  c #45562C",
"A  c #47562D",
"S  c #46572D",
"D  c #45552E",
"F  c #46552E",
"G  c #46562F",
"H  c #47562F",
"J  c #48542C",
"K  c #49552D",
"L  c #48572C",
"P  c #48542E",
"I  c #49552F",
"U  c #48572E",
"Y  c #4A562E",
"T  c #47582B",
"R  c #47582E",
"E  c #4B582A",
"W  c #4B582C",
"Q  c #49582F",
"!  c #48592F",
"~  c #495A2E",
"^  c #4A5B2E",
"/  c #4B5A2F",
"(  c #4A5B2F",
")  c #4C592D",
"_  c #4D5A2C",
"`  c #455330",
"'  c #465430",
"]  c #465431",
"[  c #475531",
"{  c #475730",
"}  c #475532",
"|  c #485730",
" . c #4A5630",
".. c #4B5731",
"X. c #485632",
"o. c #485633",
"O. c #495733",
"+. c #485635",
"@. c #485831",
"#. c #495831",
"$. c #4A5930",
"%. c #495A30",
"&. c #4B5A31",
"*. c #4A5B31",
"=. c #495932",
"-. c #4A5932",
";. c #4A5A33",
":. c #4B5A33",
">. c #4C5830",
",. c #4D5931",
"<. c #4C5B30",
"1. c #4C5832",
"2. c #4D5933",
"3. c #4C5B32",
"4. c #4E5A32",
"5. c #4B5C30",
"6. c #4B5C32",
"7. c #4D5C31",
"8. c #4C5D31",
"9. c #4D5C33",
"0. c #4C5D33",
"q. c #4E5F33",
"w. c #4A5834",
"e. c #4A5835",
"r. c #4B5935",
"t. c #4B5B34",
"y. c #4C5B34",
"u. c #4E5A34",
"i. c #4C5A36",
"p. c #4D5B37",
"a. c #4E5A36",
"s. c #4C5C35",
"d. c #4D5C35",
"f. c #4E5D34",
"g. c #4F5E35",
"h. c #4E5D36",
"j. c #4F5E37",
"k. c #4E5C38",
"l. c #4F5D39",
"z. c #4F5F38",
"x. c #505C34",
"c. c #515D37",
"v. c #505F38",
"b. c #525E38",
"n. c #516037",
"m. c #516039",
"M. c #51613A",
"N. c #53623B",
/* pixels */
"S 0.3.%.%.u z %.' S S X.X.S z ' t.:.w.v % w S U v v 3.:.X.U X.w f u S 3.. u :.v X.v.3.X.X.u %.X.> z ",
"! 0.3.! %.u w X.u X.X.S S S =.z.%.%.' ' S z v X.v v X.:.X.3.%.v ! u f %.* U :.S X.%.%.x.:.S X.%.` ` ",
"S S U U U v v X.v X.X.S v U ' %.U X.S %.h.S % S X.X.X.%.U X.%.X.R S P U u U S v X.v X.v.v.X.X.:.+.+.",
"f S S S U S S ! :.%.U v X.X.S > ' S S X.h.' w S %.:.%.U U U X.v u J U ! S S v X.%.U v :.%.U X.%.S ` ",
"3.! U ! X.S P P  . .> v %.X.z S U U S u %.U u u ! U S w S U v u 5 U U 3.! h.3.v.X.%.X.u w ! X.U > v ",
"! S U U U v P P  .b > w v z v h.u U U S u U U u u S u u U U S U U ! U / 3.x.X.:.S X.X.w v %.' v X.X.",
"v w S X.v P  . . . .S ` v v v X.w u %.%.w S %.f f U S u ! ! u S U X.U U f 3.X.S P S :.X.' X.u S +.:.",
"S u X.:.v v  . .2.:.:.%.:.:.S u w 2 3.x.u S 3.U U 3.U u 3.S w u 2 U U U u U 3.X.:.v :.:.%.X.# S X.X.",
":.X.S S x. . .2.P x. . .S S w.X.3.%.u u U X.3.S * U X.U U f 2 u f 3.U * 0.3.%.U w > X.S u X.U X.X.%.",
"v ' X.v  . . .u. .2. .2.X.S %.X.3.%.S ! 3.%.%.u f U U %.x.3.S U J U u # 3.3.X.U S S X.v * X.S X.U X.",
"w U U v P  .I P  . .P  .U u U / U U 5 J / U 3.%.U u 2 S 3.! u S f f * u ! 3.U U v S X.v w S U v v v ",
"%.X.v v  . . .>  . .P  .U u S f S u * * U 3.3.U U u w 2 S u u v u f w U 3.3.v X.v X.%.X.v S X.v v v ",
"v.X.> ' 3. .u.b  .2.) I u J w * u %.S ` X.:.:.w %.h.' u w v v X.U ! U 3.U X.v S X.3.:.X.X.U %.U X.X.",
":.v > %.U P x.x.>  .x.I J ! U U v w.X.v S X.h.v %.h.w.v w S X.%.3.3.U U u S v z 3.:.3.%.v v :.X.S U ",
"X.%.P  .v > b.x.P P  .P J ) X.h.X.%.u w w u %.X.X.%.X.v U X.S v %.X.S u u f ' w U h.X.%.S v %.J U U ",
"3.:. . .> > b.P  .P x.I P u u %.%.' v %.S > v v %.X.v v 3.:.v v S u U f 3.%.%.> u X.X.:.X.S 3.5 U X.",
"X.X.> v ` ` :.X.w.z v X.X.X.+.` o ` :.+.> > z z :.z.:.v u u %.%.S v X.w.' S %.k.U u * f 0.3.U 5 / / ",
"+.` % v  . .:.+.+.> ` ' v v X.%.X.X.X.X.z > z v X.w.h.X.S S X.X.X.+. .> w ' :.:.v U U %.U u u ! E E ",
":.+.v +.+.' +.X.v o % ` ` v ' X.k.' v S u w v X.%.X.U v U 3.3.X.+.'  .v w S X.S X.X.U U U U f U u u ",
":.X.+.k.+.` v ` +.> > +.k.2.+.' X. .v X.X.v U %.v S S v v X.%.3.k.`  .X.v z v v ! S u P ! ! J f %.%.",
"U ` X.3.S > % v %.S w ' :.%.X.%.w v X.%.U v v X.o v X.%.S v  .} :.+.X.X.v v S X.u X.3.3.U u u ! v U ",
"v v X.S v v S %.' X.X.S v > u w.v X.:.%.v v S X.v v S ' X.%.X.+.` X.:.+.v %.3.v w %.x.3.! w w f X.U ",
"' S X.u z X.X.%.X.:.h.%.U z v :.U U U U X.U S 3.h.X.> c +.:.+.X.v X.3.X.X.h.:.> S X.! ! 3.! u u ( ( ",
"%.' %.u v %.u * > %.3.X.' v z S h.S u ! :.X.v X.w S }  .v > v X.:.S v U %.X.X.v ' %.U 3.x.0.U f ( ! ",
"' h.X.:.%.v X.w :.> S :.X.X.S u u f X.%.v X.%.v u w X.X.+.` v ` v :.S X.U v :.S # v X.S 3.3.# S / E ",
"X.:.S X.X.v %.S :.S :.%.v S X.3.U 0.x.S w w.:.> z z X.:.:.:.2.+.v 3.v :.X.v :.%.%.u w > f U . # t.%.",
"S X.u v v v v.X.> v %.X.v X.U X.U S S X.S X.%.S ' X.S X.%.w.`  .:.h.v U w > v.N.v.X.v v X.3.U u %.} ",
"S v w S > S v.3.v v v v X.3.X.S X.v u X.:.%.U X.:.%.v v z ' > ` X.U X.:.U v %.w.S u v U X.%.%.X.` > ",
"X.S S ' S X.:.X.z.X.f v X.:.S ' X.X.%.U X.3.U w %.X.v v v %.X.S v v ` X.X.v v > % w w S v X.X.X.+.} ",
"v X.v S X.S P S h.S S v v v z S X.X.v v X.' z w U X.v U X.3.X.v :.v S v u S X.U ' %.v ' :.:.0.X.` ` ",
"v X.S u %.X.u v ' w X.U v S ' v  .` v ` X.v v %.X.U X.v U U %.v S S :.%.%.w.X.v :.v.S v :. .X.U :.+.",
"! x.X.v :.:.S w.x.U X.v w X.w.v } k.2.` ` 2.X.:.X.S S * u U 3.U U X.:.X.X.%.:.:.S :.S X.:.U %.X.x.3.",
"0.q.^ 2 s %.v X.0.X.v w X.x.x. .z +.z +.z k.' +.:.w.> # w =.w.h.S U X.U X.v w X.S v f S S R S f X.U ",
"f E ! 2 w S S X.U ! v u f ! ) u > ` } w.+.+.` > > +.z w w w %.h.P > w > S X.w U v v f U ! U f f %.%.",
"s T 8.R w u w u v S X.S v S U X.> % ` ` :.v ` > v w.S S u > v v v z * * v X.w > S U U U ! ! R f X.X.",
"R s 8.h.S w S X.X.S v X.X.U U h.` > v v :.` +.2.w ' v v X.S X.3.X.v v v %.%.z u X.X.U U ! R ! ! `  .",
"s & f ! U X.k.:.w.' v S U U v S v > ` X.} ` > > # U X.S S v %.v.v v %.w.%.:.X.%.U X.U U S U S ! v v ",
"f s w f v v :.:.X.` v X.%.X.v > ` +.' +.` } z > %.w.v z S > X.:.3.X.h.:.U X.X.%.S U U U f u f ! v v ",
"=.t.f w v > v ` ' ` ` ` ' v v v +.c.k.+.' z.z.:.X.S * u X.X.3.%.3.S X.%.v v v X.v X.U f u w S U X.X.",
"z w.z w v S :.k.X.X.v z > > v S v :.k.` v +.:.v S X.S X.X.v X.3.X.# u ' v S v v %.X.S w 2 u U 3.+.X.",
"X.+.+. .' v z S u S X.S v S U v z ' w.X.S X.%.3.X.  :.:.X.:.X.U v o % U 3.%.:.:.v X.S > 2 U u * X.` ",
"v :.w.v S :.:.%.:.' S %.X.X.w > ' ' X.S U %.X.U U > :.%.! x.X.U v.S S 3.X.X.:.:.w u U %.%.U U U ` ` ",
"X.` ` +.X.v S w.h.S w ' %.X.z w S w u S X.U X.X.%.X.h.S ! x.3.! v.:.X.%.X.X.3.:.S v v U U u S 3.w.:.",
"+.v v w.U w & u U u w S :.%.' S > > z X.U X.S %.w.%.:.U %.h.U 3.k.%.X.U U U X.%.w S U u u v U 3.v > ",
" .X.:.X.w ! 0.u u f S R :.8.S % v u z X.X.U S S v X.! ! :.3.u ! S S ' ' S X.%.X.v S f U S ! U U v S ",
"+.X.X.U u U 3.U ! X.S s %.h.%.z 0.X.z S %.X.v % > S U 3.x.%.w f ` ' =.=.X.%.%.v :.U u U U U u u ! X.",
":.> u ' 5 2 J J / ! s & s R %.S :.X.' v X.%.S v u U J U %.3.S w ' =.S f S ' %.w k.X.f 2 u f f u 3.w.",
"X.> S %.f J ( U f J =.%.S w z f U X.%.S u X.w.%.h.0.u * u X.3.v =.' f % % S X.> w U f & u h.0.u ' S ",
"u U f u %.%.%.v.` :.X.' X.S  .X.S U 3.X.v > > ' h.S w w S ` c ` =.z > ` ' ' ! S U U U u f ! ! f ! ! ",
"/ 3.! J X.U v +. .k.X.v X.v X.X.f 3.X.U v > z ' w.' % # ` v ` ' ' ` z ` S z v S U 3.U U f S S S %.%."
};
