/* XPM */
static char *_ce60ea992804a4fdf7a9e70bf22e53fIKAau7WqLgRb8HIz[] = {
/* columns rows colors chars-per-pixel */
"50 50 122 2 ",
"   c black",
".  c #23090B",
"X  c #343537",
"o  c #26272A",
"O  c #0C0C0C",
"+  c #121214",
"@  c #100404",
"#  c #030102",
"$  c #060505",
"%  c #0B0304",
"&  c #484749",
"*  c #6F1113",
"=  c #3A3B3E",
"-  c #1F1E1F",
";  c #7C1215",
":  c #140607",
">  c #290D0E",
",  c #300B0D",
"<  c #3A1215",
"1  c #110E0D",
"2  c #535153",
"3  c #671214",
"4  c #7D6364",
"5  c #8C1F23",
"6  c #090909",
"7  c #441013",
"8  c #4C0C0F",
"9  c #1B100D",
"0  c #444345",
"q  c #1A1D1F",
"w  c #171718",
"e  c #9D9694",
"r  c #881417",
"t  c #550D10",
"y  c #961A1C",
"u  c #7B282A",
"i  c #414041",
"p  c #631214",
"a  c #631F23",
"s  c #6E1F23",
"d  c #591B1D",
"f  c #780D0D",
"g  c #656466",
"h  c #765252",
"j  c #A2191A",
"k  c #998D8C",
"l  c #8E2A2E",
"z  c #1D0708",
"x  c #3A0B0E",
"c  c #561315",
"v  c #420B0D",
"b  c #911416",
"n  c #5D0709",
"m  c #2D2E2F",
"M  c #4A4A4E",
"N  c #8A7D7C",
"B  c #A42224",
"V  c #832226",
"C  c #992C30",
"Z  c #8D181A",
"A  c #4A181B",
"S  c #5A585A",
"D  c #1F2225",
"F  c #42181A",
"G  c #6D0809",
"H  c #78181C",
"J  c #423537",
"K  c #6E181B",
"L  c #8E0F0F",
"P  c #B87D57",
"I  c #291916",
"U  c #A39B98",
"Y  c #5E1317",
"T  c #623E36",
"R  c #716D6E",
"E  c #928D8D",
"W  c #8E7373",
"Q  c #A23334",
"!  c #880707",
"~  c #827B7A",
"^  c #9A2022",
"/  c #8E8381",
"(  c #8E6964",
")  c #0D0607",
"_  c #810708",
"`  c #933537",
"'  c #9C1110",
"]  c #885C41",
"[  c #82563B",
"{  c #956649",
"}  c #422628",
"|  c #60302F",
" . c #AAA19D",
".. c #7C3335",
"X. c #6E6364",
"o. c #7B595A",
"O. c #B83030",
"+. c #884544",
"@. c #9B7472",
"#. c #4F4D4E",
"$. c #31221F",
"%. c #372C30",
"&. c #554446",
"*. c #848286",
"=. c #753F43",
"-. c #755A59",
";. c #ACA9A7",
":. c #605157",
">. c #A28582",
",. c #7B4B4C",
"<. c #955555",
"1. c #B02728",
"2. c #63494B",
"3. c #714D38",
"4. c #AC6E4A",
"5. c #46383B",
"6. c #95837F",
"7. c #5C2C2E",
"8. c #A2514C",
"9. c #A65656",
"0. c #997F7D",
"q. c #23352A",
/* pixels */
"                                                                                                    ",
"                                                  # % % % % # # #                                   ",
"                                                  9 * f f * n 8 >                                   ",
"                                                  ) p _ ! _ G t >                                   ",
"                                                    > f Z f n < $                                   ",
"                                                  # 7 ' j L G x #                                   ",
"                                                    . f ' _ n ,                                     ",
"                                          $ O O 1 + w a y ; 7 O O 1 1 + O                           ",
"                      # @ @ #             O i J & & = J } J %.q q m D 0 +                           ",
"                  : c ; r 5 u 7 %         # D 2 g g o + O q m D = 2 i X                             ",
"                , l 5 * t d H y * :         # X 2 S 2 = = X i & #.& = 6                             ",
"              z b V , $     % v b K :           # # # $ X = + #                                     ",
"              p L >             < l 2.w               # q w $                                       ",
"            : Z n #             $ $.4 { $.              & S $                                       ",
"            . C v                 $ 3.P { I           $ #.& +                                       ",
"            . l <                   9 ] P { I         - S & o $                                     ",
"            z r <                     9 [ P ] 9       m & X o O                                     ",
"            @ ; t                       9 [ P ] 1     w 2 & X #                                     ",
"            # 3 * %                       1 [ 4.T w   6 X D w                                       ",
"              F l >                         9 T -.i 6 $ o + +   $ 6                                 ",
"              : V a #                         w = o - $ X = + 1 0 X                                 ",
"                8 r .                           + m = - R *.- X M o                                 ",
"                : ; t #                           O 0 2 g M X 2 o $                                 ",
"                # A 5 >                             w & R S - o 6                                   ",
"                  : u s %                           - 0 M M D m $                                   ",
"                    x r x                           6 M i o m m                                     ",
"                    % 3 ; :                         - 0 g g q X +                                   ",
"                      . l d #                     # J &.:.:.%.5.-                                   ",
"                        A 5 ,                     # } | | a } A 9                                   ",
"                        ) * ; z                     . v s ..7 7 %                                   ",
"                          . 5 K @                   > 8 ,.g 7.x %                                   ",
"                          # < ` a %                 > s +.h ..t %                                   ",
"                              7 y p %               z r G A ' 3 #                                   ",
"                              # 7 y 3 @             # 3 n , L ,                                     ",
"                                  F C s :           # p 3 < ! .                                     ",
"                                    < y ; z         ) f * d ! v                                     ",
"                                      , Z r , #     I L * A ! 3 $                                   ",
"                                        . u C c @   T 9.<.T ` +.I                                   ",
"                                          ) c b ; F o.0.N X.k k 2 #                                 ",
"                                              > * <.W ( / R E e *.w                                 ",
"                                                w N 6.( N ~ E E E 0                                 ",
"                                                i e e k / R 4 4 N X.+                               ",
"                                              O ~ e U e / X.4 h h 4 &.:                             ",
"                                      ) - #   i k U  .U k ~ / o.=.4 W u 8 @                         ",
"                                    1 h ( O - ~ N e ;.;.U e k W h o.4 =.Z p : #                     ",
"                                  # | 8.+.d ,.@.@.@.>.U  .>.( W 4 -.h ..y * c 7 #                   ",
"                                  # u O.1.O.O.B B ^ Q Q ` u K s K H 5 ^ V c H H :                   ",
"                                    . d 3 5 C j j 1.Q B j ^ Q B j j B ^ b Z V 8 $                   ",
"                                          @ . < 8 t Y Y Y Y a s 3 p d a 8 x . #                     ",
"                                                      # #   # # # #   #                             "
};
