/* XPM */
static char *_7fb1b81e52a4dfbbbac972c9b103c38KDhdLOdoWBxCxGbr[] = {
/* columns rows colors chars-per-pixel */
"50 50 256 2 ",
"   c black",
".  c #140B0F",
"X  c #FEFFFD",
"o  c #96867D",
"O  c #110609",
"+  c #977F7C",
"@  c #9A827B",
"#  c #0C0508",
"$  c #0E070B",
"%  c #DBD5D4",
"&  c #F9FFFC",
"*  c #9B837F",
"=  c #9B857E",
"-  c #635252",
";  c #A9988F",
":  c #6B5C5D",
">  c #917778",
",  c #A8968C",
"<  c #FDFEFB",
"1  c #8B7975",
"2  c #6E6460",
"3  c #5A4A49",
"4  c #9C8A80",
"5  c #E3DCDB",
"6  c #090506",
"7  c #CFC1B3",
"8  c #907B7A",
"9  c #221517",
"0  c #756363",
"q  c #786768",
"w  c #A08E86",
"e  c #8E7676",
"r  c #C1B1A9",
"t  c #998B8A",
"y  c #908181",
"u  c #675857",
"i  c #A18D82",
"p  c #7C706A",
"a  c #37272B",
"s  c #2F2225",
"d  c #45322D",
"f  c #A58C8C",
"g  c #847072",
"h  c #3A2E33",
"j  c #E94E3C",
"k  c #816D6E",
"l  c #7D7378",
"z  c #948379",
"x  c #957E77",
"c  c #DED9D7",
"v  c #B5A8A6",
"b  c #B9AA9E",
"n  c #837367",
"m  c #8E7C6F",
"M  c #A0908A",
"N  c #5A5257",
"B  c #AEA5A3",
"V  c #806F62",
"C  c #766154",
"Z  c #7B6F72",
"A  c #DF4635",
"S  c #1A1115",
"D  c #493736",
"F  c #554442",
"G  c #451920",
"H  c #605043",
"J  c #5A4A3D",
"K  c #87776A",
"L  c #736559",
"P  c #897276",
"I  c #9F8681",
"U  c #7D7A7B",
"Y  c #A79FA1",
"T  c #C7BDBE",
"R  c #958886",
"E  c #8B8284",
"W  c #CDD0C1",
"Q  c #4E4349",
"!  c #463C41",
"~  c #756E67",
"^  c #6C6869",
"/  c #503D3B",
"(  c #7D6967",
")  c #B5A79C",
"_  c #857670",
"`  c #665849",
"'  c #A09999",
"]  c #1D0C0B",
"[  c #2D1D20",
"{  c #A8A9A4",
"}  c #574637",
"|  c #A89390",
" . c #5D595C",
".. c #D5D0D0",
"X. c #524142",
"o. c #D3CCCB",
"O. c #503E30",
"+. c #554B51",
"@. c #BEB3B1",
"#. c #C1BAB7",
"$. c #8D8176",
"%. c #6B5A4B",
"&. c #BFADA0",
"*. c #7A7D83",
"=. c #A4938C",
"-. c #E8E2E5",
";. c #BDB9B5",
":. c #9C8A91",
">. c #8C8987",
",. c #C1C6BF",
"<. c #B8B4B1",
"1. c #AFB2B7",
"2. c #9F7684",
"3. c #A09F9E",
"4. c #B7BBB6",
"5. c #CACBBB",
"6. c #DCCDC1",
"7. c #BCAEAA",
"8. c #87797C",
"9. c #A89C95",
"0. c #6E5F52",
"q. c #73686B",
"w. c #4F262D",
"e. c #C7B9B8",
"r. c #D568AE",
"t. c #AD9E91",
"y. c #D1C0BD",
"u. c #A0948F",
"i. c #B2A497",
"p. c #897E7C",
"a. c #CABDB0",
"s. c #D6C8C1",
"d. c #999995",
"f. c #7E6560",
"g. c #8F949A",
"h. c #645960",
"j. c #8D6277",
"k. c #707170",
"l. c #AC9394",
"z. c #41363A",
"x. c #A49185",
"c. c #656A72",
"v. c #CD4334",
"b. c #6C5653",
"n. c #73767B",
"m. c #9E8487",
"M. c #AFA9AB",
"N. c #786B5F",
"B. c #EFEFEF",
"V. c #C2BBAD",
"C. c #C1C3B4",
"Z. c #ACB0A6",
"A. c #878D92",
"S. c #B14A3E",
"D. c #581B26",
"F. c #CD3E8E",
"G. c #E67A6D",
"H. c #48363C",
"J. c #211920",
"K. c #E27265",
"L. c #AD9F9D",
"P. c #4C3B3D",
"I. c #564647",
"U. c #C5B4AD",
"Y. c #B8AEAD",
"T. c #4F474D",
"R. c #5F2F3B",
"E. c #A19085",
"W. c #C8B9AC",
"Q. c #D0C6C4",
"!. c #524233",
"~. c #C0BDBC",
"^. c #8F726F",
"/. c #93918F",
"(. c #A1A6AD",
"). c #82475E",
"_. c #979CA2",
"`. c #A3A69D",
"'. c #B28B9F",
"]. c #E7EBEC",
"[. c #BC5855",
"{. c #D848A2",
"}. c #CA9A93",
"|. c #E59C91",
" X c #DE7392",
".X c #876860",
"XX c #E85B4B",
"oX c #F9F9F8",
"OX c #624B4F",
"+X c #6C7179",
"@X c #CBC3C2",
"#X c #886E6C",
"$X c #704B50",
"%X c #A5968C",
"&X c #B6A09F",
"*X c #808486",
"=X c #606267",
"-X c #B2B5AE",
";X c #AE6B66",
":X c #9A786E",
">X c #D3508D",
",X c #D86659",
"<X c #9C6A64",
"1X c #D58B7E",
"2X c #DD73B9",
"3X c #D54C3D",
"4X c #E5695B",
"5X c #C3918A",
"6X c #311013",
"7X c #B3989A",
"8X c #DCDDE0",
"9X c #6E3A41",
"0X c #B9B4A5",
"qX c #C895A3",
"wX c #848790",
"eX c #6F5660",
"rX c #8A4E46",
"tX c #994E46",
"yX c #895C53",
"uX c #C5728F",
"iX c #DD609B",
"pX c #B98988",
"aX c #B3757A",
"sX c #C2C3CB",
"dX c #CBCCD1",
"fX c #A4878B",
"gX c #D2A69C",
"hX c #AA607D",
"jX c #AD4E74",
"kX c #D3B59F",
"lX c #D4736E",
"zX c #C34D7D",
"xX c #BA5E85",
"cX c #B89A66",
"vX c #DD5141",
"bX c #DD89A7",
"nX c #9F7A7A",
"mX c #D84E9A",
"MX c #7B5970",
"NX c #AA7975",
"BX c #BCA1AE",
"VX c #C97567",
"CX c #A4594C",
"ZX c #C1619B",
"AX c #DB81BD",
"SX c #D4647A",
"DX c #E0A974",
"FX c #D971AB",
"GX c #EACADE",
"HX c #E1A5C8",
"JX c #CCA8B4",
"KX c #C5A79A",
"LX c #BD8B7C",
"PX c #984768",
"IX c #E09C61",
"UX c #14FF7D",
/* pixels */
"      V.0XZ.Z.Z.{ d.k.*.8X].B.B.B.T 5X5XpX}.&XB =.5XpX5X5X; R p N.o 0XV.6.s.V.5.a.0Xi.7 a.b n n     ",
"      C.V.C.,.,.-X`.k.wX].-.GX-.GX}.K.4X4XG.NXE <XK.4X4XK.NX'.m.2.nX_ u.s.6.V.kXkXKX}.7 W.) n N.    ",
"      C.`.d.`.4.-X{ k.A.].HX2X2XbX1X3Xj j 3X.X^ b.v.j j 3XaX2Xr.FX|.#X^ y Z.}.G.K.K.G.gXV.i.n L     ",
"      0X9.`.Z.4.<.Y ^ A.].HX XmXmXuXNXv.A tX=X+.T.9Xv.A yXP  XiX{.>XP ~ 2 2 :X3Xj j vXgXV.i.n L     ",
"      5.5.W W 5.}.1X;X1X6.5 DX>XF.'.3.<XtX^  .j.MXMX[.rX .^ cXSXF.zXaX1X.X: ~ CXA A VXy.W.) K L     ",
"      W W W W W.,XXXXXXX|.4.y xX'.1.3.*Xk.=XMX2Xr.FX|.0  . .2 PX[.XXXXXX<X2 2 ~ CX[.&.6.a.) K 0.    ",
"      W W 5.C.5.VXA j vXf *XA.1.1.g.>.nX:X.XaX XiX{.zXh.N  . .2 S.A j v.f.~ 2.2.2.qX&.6.a.) K %.    ",
"      ,.W 5.5.5.0X[.v.aX_.A._.(.g.n.q ,X4X,XG.IXSXF.).j.j.j.2.Z ( S.v.yX~ k r.r.r.|.}.6.7 b K %.    ",
"      ,.W -XC.5.4.M yX_.(.g.:.wXE Z h.S.j j A rX).).eXr.r.r.|.nXU .XyXp ~ ( uX X{.>XqX6.7 b n `     ",
"      -XZ.{ C.,.-X/.k.d.`.'.AXZXbXLXh.$Xv.A S. .N N eXuX X{.>X2.p.$.$._ p N.cXlXF.jXi.6.7 &.V H     ",
"      ,.4.{ 4.e.BX:.m.' 3.uXiX{.iXxX: : rXtXf.^.f.#X^.cXlXF.xXR 4 4 R o m :X.X;XjXC t.6.7 b V H     ",
"      ,.,.{ T AX2Xr.|.gX1.t.DX>XF.j.~ p Z Z <XG.,XK.G.:XhXhXf u.=.M M M ;XG.,XK.lXC %Xs.7 ) V H     ",
"      -X' *XM.bX X{.mXqX1.3.pXzXhXp.p.p.y y <X3Xj j vXI u.=.; ; , =.M w ;XA j j v.%.$.a.7 i.N.J     ",
"      3.{ 4.<.kX1XF.ZX@.<.M.Y fXt t t t t t 4 [.A A ;X%X; ; ; ; , , x.i @ S.A A rX` N.&.7 t.L J     ",
"      /.3.;.~.;.pXjX:.{ <.<.B 9.u.u.M M w w M I S.[.w %X%X| ; ; , , x.i 4 :XS.tX` ` L b 7 t.L J     ",
"      ' U >.~.4.M.>.>.3.;.#.Y.L.9.| =.M w w w w 4 i E.=.%X, ; ; , , x.i 4 z K L %.` 0.b 7 t.C J     ",
"      Y p.2 { 4.{ >.U /.;.#.@.) 9.=.M w w w w i i i E.%X; ; ; ; , x.i i 4 o m V %.H ` t.7 ; C J     ",
"      v u.Z Z.4.`.U k.d.#.#.7.) ; w w w w w w i i x., i.&.r b t.; x.i 4 = o z m 0.!.!.z 7 %X0.J     ",
"      e.e.@.#.{ >.k.^ d.;.Y.B 9.; =.%X, , ; , , ; t.b U.a.r ) t., E.4 4 o o z z V O.d m 7 E.` J     ",
"      e.Y.#.#.d.U q.^ >.M.Y.7.r r U.U.U.r 7.b b b &.r U.r b i.; 4 o z o o o o o _ } d K a.4 ` }     ",
"      e.@.@.;.' U ^ : l Y B v r 7 s.s.s.y.e.r r r r 7.) &XL.t n L b.b.L V z o o m J d n W.4 H }     ",
"      v B B B ' E q.q.Z ' v @.e.y.y.e.e.@.7.7.7.v ) L.9.9.t ( - 3 F / / J p z o $.H d n W.4 H }     ",
"      5 ..o.o.....3.' l ' t R M v 7.v B L.L.v B u.u.u.t y q 3 / D / F H H 0._ $.z ` O.K r z } }     ",
"      < < < < < < 5 % /./.~ u u 0 8.t t t :.' ' y y p.q - F D d D F : 0 N.L p $.z 0.!.m &.m !.}     ",
"      < < < < < < oXoX~.E u F X.3 - : 0 Z 8.E t 8.p u / d d d / 3 u 0 ( p p _ $.z N.} m &.m O.}     ",
"      < < < < < < < X c >.2 - I.F X.P.P.I.2 Z E E ~ u F / D D / 3 - - 2 p _ $.z o K H m &.m O.J     ",
"      < & & < < < < X -./.~ 2 : - 3 X.P.P.I.: p.y p : 3 F 3 / d : : 3 u p 1 o 4 4 m %.K i.K O.H     ",
"      & & & & & < < X ].d.Z 2 u - X.D D P.X.: y t g : I.X.- u - ( 0 2 ( g 8 = 4 i x %.V x.V O.`     ",
"      & & & & & & < oX-.3.p.q - u 3 d D / X.u R L.p.2 - 3 OX: q k k g 1 8 + * 4 i @ C C @ V O.%.    ",
"      & & & & < & oX].8XY E 8.0 : : - - - OX0 t v t k 0 0 0 ( _ 1 8 + + * * * I I @ C C x V O.%.    ",
"      & & & oXoXB.-.8X% Y y y 1 k q q ( q 0 k f &Xf 8 e 1 1 8 8 + + * * * * * I I x C C z n !.0.    ",
"      & < < B.-.8X% ..dXY >.R y 1 1 1 e P g P f &Xf * + + + + + + @ @ * * * @ = = x f.f.E.K !.C     ",
"      X < B...dXdXsXsXsX{ E R y 8 1 e e e e 8 | 7Xf I @ @ @ + + + @ @ * * * @ @ @ x n = W.E.J 0.    ",
"      X B.@X~.4.1.1.1.1.(.8.y y 8 1 1 e > > + l.7Xl.fX* + + + + + @ = = = = = @ + x 1 4 a.7 o ~     ",
"      -.T BXY.M.(.(.(.(._.l 8.8 e e e > > 8 + l.7Xl.f I x #X#X^.x @ * = = = = @ x 8 1 $.9.y.@X;.    ",
"      JX'.'.Y d.g.g._._.g.U l P P P e > > > + | 7Xl.f I e f.f.( ^.x * = = = = @ x 8 1 _ 1 v Q.o.    ",
"      qX2.2.R *X*.A.g.g.wXU l l g g P e > > > fXl.l.f I > f.b.b.C n 8 o * * @ + 8 1 _ q 2 R ~.,.    ",
"      2.j.j.8.n.n.A.wX*X*.n.l l g g g P e e > m.f | f m.^.b.O.d d F L _ 8 8 x 8 1 _ p : - 0 Y ~.    ",
"      j.).$Xq k.n.A.*.n.+X+XU l Z k k g k ( ( e * m.m.#Xd 6X] ] ] 9 a 3 0 k k g k p 2 3 3 OXg v     ",
"      ).9XR.eX^ *.*X+X+Xc.c.*.U q.q q 0 - F I.u g 8 g D ] O O # # O ] s X.- 0 q q q 3 D D / $X>     ",
"      9XR.R.b.q.*X+Xc.c.=Xc.*.n.: : eXOXH.a [ [ a a s ] O O # 6 6 6 # . [ z.3 u 2 u h s a w.9X).    ",
"      R.w.w.$Xq l h.=Xc.=Xc.*.^ +.I.X.H.a 9 ] O O O O O # 6 # # 6 6 6 # . 9 a P.3 I.s [ s G D.R.    ",
"      w.G w.R.OXOX+.h.h.N ^ U h.z.h h s 9 . O $ # # # # 6 6 6 6 6 6 6 # $ . S s h a 9 9 [ G D.D.    ",
"    6 G G G w.eX* :.:.8.q.Z l N h s J.S . O $ $ # # # $ $ O # 6 # # # $ $ $ . S 9 9 S S 9 6XG D.    ",
"      G w.$XfXy.% 5 5 % o.T M.l Q a 9 S $ $ $ $ # # O 9 [ [ 9 . $ # # $ $ $ $ . . . . . ] 6XG D.    ",
"      > &Xy.s.Q.Q.o.% 5 5 5 5 % T Y R q.z.. $ $ # O 9 h ! ! z.a [ J.S . $ $ $ O O O O O ] 6XG D.    ",
"      s.y.@.v B B B <.@Xo.o...c 5 -.-.5 T q.S # # . s H.Q T.T.Q ! z.h s S $ $ $ # $ $ $ . 9 G w.    ",
"      @.e.Q.Q.@X~.<.<.;.#.T o.% c c 5 % ..Y.! $ O 9 a H.Q T.+.+.+.+.Q ! a S $ $ $ $ $ $ . s h H.    ",
"      e...5 5 c c c c c % % c c c c % o.T Y.Z J.9 s h ! Q +.N N N N N +.! s S $ $ $ $ . J.h ! Q     ",
"      Q.o.% % % % % % % % % % % % % ..@X@.v R z.s a z.! T.+.N  . .h. .N Q h J.. . . S J.h ! Q T.    "
};
