/* XPM */
static char *_2d34a43ae004082d051de1f8b61ba44jF532uxDNBoK4WJb[] = {
/* columns rows colors chars-per-pixel */
"50 50 235 2 ",
"   c #010101",
".  c #0B0101",
"X  c #050208",
"o  c #0C050A",
"O  c #090906",
"+  c #130202",
"@  c #1B0102",
"#  c #140806",
"$  c #14050A",
"%  c #1B0509",
"&  c #1D080B",
"*  c #1B0B06",
"=  c #1C110B",
"-  c #1C0B12",
";  c #160C14",
":  c #121615",
">  c #230202",
",  c #2B0000",
"<  c #23050C",
"1  c #24090C",
"2  c #290A07",
"3  c #350401",
"4  c #360907",
"5  c #2E100E",
"6  c #3A130F",
"7  c #240611",
"8  c #240B11",
"9  c #2A0B14",
"0  c #2B1112",
"q  c #3B1312",
"w  c #3B1D1C",
"e  c #371715",
"r  c #36231D",
"t  c #3C1B22",
"y  c #382728",
"u  c #3C312D",
"i  c #440000",
"p  c #520906",
"a  c #431715",
"s  c #561F1A",
"d  c #43120B",
"f  c #661D17",
"g  c #4B221E",
"h  c #401B22",
"j  c #472524",
"k  c #542B29",
"l  c #542826",
"z  c #5C322D",
"x  c #4D3836",
"c  c #593834",
"v  c #43352C",
"b  c #6F2724",
"n  c #732A29",
"m  c #77332C",
"M  c #7D3839",
"N  c #6E3636",
"B  c #58463C",
"V  c #68403C",
"C  c #79453C",
"Z  c #713C46",
"A  c #574847",
"S  c #585654",
"D  c #654744",
"F  c #744949",
"G  c #784744",
"H  c #694D51",
"J  c #675959",
"K  c #7A5857",
"L  c #7C4751",
"P  c #78605E",
"I  c #7E7570",
"U  c #904C47",
"Y  c #89574E",
"T  c #98524D",
"R  c #845C58",
"E  c #885855",
"W  c #975A58",
"Q  c #834B4A",
"!  c #A65C59",
"~  c #87665B",
"^  c #AF675F",
"/  c #8D5F61",
"(  c #975F61",
")  c #846664",
"_  c #956B68",
"`  c #95726A",
"'  c #896D71",
"]  c #8D7473",
"[  c #9A7878",
"{  c #8F776D",
"}  c #AF6F63",
"|  c #B86E69",
" . c #A6736C",
".. c #B9746C",
"X. c #B16F71",
"o. c #A87977",
"O. c #BC7977",
"+. c #C37A6D",
"@. c #C57D76",
"#. c #88827E",
"$. c #9E827E",
"%. c #A88178",
"&. c #B7867D",
"*. c #CB857D",
"=. c #C68478",
"-. c #D1897B",
";. c #998785",
":. c #9F9B90",
">. c #8E8A89",
",. c #AA8685",
"<. c #B28482",
"1. c #BB8983",
"2. c #BE958A",
"3. c #A99595",
"4. c #BA9D9E",
"5. c #B69894",
"6. c #B8A49D",
"7. c #A8A39F",
"8. c #AD9EA3",
"9. c #B9AAA6",
"0. c #B8BAB7",
"q. c #CC8A83",
"w. c #C28686",
"e. c #D28C83",
"r. c #C3928D",
"t. c #CC9288",
"y. c #D49484",
"u. c #DA9484",
"i. c #DA948B",
"p. c #D89A8B",
"a. c #CA9D94",
"s. c #C49997",
"d. c #D29693",
"f. c #D99491",
"g. c #D39A91",
"h. c #DD9D92",
"j. c #DB9798",
"k. c #E19B96",
"l. c #E1988F",
"z. c #C8A39C",
"x. c #DCA395",
"c. c #DCA39B",
"v. c #DAA798",
"b. c #E5A48D",
"n. c #E3A395",
"m. c #E4A59C",
"M. c #ECA59A",
"N. c #E5AC9D",
"B. c #EBAB9A",
"V. c #EAA396",
"C. c #F1AE9D",
"Z. c #E3B19C",
"A. c #EEB29D",
"S. c #F2B39C",
"D. c #F0B89F",
"F. c #C6A1A0",
"G. c #C5AAAB",
"H. c #D5AAA1",
"J. c #DCAEAA",
"K. c #DBABA5",
"L. c #DEB5A5",
"P. c #DDB3AB",
"I. c #DFB9A6",
"U. c #CCAFB1",
"Y. c #CDB4B2",
"T. c #C5B7B4",
"R. c #D9B9B5",
"E. c #C2B1AA",
"W. c #E6ABA5",
"Q. c #F1AFA1",
"!. c #E4B4A5",
"~. c #EDB2A4",
"^. c #E3BBA6",
"/. c #ECBDA2",
"(. c #E3B4AA",
"). c #EDB5AB",
"_. c #E5BBAC",
"`. c #EBBCAB",
"'. c #F3B4A4",
"]. c #F4BBA4",
"[. c #F2B1AA",
"{. c #F4BCAC",
"}. c #FABBA8",
"|. c #E4BBB4",
" X c #EDBEB4",
".X c #EBBFBB",
"XX c #F5BCB5",
"oX c #F9BEB4",
"OX c #F0BFB8",
"+X c #D0C2BA",
"@X c #ECC2AB",
"#X c #EEC2A5",
"$X c #F3C4AC",
"%X c #FAC4AB",
"&X c #F5C9AD",
"*X c #F6C1A6",
"=X c #EBC4B4",
"-X c #ECC2BB",
";X c #EAC6B9",
":X c #F3C3B4",
">X c #FAC5B4",
",X c #FDCAB4",
"<X c #F4C5BC",
"1X c #FCCABC",
"2X c #F5C9BA",
"3X c #FCD1B9",
"4X c #D5BAC1",
"5X c #D6C5C4",
"6X c #DED3CF",
"7X c #DFD5D3",
"8X c #ECCFC1",
"9X c #FECCC4",
"0X c #FDC8C4",
"qX c #E3DBD5",
"wX c #E3DDD9",
"eX c #E9DCDA",
"rX c #E9D6D7",
"tX c #F9DBD1",
"yX c #E7E1DD",
"uX c #EBE3DD",
"iX c #ECE5E2",
"pX c #EEEAE5",
"aX c #EEEBE9",
"sX c #F2EAE6",
"dX c #F2ECEA",
"fX c #FBECEB",
"gX c #F5E7E3",
"hX c #F4F2ED",
"jX c #FBF2EC",
"kX c #F4F1E5",
"lX c #F4F4F2",
"zX c #FAF6F3",
"xX c #FCF9F6",
"cX c #FEFDFB",
"vX c #F8F7F6",
/* pixels */
"    X       X       . % @ < 1 # + . . .     O O           O   O O       O . X X                     ",
"                    . < < > 1 % + # O O           O     O   O       O     X X X                     ",
"                    . % < 1 9 * @ + . .   X O   O   X X X                 O X   X                   ",
"                    . % 7 9 0 * $ $ . .   X O X O X O X X O   O O   O O O                     X     ",
"                    . & 9 7 7 - 9 7 % $ . X O X X O X   X . X X . X X O   X                         ",
"                      & 9 7 8 7 9 7 < $ o .               X . X O X       .       . .               ",
"                    . % 8 7 - & 7 < & $ + . .     O . O O     X X X   O O .         .               ",
"                      $ < @ @ @ < < < & $ . . O           X       X   . . . .               X       ",
"                    . * @ < + % % # % % * + . . O   . X       O X   . 2 ~ w . .                     ",
"                    . & < @ @ . + + $ $ & % + . . . o       O     # # [ K.l + .                     ",
"                    . 1 w @ + @ + . . @ $ $ - ; $ o o o o # .     . K H.d.Z > .                     ",
"                X   . 1 ,.,.k + . . . . . o - ; o X .   O .   # . c v.W.f.W 5 .                     ",
"                    . e z.8X8X{ * . . O .       X O .     . . . > &.!.x.e.U q +                     ",
"            X   X   + 5 s.|.;X2Xz.B + . @ . . o     . . . + @ e %.~.n.u.+.U 6 .     X               ",
"          X X X     . 5 <.|.R.;X8X;X2.V @ + + . . . . + 2 z _ m.'.~.l.u.+.m 3 @   X X               ",
"                  . + w o.P.;X=X:X2X9X<Xs.~ l e e g z G &.[.{.'.C.C.u.u.^ n 4 + .                   ",
"                    . %.z.I.I.@X:X2X:X:X1X:X~.h.c.c.B.~.].}./.A.S.b.-.-.+.m s +                     ",
"                    . 6.R._.I._.2X:XOX=X>X>X{.}.'.C.A.D.%X%XD.].b.p.p.-...T E @ .                   ",
"                O   . Y.P._.@XL.@X:X1X>X>X,X>X%X}.*X*X*X*X%X}.S.B.y.e.q.O.W E +                     ",
"                    . R.|.|.=X;X^.`.@X:X,X,X,X&X/.D.#X,X,X].D.A.p.q.q.q.@.( K + .                   ",
"                    . Y.|.(.L.2X9X2X`.:X&X&X#X#X/.&X&X$X%X/.Z.v.v.).m.f.X.( ` .                     ",
"                  O   R.R.2.` C ~ r.`.:X@X`.@X$X$X$X$X$XZ.Z./.!.p.&.T m Z / ) .       .             ",
"                    . 6.R.H.2.G d 3 d Y H.:X/.{.~.,X[.~.~.`. .k 3 3 p n ! ) P .     .               ",
"                    . ] -XL.L.a.r.a.Q 3 s O.m.c.h.[.e.f.q.C 3 4 Y M M | w.L ]                       ",
"                    . D R..X-X-XJ.W.W.O.b p f m q.h.b p i i W d.*.} ..f.1.N 9..                     ",
"                  O . j s.-X<X-X.XW.j.k.@.| | } M.C.T U ! ^ O.=...=.m.h. .c E.      .               ",
"                    + y [ .X|.-XOXXX[.k.l.k.~.N.{.}.*.=.l.i.q.p.x.V.B.g.~ D +X.         X           ",
"                    . c z J.J.(..X[.).Q.[.{.&X@X3X>Xy.=.V.n.p.m.n.x.t.a.c ~ +X                      ",
"          .         . H e o.|.v.(.(.>X1X1X/.I.=X3X,Xy.O.M.}.~.x.h.g.r.` * ;.T.                      ",
"                    + ' j F s.|.|.:X1X>X{.!.^.I.2X,X-.+.V.].].Z.c.r.%.e v qX9.                      ",
"                      4.l l V v._.=X1XXX[.W.`.XX3X:X*.+.V.C.~.N.g. .r   :.kXwX                      ",
"                    . U.F , , K ;X=X<X[.[.W.XXXX0XoXe.*.M.].B.g.&.j . r qXqXyX                      ",
"                X   . G.<.q > l L. X).(. X(..XXX0XXXk.q.n.C.x.v.K @ . #.pXyXdX                      ",
"                    . +XF.F , a r.(.K.K.|.J.W.9X9XXXW.@.i.h.i.=.B . x 6XwXdXiX                      ",
"          X         . tX5.,.4 , %.z.F.P.(.J.r.r.0X0Xt. .d.q...W w + 9.uXiXdXaX                      ",
"              X       cX4.s.K > P 5.,.` o.<.F a <.<.l l Y G G z @ u qXqXiXaXdX                      ",
"                    . cXrX3.<.> 5 x e q a 6 @ @ > + . + + > + = . I uXuXpXpXaX                      ",
"                      xXzXG.4.D @ @ > > < > @ + 5 < + + @   .   = T.pXyXkXpXpX                      ",
"  .                   xXcXeX4.] @ + @ + > > > l o.Z < @ # + . . S uXyXuXpXaXiX                      ",
"              X       cXxXcX4X[ y + % + @ t l L / Z h h @ .   o 7.yXyXuXhXiXlX                      ",
"        X             cXcXcXfXU.H @ % @ < e 2 > @ @ % 1 $ .   S iXuXpXsXaXaXaX                      ",
"                    X cXcXcXcXfX;.< @ 7 % % @ + . $ . #     : 0.kXuXdXsXdXdXlX                      ",
"                      cXcXcXcXcXrXA . . + $ * # .   .   O   >.hXdXpXhXsXaXaXdX                      ",
"                      vXcXvXlXfXlX9.y # $ . + + . . O   O #.yXgXkXsXdXsXaXpXdX                      ",
"                      zXcXvXzXzXaXaX5XJ . $ . o   O   O S yXgXfXjXsXsXsXdXdXfX                      ",
"                      vXcXvXcXcXcXvXcXpX:.y . . .   = A ;XgXjXgXhXsXsXsXgXdXaX                      ",
"          .           vXcXcXcXcXcXcXcXcXcXrX8.J J ' 3.eXuXjXkXjXkXsXsXgXpXgXdX                      ",
"                O     lXxXcXcXcXcXvXvXcXcXcXcXvX4XR.rXjXjXjXkXhXsXuXsXsXpXdXdX  .                   ",
"                      cXlXvXcXcXcXcXvXcXcXcXcXcXdXqXzXjXcXjXhXdXsXsXsXpXpXdXpX                      ",
"                      cXlXvXcXcXcXcXvXcXcXcXcXcXcXlXxXcXxXdXsXiXpXsXsXpXsXdXsX                      "
};
