/* XPM */
static char *result[] = {
/* columns rows colors chars-per-pixel */
"50 50 18 1 ",
"  c #C05811",
". c #9E470C",
"X c #C6611C",
"o c #CA6521",
"O c #D06A27",
"+ c #A94D0F",
"@ c black",
"# c #BE5710",
"$ c #B35210",
"% c #A34A0D",
"& c #C05D1B",
"* c #D6712F",
"= c #97440C",
"- c #B95613",
"; c #8B3F0B",
": c #80390A",
"> c #6C3008",
", c #502306",
/* pixels */
"@@@@@@@@@@@@@@@@@@@@@@@@@@@@@@@@@@@@@@@@@@@@@@@@@@",
"@@@@@@@@@@@@@@@@@@@@@@@@@@@@@@@@@@@@@@@@@@@@@@@@@@",
"@@@@@@@@@@@@@@@@@@@@@@@@@@@@@@@@@@@@@@@@@@@@@@@@@@",
"@@@@@@@@@@@@@@@@@@@@@@@@@@@@@@@@@@@@@@@@@@@@@@@@@@",
"@@@@@@@@@@@@@@@@@@@@@@@@@@@@@@@@@@@@@@@@@@@@@@@@@@",
",;......=.==>:=========.>>;;;;;;;;;;>,:::::::::;>,",
":XO*OOOoOOo#.-OOOOOooOo %+XOOOOooooX$.&ooooooooX-:",
";O*oX& &   #%X*OXXX&&&& +$**oX&&&&& $+**OoXXXXX&#=",
";Oo#       #%X* # #     +$*o#       $+*o####    -=",
";oX        #.&O         %$OX########$+OX        #;",
">%+%%%+%+++.;.+%%%%%%%%%;=+%%%%%%%%%==$+++++++++%:",
",=%%%.;.$$$$$+$$$+=;%+++++++++=;%++++%++++.;%+++.>",
":XOOo =&***OOOOOoX%$***OOOOOOX++O***OOOOOX-.OOoo#;",
":oX  -.&*X   ##   +-*o &    ##$+*O&       -%o   -;",
":X   -.&*         +-*         ++*X#       -%X   -;",
":----$=-X########-.$o ########++o ########$.####$;",
",=...=;=....======;=%%%%..%%%%=;%%%%..%%%%.;....=>",
":-XooooXXXX$=+&&X&&&&&&-=%&XooXX&XX-.=-XooooXXX&+>",
"=o*OoXXXXXX#.X**OoooooX +-**ooXXXXX ++**OoXXXXXX$:",
"=OO ###    -.o*  ###### +-*&###     +%*o####    $:",
"=oo        -.oO         +-*         ++OX        $:",
":$$$$$$$$$$%=$-$$$$$$$$$=+-$$$$-$$$$.=$$$$$$$$$$%>",
">.%%%.;.+++$+++++%==%%++%%+++%==%%++%%++++.;%+++.>",
":XOoo =&***OOOoOo&%$O**OOOOOOX+%O**OOOOOOX$.OOoo#;",
";oX  -.&*X     #  %-*o&     # ++*O& &     $%o   -;",
";X   -.X*    #    +-*         ++*X#       $%X   -;",
":-#--$=-X########-.$o ##     #++o #       $.####$;",
">=...=;=....=.....;=%%%%..%%%%=;%%%%..%%%%=;=...=>",
":-XooooXXo&-=$XooXoX&&&-.%-&&&&&&&&-.=-&&&&&&&&&+>",
".O*OoXXXXX& %o*OooXXXXX +&**OOooooX&++O*OOooooXX-:",
"=*o###     #%oO ######  +&*& ###### ++*O ###### -:",
"=OX        #%oo         %&O         $+Oo        $:",
":$$$$$$$$$$+;+$+++++++++=+&$$$$$$$$$..--$$$$$$$$+>",
">.%%%.;.++++++%++%==%%%%%%%%%%.=%%+%%%+%+%.=%+%%.>",
":XOOo .-***OOOOOO&%$O**OOOOOOX$%X***OOOOOo-.XOoo ;",
";o&  #.&*o&       +$*OX&      $+o*o&      $.oX  #;",
";X   #.&*         +$*&#       $+oO        $.X   #;",
":----$=-o########-.$O ##  ### +%Xo##  ### $.####-;",
",=...=;=....=.....;=%%%%%.%%%%=;%%%%..%%%%=;....=>",
":-XooXXXXX&-=+&&X&X&&&&-.=-&&&&&&&&-%=$--&------+:",
";O*OooXXXXX#%&**OoooooX +$**OooooXXX$+O**OOOoooo#=",
";OO ###### #%X*  #####  +$*o ###### $+*O        -=",
";Oo        #%XO         +$*X        $+*o        -=",
":$-$$$$$$$$+=+-$$$$$$$$$=.-$$$$$$$$$%.&-$-------+:",
"@>>>>>>>>>>>,,>>>>>>>>>>,,::::::::::>,:;;;;;;;;;:,",
"@@@@@@@@@@@@@@@@@@@@@@@@@@@@@@@@@@@@@@@@@@@@@@@@@@",
"@@@@@@@@@@@@@@@@@@@@@@@@@@@@@@@@@@@@@@@@@@@@@@@@@@",
"@@@@@@@@@@@@@@@@@@@@@@@@@@@@@@@@@@@@@@@@@@@@@@@@@@",
"@@@@@@@@@@@@@@@@@@@@@@@@@@@@@@@@@@@@@@@@@@@@@@@@@@",
"@@@@@@@@@@@@@@@@@@@@@@@@@@@@@@@@@@@@@@@@@@@@@@@@@@"
};
