/* XPM */
static char *_042e19662f1468288fd268cf4f83adawDlNpEUXSEMzJ0RC[] = {
/* columns rows colors chars-per-pixel */
"16 16 10 1 ",
"  c #03120E",
". c #061914",
"X c #24433B",
"o c #2F584E",
"O c #427367",
"+ c #B5AF79",
"@ c #99C693",
"# c #C0C287",
"$ c #E4E6AC",
"% c #EDF2B9",
/* pixels */
"OOOOOOOOOOOOOOOO",
"O@XXX@+Xo#@XXX@O",
"OXO#+Oo#$OO+#OoO",
"OX+%$+OOoo+$%+oO",
"OX+$OooXoXXo$+oO",
"OX#%X      O%#oO",
"O@#%o .....o%#@O",
"Oo#%o .....O%#oO",
"OX#%X .....O%#oO",
"O@#%o .....O%#@O",
"Oo#%X .....O%#oO",
"OX+$oOoOOOOo$+oO",
"OX+%$+Oooo+$%+oO",
"OXO#+Oo$#OO+#OoO",
"O@ooo@#oo+@ooo@O",
"OOOOOOOOOOOOOOOO"
};
