/* XPM */
static char *ab8c196f438a4d31fb2fcc234ad60189DaeH2Fglhu56S9VT[] = {
/* columns rows colors chars-per-pixel */
"16 16 10 1 ",
"  c #313131",
". c #565656",
"X c #FF1313",
"o c #FF1414",
"O c #D8CCCC",
"+ c #DDDADA",
"@ c #E4E2E2",
"# c gray94",
"$ c #F9F9F9",
"% c white",
/* pixels */
"$$$$$###$$###$$$",
"$####+####+####$",
"$##+O######O+##$",
"$##############$",
"###+  +##+  +###",
"##+. X.@@.X .@##",
"$###O+%##%+O###$",
"%###O#%##%#+####",
"$###+##########$",
"++@###%%%%#+#@++",
"$$##+%%  %%###$$",
"+@###%    %###@+",
"$####% oo %####$",
"@####%.oo.%####@",
"#####%%..%%#####",
"$$$$$#%%%%#$$$$$"
};
