/* XPM */
static char *cb58f0d18cf94b58e62c97e7e2ba7109FDDpyR9dNvlaFedV[] = {
/* columns rows colors chars-per-pixel */
"16 16 7 1 ",
"  c #593D29",
". c #79553A",
"X c #745844",
"o c #6C6C6C",
"O c #966C4A",
"+ c #B9855C",
"@ c gray53",
/* pixels */
"+OO..+OO.. ..+.+",
".O ..O@ .+O.+O  ",
"+.. +...+...  +.",
"Oo+.O .+OO.O.+O.",
"O.O+ O..O .o.O .",
". OO.O   .. ...+",
"+...@..++.++.O.O",
"..++OO..O OO..OO",
"O..O.O. .OO... .",
".O ..  .....++.O",
".O.++.+O ++ OO@.",
"O..OO+.OoOO. O. ",
". O.OO+.......++",
".O..X.OO. + .+OO",
"O. +. . ++.O..OO",
"O.+OO.@.OO..OO. "
};
