/* XPM */
static char *_7d28e91e9de413de9b7cfe37aa0cd83n0FCK29SjHANlsOm[] = {
/* columns rows colors chars-per-pixel */
"16 16 11 1 ",
"  c None",
". c #002D00",
"X c #005300",
"o c #007B18",
"O c #009529",
"+ c #00AA2C",
"@ c #17DD62",
"# c #41F384",
"$ c #82F6AD",
"% c #AFFDCD",
"& c #DBFFEB",
/* pixels */
"                ",
"                ",
"      XXXX      ",
"     X&##@X     ",
"    X&%##+@.    ",
"   X&%%##++@.   ",
"   X%@@%%+O+.   ",
"   X%@@%$+o+.   ",
"   X%@@%$+o+.   ",
"   X%@@$$+o@.   ",
"   X%@@$#oO@.   ",
"    X+OooO$.    ",
"     X+Oo@.     ",
"      ....      ",
"                ",
"                "
};
