/* XPM */
static char *_0ba553078e547ebaf1a871d67e886eaJ2KEfhN4jbOrbAnt[] = {
/* columns rows colors chars-per-pixel */
"16 16 8 1 ",
"  c gray45",
". c #9D9999",
"X c #D8CCCC",
"o c #DDDADA",
"O c #E4E2E2",
"+ c gray94",
"@ c #F9F9F9",
"# c white",
/* pixels */
"@@@@@+++@@+++@@@",
"@++++o++++o++++@",
"@++oX++++++Xo++@",
"@++++++++++++++@",
"++++++++++++++++",
"++o   .OO.   o++",
"@+++Xo#++#oX+++@",
"#+++X+#++#+o++++",
"@+++o++++++++++@",
"ooO++++++++o+Ooo",
"@@++o+++++++++@@",
"oO++++++++++++Oo",
"@+++++.  .+++++@",
"O++++++++++++++O",
"++++++++++++++++",
"@@@@@+@@@@+@@@@@"
};
